<svg width="137" height="121" viewBox="0 0 137 121" fill="none" xmlns="http://www.w3.org/2000/svg">
<path d="M1.79053 85.3798L63.9888 120.567L136.621 78.2721V49.8334L63.9888 92.1285L1.79053 56.5741V85.3798Z" fill="#0A297C"/>
<path opacity="0.15" d="M1.79053 85.3798L63.9888 120.567L136.621 78.2721V49.8334L63.9888 92.1285L1.79053 56.5741V85.3798Z" fill="black"/>
<path d="M1.79053 56.5742L75.811 14.1035L136.621 49.8334L63.9888 92.1286L1.79053 56.5742Z" fill="#0A297C"/>
<path opacity="0.15" d="M63.9888 92.1285V120.567L136.621 78.2721V49.8334L63.9888 92.1285Z" fill="black"/>
<path d="M64.0766 29.7148C64.5589 29.9682 65.0089 30.2789 65.4167 30.6402C65.7262 30.9021 65.9951 31.2086 66.2145 31.5496C66.3604 31.7861 66.4807 32.0375 66.5734 32.2994C66.6338 32.4738 66.6635 32.6574 66.6612 32.8419V33.0413L63.3905 33.2567C63.4038 33.1401 63.4038 33.0223 63.3905 32.9057C63.3287 32.6383 63.2088 32.3878 63.0395 32.1718C62.7938 31.8034 62.4554 31.5063 62.0583 31.3103C61.5549 31.0333 60.9896 30.8879 60.415 30.8875C59.9292 30.8641 59.4478 30.9893 59.035 31.2464C58.9464 31.2886 58.8674 31.3484 58.8028 31.4223C58.7382 31.4962 58.6895 31.5825 58.6596 31.6759C58.6297 31.7694 58.6193 31.868 58.6289 31.9656C58.6386 32.0632 58.6682 32.1578 58.7159 32.2436C58.9618 32.7122 59.2855 33.1357 59.6732 33.496C60.1199 33.9334 60.5433 34.3941 60.9415 34.8761C61.133 35.0911 61.2756 35.3451 61.3596 35.6205C61.4436 35.8959 61.467 36.1862 61.4281 36.4715C61.3378 36.8219 61.1755 37.1496 60.9517 37.4339C60.7278 37.7182 60.4473 37.9528 60.1278 38.1228C58.9404 38.8884 57.5518 39.2828 56.1392 39.2556C54.529 39.2562 52.945 38.8471 51.5364 38.067C50.9866 37.7808 50.4748 37.4271 50.0128 37.014C49.6612 36.7115 49.362 36.353 49.1273 35.953C48.9724 35.6676 48.8442 35.3685 48.7444 35.0595C48.6799 34.8504 48.6502 34.6321 48.6566 34.4134V34.1661L51.8475 34.0145C51.8475 34.1182 51.8475 34.2538 51.8475 34.4293C51.9269 34.7653 52.0764 35.0806 52.2862 35.3547C52.6108 35.8316 53.0533 36.2163 53.5706 36.4715C54.176 36.8098 54.8555 36.9934 55.5489 37.006C56.1338 37.0323 56.7128 36.8792 57.2082 36.5672C57.296 36.5242 57.3742 36.4639 57.4381 36.3899C57.502 36.3159 57.5503 36.2298 57.5801 36.1366C57.6099 36.0435 57.6206 35.9453 57.6115 35.848C57.6024 35.7506 57.5738 35.6561 57.5273 35.5701C57.282 35.0989 56.9552 34.6749 56.562 34.3177C56.1112 33.8818 55.6851 33.4211 55.2857 32.9376C55.0956 32.7221 54.955 32.4676 54.8737 32.192C54.7924 31.9164 54.7724 31.6263 54.815 31.3422C54.9017 30.9913 55.0617 30.6628 55.2844 30.3782C55.5071 30.0936 55.7876 29.8593 56.1073 29.6909C57.2217 29.0008 58.5146 28.654 59.8247 28.6937C61.306 28.6653 62.7698 29.0168 64.0766 29.7148V29.7148Z" fill="white"/>
<path d="M78.1003 46.6903L77.0712 47.2727L70.5937 43.8106C70.4266 43.954 70.3029 44.1413 70.2366 44.3514C70.1704 44.5614 70.1642 44.7858 70.2188 44.9992C70.3126 45.2631 70.4613 45.5041 70.6552 45.7063C70.8491 45.9085 71.0838 46.0671 71.3436 46.1718C71.8264 46.4244 72.346 46.5993 72.8832 46.6903C73.3271 46.7759 73.7797 46.8081 74.2313 46.7861H74.7498L74.4866 48.4932H74.1675C74.0239 48.4932 73.7447 48.4932 73.3698 48.4932C72.9613 48.4765 72.554 48.4393 72.1493 48.3815C71.668 48.3066 71.1933 48.1945 70.7293 48.0464C70.2113 47.8891 69.7092 47.6834 69.2296 47.4322C67.9134 46.7302 67.2273 45.8368 67.1555 44.7758C67.0838 43.7148 67.6422 42.7735 68.8387 41.9678C70.153 41.1154 71.6763 40.6408 73.2422 40.5957C74.8188 40.4703 76.3997 40.7793 77.8131 41.4892C79.0894 42.1673 79.7595 43.0049 79.8074 43.994C79.8553 44.9832 79.2969 45.8846 78.1003 46.6903ZM72.2131 42.7017L76.3214 44.8955C76.4809 44.7623 76.6036 44.5905 76.6777 44.3963C76.7517 44.2021 76.7746 43.9922 76.7442 43.7866C76.6829 43.5636 76.5712 43.3577 76.4177 43.1848C76.2641 43.0119 76.0729 42.8766 75.8587 42.7895C75.3172 42.5058 74.7149 42.358 74.1037 42.3587C73.4608 42.3525 72.8224 42.4661 72.2211 42.6937" fill="white"/>
<path d="M72.6524 35.9451L70.004 37.724L71.8228 38.6972L69.7726 40.0773L67.9538 39.104L64.6273 41.3377C64.5139 41.3937 64.4195 41.4817 64.3557 41.5909C64.2919 41.7001 64.2615 41.8256 64.2684 41.9519C64.2684 42.1832 64.4518 42.3827 64.7709 42.5582C64.9376 42.6439 65.111 42.7159 65.2894 42.7735C65.4302 42.8229 65.5741 42.8629 65.7202 42.8932H65.8638L63.8934 44.2174C63.2473 44.0769 62.6243 43.846 62.0427 43.5314H61.9948C60.1122 42.5263 60.1441 41.3696 62.0826 40.0693L65.4968 37.7798L63.9413 36.9821L65.9914 35.602L66.7892 36.0408C67.1052 36.1975 67.46 36.2585 67.8102 36.2163C68.2044 36.1872 68.584 36.0552 68.9111 35.8334L70.4427 34.8043L72.6524 35.9451Z" fill="white"/>
<path d="M90.9758 50.0089C90.9758 51.03 90.3722 51.95 89.165 52.769C87.8591 53.6174 86.3494 54.0995 84.7935 54.165C83.319 54.307 81.8343 54.0305 80.5097 53.3673C80.0578 53.1447 79.6685 52.8129 79.377 52.4021C79.1695 52.1452 79.0469 51.8302 79.026 51.5006V51.1496L74.4151 54.2528L71.9502 52.9365L83.916 44.8955L86.381 46.2118L85.3599 46.8978H85.5912H86.1895C86.4871 46.8811 86.7854 46.8811 87.083 46.8978C87.4332 46.9378 87.7799 47.0044 88.12 47.0972C88.4979 47.2275 88.8594 47.4015 89.1969 47.6157C89.6882 47.8073 90.1157 48.1334 90.4303 48.5567C90.7449 48.9799 90.934 49.4832 90.9758 50.0089V50.0089ZM84.3069 52.1787C85.1295 52.1194 85.922 51.8442 86.6043 51.381C86.8663 51.2462 87.093 51.0519 87.2662 50.8136C87.4394 50.5753 87.5542 50.2997 87.6015 50.0089C87.5878 49.7334 87.4947 49.4678 87.3333 49.2441C87.1719 49.0205 86.9492 48.8483 86.6921 48.7485C86.0113 48.4082 85.2473 48.2698 84.4904 48.3496C83.667 48.4055 82.8737 48.681 82.1929 49.1474C81.9154 49.2875 81.6769 49.4941 81.4988 49.7489C81.3206 50.0036 81.2083 50.2985 81.1718 50.6072C81.1833 50.8831 81.2746 51.1498 81.4346 51.375C81.5946 51.6001 81.8164 51.774 82.0733 51.8756C82.7549 52.2131 83.5188 52.3488 84.275 52.2665" fill="white"/>
<path d="M107.05 52.9684L95.084 61.0094L92.3877 59.5815L101.099 53.7262L98.9051 52.5536L100.501 51.4607C100.933 51.6379 101.382 51.7715 101.841 51.8596C102.232 51.9392 102.63 51.9819 103.029 51.9872C103.356 51.9872 103.667 51.9872 103.931 51.9393C104.146 51.9244 104.359 51.8924 104.569 51.8436L104.784 51.7877L107.05 52.9684Z" fill="white"/>
<path d="M12.4404 19.488L8.5874 40.0612L19.8911 27.1222" fill="#F9CE9B"/>
<path d="M40.5359 71.8185C39.6026 71.5313 35.5901 71.7547 35.5901 71.7547C35.5901 71.7547 35.3667 68.4761 35.4624 68.3245L31.3223 68.1809C31.3223 68.1809 30.1815 74.108 30.0938 74.8977C29.9422 76.3496 31.6892 76.9877 32.0881 76.9718C32.3803 76.905 32.6681 76.8197 32.9496 76.7165C32.8764 75.9551 32.8764 75.1885 32.9496 74.4271C33.0054 74.084 33.1012 73.8447 33.4522 73.749C34.0824 73.5815 35.1752 74.0282 35.7815 74.2117C36.3878 74.3951 37.2094 74.6743 37.9274 74.8818C39.6345 74.1957 41.1183 73.5177 41.2379 73.1986C41.6448 72.4168 42.0037 72.2573 40.5359 71.8185Z" fill="#F9CE9B"/>
<path d="M41.916 72.2175L41.8282 72.0978C41.549 71.7628 40.7194 71.699 40.3285 71.6511C38.7583 71.4975 37.1752 71.535 35.614 71.7628C35.614 71.7628 39.3952 71.6431 39.467 72.3291C39.4995 72.6041 39.4674 72.8828 39.3732 73.1432C39.2791 73.4036 39.1254 73.6383 38.9245 73.8289C37.2174 75.0494 34.9359 73.2705 33.508 72.4568L30.8197 70.9491L30.3969 73.2226C30.1905 74.2605 30.081 75.3154 30.0698 76.3736C30.2294 76.7166 31.8089 77.7696 32.1758 77.626C32.5428 77.4824 33.7154 76.94 33.7154 76.94L33.7872 74.148C33.7872 74.148 36.0129 75.4004 37.1376 75.2249C37.9912 75.0972 42.7456 73.6135 41.916 72.2175Z" fill="#56403D"/>
<path d="M8.55536 91.4345C7.94112 91.1473 7.02374 90.8761 6.63285 90.2619C6.34487 89.5566 6.2781 88.7804 6.4414 88.0362C6.49458 87.3289 6.56638 86.6243 6.65678 85.9223C6.62115 85.8871 6.59346 85.8447 6.57557 85.7979C6.55768 85.7511 6.55002 85.7011 6.55308 85.6511C6.57813 85.0757 6.6421 84.5027 6.74453 83.936L3.88072 83.3536C3.88072 83.3536 2.07787 88.1399 2.1018 88.7303C2.12573 89.3206 4.49496 93.3411 5.85108 93.7399C7.20721 94.1388 11.2357 93.3251 11.6106 92.8305V92.7827C10.6055 92.3599 9.57645 91.9132 8.55536 91.4345Z" fill="#F9CE9B"/>
<path d="M4.78206 89.0972C4.78206 89.0972 5.79516 93.9792 6.31368 94.3462C6.8322 94.7131 12.8311 93.4687 12.0812 92.2721C11.6026 91.4744 8.0926 91.1473 7.79744 91.0276C7.79744 91.0276 9.57636 91.8254 9.54445 92.1205C9.51254 92.4157 7.07949 93.2453 6.98377 93.014C6.88804 92.7826 4.79004 88.3792 4.79004 88.3792L2.50058 87.2943L0.107422 91.4345L1.70286 92.3199C1.70286 92.3199 2.06981 93.692 2.24531 93.708C2.89451 92.9931 3.48916 92.2304 4.02423 91.4265C4.06902 92.0377 4.20064 92.6393 4.41511 93.2134C4.63049 93.4049 6.39345 95.1997 7.40656 94.0749L5.97066 92.0806" fill="#56403D"/>
<path d="M21.343 43.5393C23.1937 37.4846 23.2416 38.5616 24.4541 33.5678L12.3447 30.377C6.17035 39.6385 0.426758 84.3108 0.426758 84.3108C0.426758 84.3108 6.40168 89.0972 11.5948 87.6453C11.5948 87.6453 18.5909 50.7826 18.6068 50.7428C19.604 48.2459 19.6438 47.7752 21.343 43.5393Z" fill="#999A1C"/>
<path d="M39.148 45.8528C37.393 40.1251 22.699 33.0892 22.699 33.0892L17.5776 48.5969C17.8329 47.7992 27.0147 50.1924 27.8842 51.1177C29.9822 53.3434 29.001 57.8664 28.6819 60.6106C28.6819 60.6106 27.8044 65.038 27.246 68.173C30.8038 70.9172 37.5685 68.173 37.5685 68.173C37.5685 68.173 40.903 51.6043 39.148 45.8528Z" fill="#999A1C"/>
<path d="M19.4202 48.5889C19.4202 48.5889 16.1575 48.0704 14.3467 46.5867L13.6846 74.2835L19.4202 48.5889Z" fill="#7A770E"/>
<path d="M34.1061 27.1303L36.0365 40.532C36.0365 40.532 39.738 43.7229 40.2326 45.438C40.365 45.9641 40.3756 46.5135 40.2636 47.0443C40.1517 47.5752 39.92 48.0734 39.5864 48.5012L32.4548 41.7765L27.6685 26.5719" fill="#F9CE9B"/>
<path d="M28.4424 12.8032C28.7216 13.4254 31.6333 15.9143 32.431 19.4961C33.2287 23.0779 34.0823 27.1303 34.0823 27.1303L25.1318 30.385" fill="#B05800"/>
<path d="M18.5427 11.0802C16.4527 10.8169 10.4538 18.7303 10.5655 19.9029C10.6772 21.0756 14.5541 24.3622 14.5541 24.3622" fill="#B05800"/>
<path d="M29.6073 14.5501L29.1447 14.4783C26.7515 14.1513 24.5258 10.4897 24.5258 10.4897C24.5258 10.4897 24.7093 2.86351 19.5879 8.30396C15.7589 12.3723 13.1344 25.0561 12.0415 31.1985C13.5731 32.7062 15.7509 33.4401 17.809 33.9666C19.1677 34.3451 20.555 34.6119 21.9572 34.7644C22.8214 34.8472 23.6934 34.7494 24.5179 34.4772L27.7088 24.737C28.1691 21.3115 28.8027 17.9115 29.6073 14.5501V14.5501Z" fill="#B05800"/>
<path d="M31.6411 5.33653C31.6411 5.33653 32.1357 12.4602 28.4502 12.7793C24.7648 13.0984 23.5841 9.38097 23.6639 8.57527C23.7437 7.76958 26.081 2.43283 31.6411 5.33653Z" fill="#F9CE9B"/>
<path d="M32.2475 4.59463C31.6988 3.77159 30.9783 3.07725 30.1354 2.55945C29.2926 2.04165 28.3476 1.71268 27.3654 1.59519C25.7187 1.20834 23.9932 1.33358 22.4196 1.95417C22.1488 1.52205 21.7655 1.17182 21.3107 0.941064C20.7647 0.653881 20.1417 0.547056 19.5312 0.635912C18.9207 0.724767 18.354 1.00474 17.9124 1.43565C17.5223 1.84862 17.2826 2.38093 17.2319 2.94678C17.1813 3.51263 17.3226 4.07905 17.6332 4.55474C18.162 5.20841 18.9275 5.62697 19.7631 5.71942L19.7153 5.86301C19.3404 7.00375 18.064 7.10745 17.2583 7.85731C16.8768 8.19701 16.6141 8.64986 16.5084 9.14961C16.4127 9.65217 16.676 10.3542 16.4606 10.8089C16.2452 11.2636 15.8543 11.3673 15.5512 11.6066C15.1989 11.8333 14.8749 12.1011 14.5859 12.4043C16.2532 14.5183 18.9734 15.6989 21.55 16.2413C24.3446 16.9179 27.2831 16.6717 29.9261 15.5394C29.9215 15.2635 29.859 14.9918 29.7426 14.7416C29.4563 14.2919 29.122 13.8747 28.7455 13.4972C28.2589 12.8431 29.4236 12.0134 29.6629 11.3912C30.0777 10.3302 29.5033 9.56442 28.8013 8.83052C28.2908 8.30403 28.4264 7.90517 28.6976 7.23508C28.8623 6.70897 29.189 6.24831 29.631 5.91885C29.8077 6.02649 30.0166 6.06882 30.2213 6.0385C30.6291 5.98651 31.0419 5.98651 31.4498 6.0385C31.6576 6.0518 31.8624 5.98332 32.0203 5.84768C32.1783 5.71204 32.277 5.52 32.2954 5.31258C32.3574 5.20103 32.386 5.07391 32.3775 4.94653C32.369 4.81915 32.3238 4.69695 32.2475 4.59463V4.59463Z" fill="#56403D"/>
<path d="M28.9373 5.91088C30.013 6.12829 31.1123 6.20604 32.2079 6.14222C32.2079 6.03851 34.1145 2.56045 27.1504 1.02085C20.1863 -0.518756 19.8911 8.47954 19.8911 8.47954" fill="#56403D"/>
</svg>
