<svg width="141" height="158" viewBox="0 0 141 158" fill="none" xmlns="http://www.w3.org/2000/svg">
<path d="M0.68457 120.809L65.1042 157.253L140.331 113.447V83.9927L65.1042 127.798L0.68457 90.9742V120.809Z" fill="#001F6F"/>
<path d="M0.68457 90.9742L77.3487 46.995L140.331 83.9927L65.1042 127.798L0.68457 90.9742Z" fill="#0A297C"/>
<path d="M65.104 127.798V157.253L140.331 113.447V83.9927L65.104 127.798Z" fill="#021955"/>
<path d="M18.0596 51.6466V81.068L82.6031 117.793L111.132 101.318V71.5335" fill="#A0D700"/>
<path d="M81.9424 88.7765L82.6034 117.793L140.331 83.9927L140.752 54.0426L81.9424 88.7765Z" fill="#93BC00"/>
<path d="M81.9422 88.7765L140.752 54.0426L78.4308 17.3423L18.0596 51.6466L81.9422 88.7765Z" fill="#CBED4F"/>
<path d="M87.3705 39.9805L84.5945 41.2942L86.3047 42.1204L84.14 43.1366L82.4133 42.3104L78.9266 43.9628C78.654 44.095 78.5135 44.252 78.5135 44.4255C78.5135 44.599 78.6623 44.7642 78.968 44.9047C79.1255 44.9777 79.2885 45.0385 79.4554 45.0865C79.5934 45.1315 79.7341 45.1674 79.8768 45.1939H80.0173L77.9517 46.1688C77.3416 46.0506 76.7479 45.8592 76.1836 45.5987H76.134C74.366 44.778 74.4954 43.8885 76.5224 42.9301L80.0999 41.2776L78.6457 40.6001L80.8022 39.5839L81.5705 39.9392C81.8863 40.071 82.2292 40.1248 82.5702 40.0962C82.9561 40.0847 83.3356 39.9947 83.6856 39.8318L85.2967 39.0717L87.3705 39.9805Z" fill="white"/>
<path d="M91.7745 48.4078L90.7087 48.8292L84.6196 45.9953C84.4542 46.0777 84.3186 46.2094 84.2312 46.3722C84.1439 46.535 84.1093 46.7208 84.1321 46.9041C84.1982 47.2429 84.5287 47.5568 85.1401 47.8378C85.6107 48.0507 86.1083 48.1981 86.619 48.2756C87.0551 48.3554 87.4976 48.3941 87.9409 48.3913H88.4532L88.0401 49.705H87.7261H86.8999C86.4951 49.705 86.0737 49.6389 85.7019 49.5893C85.2416 49.5193 84.7863 49.42 84.3387 49.2919C83.8485 49.1621 83.3703 48.9908 82.9093 48.7796C81.6783 48.2095 81.0751 47.5073 81.0916 46.681C81.1082 45.8548 81.7526 45.1443 83.0167 44.5494C84.4396 43.9213 85.9808 43.6057 87.5361 43.6241C89.0582 43.5637 90.5745 43.8461 91.9728 44.4503C93.1708 45.0038 93.7574 45.6731 93.7161 46.4332C93.6748 47.1933 93.0221 47.813 91.7745 48.4078ZM86.3133 45.2021L90.1717 46.995C90.5518 46.7306 90.7253 46.4497 90.6922 46.1688C90.6592 45.8879 90.3865 45.607 89.866 45.3426C89.3303 45.1028 88.7509 44.9763 88.164 44.9708C87.5262 44.9499 86.8888 45.0222 86.272 45.1856" fill="white"/>
<path d="M79.4389 34.9571C79.8821 35.1559 80.3008 35.4054 80.6865 35.7007C80.9613 35.8995 81.2014 36.1424 81.397 36.4195C81.5167 36.6044 81.6111 36.8045 81.6779 37.0143C81.7305 37.1483 81.7448 37.2941 81.7192 37.4357V37.5927L78.4722 37.6836C78.4722 37.6092 78.4722 37.5183 78.4722 37.4109C78.421 37.1987 78.3221 37.0009 78.1831 36.8326C77.9561 36.526 77.6507 36.2863 77.299 36.1386C76.8011 35.909 76.2609 35.7852 75.7127 35.775C75.235 35.7454 74.7569 35.8274 74.3164 36.0146C73.895 36.2129 73.7628 36.4691 73.9116 36.7748C74.1216 37.1523 74.4021 37.486 74.7378 37.7579C75.1333 38.1021 75.5085 38.469 75.8614 38.8568C76.0265 39.0122 76.1455 39.2101 76.2053 39.4288C76.2651 39.6474 76.2633 39.8784 76.2002 40.0961C76.068 40.5423 75.597 40.9223 74.7626 41.3437C73.4915 41.9127 72.1055 42.1785 70.7141 42.1203C69.1763 42.0929 67.6616 41.741 66.2691 41.0876C65.7693 40.8698 65.2977 40.5924 64.8646 40.2614C64.5586 40.0343 64.2957 39.7545 64.0879 39.4351C63.958 39.2163 63.8606 38.9797 63.7988 38.7329C63.7598 38.5699 63.7598 38.4001 63.7988 38.2371V38.0389H66.9631C66.9562 38.1461 66.9562 38.2538 66.9631 38.3611C67.016 38.6303 67.1385 38.881 67.3184 39.0881C67.6172 39.4857 68.0164 39.7965 68.4751 39.9887C69.0732 40.271 69.7226 40.4285 70.3836 40.4514C70.95 40.481 71.5156 40.3792 72.0361 40.154C72.4574 39.9557 72.5896 39.6995 72.4492 39.3938C72.2407 39.0129 71.9601 38.6761 71.623 38.4024C71.2215 38.0618 70.8434 37.6947 70.4911 37.3035C70.3295 37.1477 70.214 36.9504 70.1572 36.7332C70.1004 36.5161 70.1044 36.2875 70.1688 36.0725C70.301 35.6263 70.772 35.2463 71.5982 34.8249C72.786 34.315 74.0746 34.0833 75.3657 34.1474C76.7652 34.1285 78.153 34.4043 79.4389 34.9571Z" fill="white"/>
<path d="M119.593 53.6047C120.816 54.1555 121.435 54.8054 121.452 55.5545C121.468 56.3036 120.918 56.9371 119.8 57.4548C119.126 57.7674 118.411 57.9817 117.676 58.091C116.895 58.2159 116.104 58.2657 115.313 58.2397C114.487 58.2397 113.752 58.1736 113 58.1075C112.248 58.0414 111.447 58.0001 110.596 57.9671C109.854 57.9306 109.111 57.95 108.373 58.0249L113.52 60.4127L111.042 61.5941L102.639 57.6862C103.573 57.2476 104.555 56.9177 105.564 56.703C106.495 56.4977 107.444 56.3843 108.398 56.3642C109.224 56.3642 110.133 56.3642 111.025 56.4221C111.918 56.4799 112.678 56.5212 113.405 56.5873C114.081 56.6395 114.761 56.6395 115.437 56.5873C116.006 56.5722 116.567 56.4488 117.09 56.2238C117.585 55.9842 117.833 55.728 117.825 55.4554C117.817 55.1827 117.544 54.9184 116.999 54.6292C116.522 54.4177 116.008 54.3026 115.487 54.2904C115.023 54.2587 114.557 54.2809 114.099 54.3565L113.586 54.4722L112.413 53.0511L112.851 52.9437C113.033 52.9437 113.405 52.8528 113.975 52.795C114.523 52.7359 115.075 52.711 115.627 52.7206C116.271 52.7447 116.913 52.822 117.544 52.952C118.251 53.0836 118.94 53.3029 119.593 53.6047Z" fill="white"/>
<path d="M104.201 51.3078C104.118 52.101 103.438 52.7978 102.16 53.3982C100.762 54.029 99.2482 54.3611 97.7149 54.3731C96.303 54.4591 94.8901 54.2217 93.5838 53.6791C93.1785 53.5134 92.8227 53.2459 92.551 52.9024C92.3787 52.7094 92.2844 52.459 92.2866 52.2002L92.3527 51.9275L87.5111 54.2078L85.1978 53.1338L97.7479 47.2098L100.061 48.2839L98.979 48.7962H99.2103H99.7639C100.061 48.7962 100.359 48.7962 100.648 48.8457C100.985 48.8844 101.319 48.9451 101.648 49.0275C102 49.1081 102.343 49.2244 102.672 49.3745C103.774 49.8758 104.283 50.5202 104.201 51.3078ZM97.4174 52.8198C98.226 52.801 99.0221 52.6153 99.7556 52.2745C100.466 51.944 100.838 51.5722 100.896 51.1756C100.954 50.7791 100.689 50.4486 100.111 50.1759C99.4348 49.8929 98.7022 49.7713 97.971 49.8207C97.1624 49.8395 96.3663 50.0252 95.6328 50.366C94.9305 50.6965 94.5422 51.0682 94.4926 51.4648C94.4431 51.8614 94.6992 52.2001 95.2693 52.4645C95.9449 52.749 96.6779 52.8707 97.4091 52.8198" fill="white"/>
<path style="mix-blend-mode:multiply" opacity="0.63" d="M36.5502 108.953C41.4083 105.747 40.8713 107.391 45.3906 104.07C42.5319 102.574 33.9476 97.2121 32.1713 96.1133L22.0254 100.054L31.1137 105.367C31.2376 105.375 36.4758 108.961 36.5502 108.953Z" fill="url(#paint0_linear_1155_2718)"/>
<path d="M34.5839 21.7212L30.5933 43.0374L42.3007 29.6363" fill="#F9CE9B"/>
<path d="M63.7163 75.9289C62.7497 75.6315 58.5938 75.8628 58.5938 75.8628C58.5938 75.8628 58.3625 72.4671 58.4616 72.3101L54.1736 72.1614C54.1736 72.1614 52.9921 78.3001 52.9012 79.1181C52.7442 80.6218 54.5536 81.2827 54.9668 81.2662C55.2695 81.197 55.5675 81.1087 55.8591 81.0018C55.7833 80.2132 55.7833 79.4192 55.8591 78.6306C55.9169 78.2753 56.016 78.0275 56.3796 77.9283C57.0323 77.7548 58.1642 78.2175 58.7921 78.4075C59.42 78.5976 60.271 78.8867 61.0146 79.1016C62.7827 78.391 64.3195 77.6887 64.4434 77.3582C64.8317 76.5403 65.1952 76.3833 63.7163 75.9289Z" fill="#F9CE9B"/>
<path d="M65.1127 76.3337L65.0631 76.185C64.774 75.838 63.9147 75.7719 63.5098 75.7223C61.8835 75.5632 60.2439 75.6021 58.6269 75.838C58.6269 75.838 62.5432 75.714 62.6175 76.4246C62.6512 76.7093 62.618 76.998 62.5204 77.2677C62.4229 77.5374 62.2638 77.7805 62.0557 77.9779C60.2876 79.242 57.9247 77.3995 56.4457 76.5568L53.6614 74.9952L53.2235 77.3499C53.0098 78.4249 52.8964 79.5175 52.8848 80.6135C53.05 80.9687 54.6859 82.0593 55.066 81.9106C55.446 81.7619 56.6606 81.2001 56.6606 81.2001L56.7349 78.3083C56.7349 78.3083 59.04 79.6055 60.205 79.4237C61.0477 79.3246 65.972 77.7878 65.1127 76.3337Z" fill="#56403D"/>
<path d="M30.5603 96.2454C29.9241 95.9479 28.974 95.667 28.5691 95.0308C28.2708 94.3003 28.2017 93.4964 28.3708 92.7257C28.4259 91.9931 28.5003 91.2633 28.5939 90.5363C28.557 90.4998 28.5283 90.4559 28.5098 90.4074C28.4913 90.359 28.4833 90.3071 28.4865 90.2553C28.5124 89.6594 28.5787 89.066 28.6848 88.479L25.7187 87.8759C25.7187 87.8759 23.8514 92.8331 23.8762 93.4445C23.901 94.0559 26.3549 98.22 27.7594 98.6331C29.164 99.0462 33.3364 98.2035 33.7247 97.6912V97.6417C32.6836 97.1955 31.6178 96.7411 30.5603 96.2454Z" fill="#F9CE9B"/>
<path d="M26.6443 93.8082C26.6443 93.8082 27.6936 98.8646 28.2307 99.2446C28.7677 99.6247 34.9808 98.3358 34.2042 97.0965C33.7084 96.2703 30.0731 95.9315 29.7674 95.8076C29.7674 95.8076 31.6099 96.6338 31.5768 96.9395C31.5438 97.2452 29.0238 98.1045 28.9247 97.8649C28.8255 97.6253 26.6526 93.0646 26.6526 93.0646L24.2814 91.9409L21.8027 96.2289L23.4552 97.146C23.4552 97.146 23.8352 98.5671 24.017 98.5837C24.6894 97.8432 25.3053 97.0533 25.8594 96.2207C25.9058 96.8537 26.0421 97.4769 26.2643 98.0714C26.4873 98.2697 28.3133 100.129 29.3626 98.9637L27.8754 96.8982" fill="#56403D"/>
<path d="M43.8044 46.6315C45.7212 40.3606 45.7708 41.4759 47.0266 36.3039L34.4848 32.999C28.0899 42.5831 22.1494 88.8674 22.1494 88.8674C22.1494 88.8674 28.3377 93.8247 33.7164 92.321C33.7164 92.321 40.9623 54.1418 40.9788 54.1005C42.0033 51.5144 42.0446 51.0187 43.8044 46.6315Z" fill="#999A1C"/>
<path d="M62.2455 49.0358C60.4278 43.1036 45.2091 35.8164 45.2091 35.8164L39.9048 51.8779C40.1692 51.0517 49.6788 53.5304 50.5794 54.4888C52.7523 56.7939 51.7361 61.4785 51.4056 64.3207C51.4056 64.3207 50.4968 68.9061 49.9184 72.1531C53.6033 74.9953 60.6096 72.1531 60.6096 72.1531C60.6096 72.1531 64.0632 54.968 62.2455 49.0358Z" fill="#999A1C"/>
<path d="M41.8135 51.8697C41.8135 51.8697 38.4343 51.3327 36.5588 49.7959L35.873 78.4819L41.8135 51.8697Z" fill="#7A770E"/>
<path d="M54.8262 26.3811L56.4786 40.1209C56.4786 40.1209 62.3612 43.9793 62.7908 46.9867L62.1794 48.2674L52.0418 40.1457L48.8774 25.2739" fill="#F9CE9B"/>
<path d="M54.8262 26.381C54.1983 21.7129 52.9424 17.4084 49.588 13.8144C48.8737 13.1117 48.0744 12.5011 47.2085 11.9967L45.3413 27.4386L54.8262 26.381Z" fill="#B05800"/>
<path d="M37.4921 12.6163C35.3109 12.6163 30.2958 21.622 30.6098 22.8118C30.9238 24.0015 35.3274 26.8106 35.3274 26.8106" fill="#B05800"/>
<path d="M49.3649 14.5827H48.8774C46.3575 14.5827 43.5732 11.1622 43.5732 11.1622C43.5732 11.1622 42.6643 3.31318 38.1945 9.6337C34.8897 14.3596 33.9809 27.7277 33.7495 34.197C35.5424 35.5189 37.8806 35.965 40.0618 36.2129C41.5104 36.4035 42.9721 36.4754 44.4324 36.4277C45.3309 36.3891 46.2116 36.164 47.0185 35.7668L48.8939 25.3152C48.8693 21.732 49.0265 18.1499 49.3649 14.5827Z" fill="#B05800"/>
<path d="M49.1996 3.84204C49.1996 3.84204 51.9509 10.7079 48.4147 12.1868C44.8785 13.6657 42.5403 10.3856 42.3338 9.57594C42.1272 8.76625 42.7551 2.72665 49.1996 3.84204Z" fill="#F9CE9B"/>
<path d="M49.5549 2.89189C48.7503 2.25255 47.8164 1.79579 46.8177 1.55326C45.8191 1.31074 44.7796 1.28823 43.7714 1.48732C42.0261 1.6296 40.3658 2.30121 39.0125 3.4124C38.6063 3.07214 38.1149 2.84931 37.5914 2.76795C36.9609 2.65752 36.3116 2.75001 35.737 3.03211C35.1624 3.31421 34.6921 3.77136 34.3939 4.33775C34.1406 4.86924 34.0738 5.47055 34.2042 6.04468C34.3346 6.6188 34.6547 7.13224 35.1127 7.50214C35.8442 7.98073 36.7354 8.15006 37.5914 7.97308C37.5914 8.02266 37.5914 8.07222 37.5914 8.13006C37.5914 9.36938 36.3521 9.88163 35.7985 10.8731C35.5298 11.3289 35.414 11.8587 35.468 12.385C35.5341 12.9138 36.0133 13.517 35.9472 14.0375C35.8227 14.4194 35.6072 14.7653 35.3193 15.0454C35.0433 15.3773 34.8076 15.7406 34.617 16.1278C36.9304 17.6893 39.9874 17.9868 42.6973 17.6976C45.6662 17.4757 48.4835 16.2989 50.7281 14.3432C50.6365 14.0603 50.4843 13.8009 50.282 13.5831C49.8563 13.231 49.3937 12.9263 48.9022 12.6742C48.2164 12.1868 49.0922 11.0218 49.1335 10.303C49.2079 9.12152 48.3982 8.55143 47.4811 8.0557C46.8119 7.70043 46.8201 7.22949 46.8862 6.54374C46.8819 5.97237 47.0583 5.41425 47.3902 4.94915C47.5982 5.00012 47.8174 4.97674 48.0099 4.88305C48.3962 4.69979 48.8044 4.56652 49.2244 4.48647C49.4333 4.4336 49.6133 4.30121 49.726 4.11754C49.8386 3.93387 49.8751 3.71345 49.8276 3.50328C49.8381 3.38657 49.8186 3.26909 49.7709 3.16205C49.7232 3.05502 49.6488 2.96201 49.5549 2.89189Z" fill="#56403D"/>
<path d="M46.7129 5.2383C47.8455 5.10658 48.9563 4.82887 50.0177 4.41209C50.0177 4.30468 50.753 0.281035 43.408 0.96679C36.063 1.65255 38.6243 10.65 38.6243 10.65" fill="#56403D"/>
<defs>
<linearGradient id="paint0_linear_1155_2718" x1="36.7154" y1="107.218" x2="33.1627" y2="101.12" gradientUnits="userSpaceOnUse">
<stop stop-color="white" stop-opacity="0"/>
<stop offset="0.99" stop-color="#7DAA63"/>
</linearGradient>
</defs>
</svg>
