<svg width="151" height="220" viewBox="0 0 151 220" fill="none" xmlns="http://www.w3.org/2000/svg">
<path d="M0.00585938 180.674L68.8682 219.632L149.283 172.796V141.31L68.8682 188.137L0.00585938 148.782V180.674Z" fill="#0C2462"/>
<path d="M0.15625 148.932L82.1076 101.911L149.433 141.461L69.0187 188.287L0.15625 148.932Z" fill="#0A297C"/>
<path d="M69.0186 188.287V219.782L149.433 172.946V141.461L69.0186 188.287Z" fill="#021545"/>
<path d="M49.9326 56.5947V110.116L118.927 141.461L149.433 109.692V77.8531" fill="#E6B91C"/>
<path d="M118.354 95.4715V157.208L149.265 139.006V77.7207L118.354 95.4715Z" fill="#C59D0F"/>
<path d="M118.221 96.2765L149.433 77.8531L81.3654 38.7278L49.9326 56.5947L118.221 96.2765Z" fill="#FFCF25"/>
<path d="M18.7295 106.892V138.343L87.7244 177.601L118.221 159.99V128.151" fill="#A0D700"/>
<path d="M87.0178 146.574L118.221 128.151L50.1623 89.0343L18.7295 106.892L87.0178 146.574Z" fill="#CBED4F"/>
<path d="M87.0176 146.574V177.601L149.433 141.461V109.692L87.0176 146.574Z" fill="#93BC00"/>
<path d="M108.223 24.8352C108.708 25.0734 109.162 25.37 109.575 25.7184C109.966 26.0497 110.327 26.4163 110.652 26.8135C110.935 27.1756 111.182 27.5112 111.385 27.838C111.555 28.0911 111.706 28.3568 111.836 28.6329L111.977 28.9332L110.502 30.4346C110.44 30.2933 110.352 30.1078 110.237 29.9047C110.025 29.5515 109.783 29.2176 109.513 28.9067C109.206 28.5113 108.821 28.1836 108.382 27.944C108.218 27.8298 108.025 27.7636 107.826 27.7526C107.626 27.7417 107.427 27.7866 107.252 27.8822C107.101 28.0076 106.983 28.1683 106.909 28.3501C106.835 28.5319 106.807 28.7292 106.828 28.9243C106.839 29.5138 107.04 30.084 107.402 30.5494C107.819 31.1145 108.289 31.638 108.806 32.1127C109.36 32.6249 109.913 33.1725 110.467 33.7554C111.066 34.4157 111.547 35.1746 111.889 35.9987C112.285 36.9435 112.483 37.9595 112.471 38.9839C112.471 40.5118 112.083 41.5716 111.314 42.1457C110.546 42.7198 109.477 42.6756 108.135 41.9867C107.576 41.698 107.057 41.3389 106.589 40.9181C106.139 40.5264 105.728 40.0915 105.362 39.6198C105.044 39.1959 104.752 38.7808 104.479 38.3922C104.282 38.0889 104.105 37.7733 103.949 37.4471L103.772 37.0674L105.247 35.6984C105.323 35.8574 105.429 36.0694 105.565 36.3343C105.819 36.7763 106.115 37.1932 106.448 37.5796C106.853 38.1074 107.364 38.5438 107.949 38.8602C108.148 39.0047 108.383 39.0911 108.628 39.1098C108.873 39.1285 109.118 39.0788 109.336 38.9662C109.519 38.8145 109.661 38.6194 109.749 38.3988C109.836 38.1782 109.868 37.9391 109.84 37.7033C109.826 37.1116 109.625 36.5396 109.265 36.0694C108.846 35.5037 108.373 34.9802 107.852 34.5061C107.293 33.9997 106.739 33.4522 106.192 32.8634C105.599 32.205 105.124 31.4491 104.788 30.6289C104.397 29.6828 104.205 28.6669 104.222 27.6437C104.17 27.1121 104.244 26.5756 104.439 26.0782C104.634 25.5808 104.944 25.1367 105.344 24.7822C106.068 24.2169 107.031 24.2346 108.223 24.8352Z" fill="#0A297C"/>
<path d="M117.126 31.2471V34.9035L118.76 35.7337V38.5688L117.126 37.7386V42.34C117.126 42.7135 117.22 43.0809 117.4 43.4086C117.549 43.7207 117.793 43.9773 118.097 44.1417C118.232 44.2113 118.374 44.2646 118.521 44.3007C118.623 44.3188 118.728 44.3188 118.83 44.3007H118.928V47.0209C118.426 47.0111 117.934 46.8777 117.497 46.6323H117.444C115.757 45.7491 114.918 43.9827 114.918 41.3331V36.6169L113.531 35.9104V33.0753L114.264 33.4463C114.365 33.511 114.486 33.5368 114.605 33.519C114.724 33.5011 114.832 33.4407 114.909 33.3491C115.111 33.0677 115.205 32.7228 115.174 32.3776V30.2579L117.126 31.2471Z" fill="#0A297C"/>
<path d="M127.821 45.652L127.742 46.9061L121.886 43.9563C121.98 44.6457 122.218 45.3077 122.584 45.8993C122.919 46.4859 123.416 46.9641 124.015 47.2771C124.366 47.4758 124.771 47.5592 125.172 47.5155C125.451 47.493 125.715 47.378 125.922 47.1887L126.152 46.9414L127.291 49.644L127.141 49.7853C127.01 49.8886 126.868 49.9774 126.717 50.0503C126.22 50.3439 125.63 50.4386 125.066 50.3152C124.643 50.2415 124.235 50.1014 123.856 49.9001C122.53 49.1465 121.476 47.9936 120.844 46.6058C120.04 45.103 119.615 43.4263 119.608 41.7218C119.55 41.0654 119.63 40.4041 119.843 39.7805C120.056 39.1569 120.397 38.5847 120.844 38.1007C121.233 37.7291 121.736 37.4999 122.271 37.4501C122.807 37.4004 123.343 37.5332 123.794 37.8269C125.054 38.5283 126.057 39.6146 126.655 40.9269C127.42 42.3846 127.82 44.0059 127.821 45.652ZM121.939 41.713L125.622 43.5853C125.543 42.9413 125.336 42.3196 125.013 41.7571C124.745 41.2489 124.333 40.831 123.829 40.556C123.651 40.4429 123.444 40.3828 123.233 40.3828C123.022 40.3828 122.815 40.4429 122.637 40.556C122.268 40.8523 122.02 41.2732 121.939 41.7394" fill="#0A297C"/>
<path d="M136.742 46.1377C137.495 47.643 137.888 49.303 137.89 50.9864C138.003 52.3211 137.588 53.647 136.733 54.6782C136.398 55.0482 135.943 55.2883 135.449 55.3561C134.955 55.424 134.452 55.3153 134.03 55.0491C133.536 54.7854 133.101 54.4249 132.75 53.9893C132.405 53.6154 132.108 53.2 131.866 52.7528L131.619 52.1964V58.573L129.42 57.4514V40.9269L131.619 42.0485V43.4616L131.716 43.338L131.999 43.0995C132.144 42.9877 132.304 42.8984 132.476 42.8346C132.689 42.766 132.915 42.742 133.138 42.7639C133.447 42.7884 133.747 42.8755 134.021 43.02C135.242 43.7372 136.196 44.8313 136.742 46.1377ZM134.975 51.8255C135.41 51.2524 135.615 50.5372 135.549 49.8206C135.56 48.932 135.366 48.0527 134.984 47.2505C134.712 46.576 134.225 46.0107 133.597 45.6431C133.381 45.5016 133.121 45.4424 132.865 45.4765C132.609 45.5105 132.374 45.6355 132.202 45.8286C131.767 46.395 131.562 47.1047 131.628 47.8158C131.617 48.7101 131.81 49.5952 132.193 50.4035C132.47 51.0776 132.96 51.6422 133.589 52.0109C133.804 52.1508 134.063 52.2082 134.318 52.1725C134.573 52.1368 134.806 52.0104 134.975 51.8166" fill="#0A297C"/>
<path d="M146.377 44.2036C147.561 44.8151 148.534 45.7692 149.168 46.9415C149.848 48.0955 150.21 49.4087 150.219 50.7481C150.229 51.1781 150.173 51.6072 150.051 52.0199C149.969 52.3143 149.831 52.5902 149.645 52.8324C149.507 52.9929 149.35 53.1353 149.177 53.2563C149.05 53.3431 148.905 53.4005 148.753 53.4241H148.594L148.815 53.6626C148.991 53.8774 149.157 54.1015 149.309 54.3338C149.545 54.6719 149.752 55.0294 149.928 55.4025C150.137 55.8628 150.303 56.3418 150.422 56.8332C150.57 57.4104 150.644 58.0039 150.643 58.5996C150.695 59.1427 150.615 59.6902 150.41 60.1959C150.206 60.7016 149.883 61.1507 149.468 61.5053C148.682 62.0794 147.658 62.0529 146.377 61.3993C145.814 61.1085 145.289 60.7496 144.814 60.3307C144.359 59.9471 143.945 59.518 143.577 59.0501C143.26 58.635 142.977 58.2464 142.694 57.8666C142.498 57.5861 142.324 57.2908 142.173 56.9834L142.005 56.6301L143.489 55.1464C143.489 55.2082 143.542 55.2788 143.586 55.3936C143.63 55.5085 143.745 55.6939 143.913 55.9854C144.076 56.2668 144.256 56.5381 144.452 56.7979C144.669 57.0816 144.911 57.3447 145.176 57.584C145.44 57.8405 145.737 58.0603 146.059 58.2375C146.695 58.5555 147.181 58.5996 147.516 58.3788C147.702 58.2291 147.846 58.0346 147.936 57.8137C148.026 57.5927 148.058 57.3526 148.029 57.1159C148.023 56.4926 147.849 55.8824 147.525 55.3495C147.203 54.7912 146.724 54.3398 146.148 54.0512L144.911 53.4241V50.4654L146.059 51.0484C146.226 51.1646 146.425 51.2269 146.629 51.2269C146.833 51.2269 147.031 51.1646 147.199 51.0484C147.356 50.8864 147.475 50.6912 147.546 50.4772C147.618 50.2633 147.641 50.0359 147.614 49.8119C147.618 49.2614 147.478 48.7194 147.207 48.2398C146.951 47.7608 146.553 47.3723 146.068 47.127C145.714 46.9272 145.303 46.8555 144.902 46.9238C144.61 46.9648 144.337 47.0907 144.116 47.286L143.869 47.5421L142.403 44.6805C142.448 44.6149 142.498 44.5529 142.553 44.4951C142.895 44.1482 143.321 43.8957 143.789 43.762C144.155 43.7001 144.528 43.7001 144.893 43.762C145.411 43.8165 145.914 43.9662 146.377 44.2036Z" fill="#0A297C"/>
<g opacity="0.25">
<path opacity="0.25" d="M108.223 24.8352C108.708 25.0734 109.162 25.37 109.575 25.7184C109.966 26.0497 110.327 26.4163 110.652 26.8135C110.935 27.1756 111.182 27.5112 111.385 27.838C111.555 28.0911 111.706 28.3568 111.836 28.6329L111.977 28.9332L110.502 30.4346C110.44 30.2933 110.352 30.1078 110.237 29.9047C110.025 29.5515 109.783 29.2176 109.513 28.9067C109.206 28.5113 108.821 28.1836 108.382 27.944C108.218 27.8298 108.025 27.7636 107.826 27.7526C107.626 27.7417 107.427 27.7866 107.252 27.8822C107.101 28.0076 106.983 28.1683 106.909 28.3501C106.835 28.5319 106.807 28.7292 106.828 28.9243C106.839 29.5138 107.04 30.084 107.402 30.5494C107.819 31.1145 108.289 31.638 108.806 32.1127C109.36 32.6249 109.913 33.1725 110.467 33.7554C111.066 34.4157 111.547 35.1746 111.889 35.9987C112.285 36.9435 112.483 37.9595 112.471 38.9839C112.471 40.5118 112.083 41.5716 111.314 42.1457C110.546 42.7198 109.477 42.6756 108.135 41.9867C107.576 41.698 107.057 41.3389 106.589 40.9181C106.139 40.5264 105.728 40.0915 105.362 39.6198C105.044 39.1959 104.752 38.7808 104.479 38.3922C104.282 38.0889 104.105 37.7733 103.949 37.4471L103.772 37.0674L105.247 35.6984C105.323 35.8574 105.429 36.0694 105.565 36.3343C105.819 36.7763 106.115 37.1932 106.448 37.5796C106.853 38.1074 107.364 38.5438 107.949 38.8602C108.148 39.0047 108.383 39.0911 108.628 39.1098C108.873 39.1285 109.118 39.0788 109.336 38.9662C109.519 38.8145 109.661 38.6194 109.749 38.3988C109.836 38.1782 109.868 37.9391 109.84 37.7033C109.826 37.1116 109.625 36.5396 109.265 36.0694C108.846 35.5037 108.373 34.9802 107.852 34.5061C107.293 33.9997 106.739 33.4522 106.192 32.8634C105.599 32.205 105.124 31.4491 104.788 30.6289C104.397 29.6828 104.205 28.6669 104.222 27.6437C104.17 27.1121 104.244 26.5756 104.439 26.0782C104.634 25.5808 104.944 25.1367 105.344 24.7822C106.068 24.2169 107.031 24.2346 108.223 24.8352Z" fill="black"/>
<path opacity="0.25" d="M117.126 31.2471V34.9035L118.76 35.7337V38.5688L117.126 37.7386V42.34C117.126 42.7135 117.22 43.0809 117.4 43.4087C117.549 43.7207 117.793 43.9774 118.097 44.1417C118.232 44.2113 118.374 44.2646 118.521 44.3007C118.623 44.3188 118.728 44.3188 118.83 44.3007H118.928V47.0209C118.426 47.0111 117.934 46.8777 117.497 46.6323H117.444C115.757 45.7491 114.918 43.9827 114.918 41.3332V36.6169L113.531 35.9104V33.0753L114.264 33.4463C114.365 33.511 114.486 33.5368 114.605 33.519C114.724 33.5011 114.832 33.4407 114.909 33.3491C115.111 33.0677 115.205 32.7228 115.174 32.3776V30.2579L117.126 31.2471Z" fill="black"/>
<path opacity="0.25" d="M127.821 45.652L127.742 46.9061L121.886 43.9563C121.98 44.6457 122.218 45.3077 122.584 45.8993C122.919 46.4859 123.416 46.9641 124.015 47.2771C124.366 47.4758 124.771 47.5592 125.172 47.5155C125.451 47.493 125.715 47.378 125.922 47.1887L126.152 46.9414L127.291 49.644L127.141 49.7853C127.01 49.8886 126.868 49.9774 126.717 50.0503C126.22 50.3439 125.63 50.4386 125.066 50.3152C124.643 50.2415 124.235 50.1014 123.856 49.9001C122.53 49.1465 121.476 47.9936 120.844 46.6058C120.04 45.103 119.615 43.4263 119.608 41.7218C119.55 41.0654 119.63 40.4041 119.843 39.7805C120.056 39.1569 120.397 38.5847 120.844 38.1007C121.233 37.7291 121.736 37.4999 122.271 37.4501C122.807 37.4004 123.343 37.5332 123.794 37.8269C125.054 38.5283 126.057 39.6146 126.655 40.9269C127.42 42.3846 127.82 44.0059 127.821 45.652ZM121.939 41.713L125.622 43.5853C125.543 42.9413 125.336 42.3196 125.013 41.7571C124.745 41.2489 124.333 40.831 123.829 40.556C123.651 40.4429 123.444 40.3828 123.233 40.3828C123.022 40.3828 122.815 40.4429 122.637 40.556C122.268 40.8523 122.02 41.2732 121.939 41.7394" fill="black"/>
<path opacity="0.25" d="M136.742 46.1377C137.495 47.643 137.888 49.303 137.89 50.9864C138.003 52.3211 137.588 53.647 136.733 54.6782C136.398 55.0482 135.943 55.2883 135.449 55.3561C134.955 55.424 134.452 55.3153 134.03 55.0491C133.536 54.7854 133.101 54.4249 132.75 53.9893C132.405 53.6154 132.108 53.2 131.866 52.7528L131.619 52.1964V58.573L129.42 57.4514V40.9269L131.619 42.0485V43.4616L131.716 43.338L131.999 43.0995C132.144 42.9877 132.304 42.8984 132.476 42.8346C132.689 42.766 132.915 42.742 133.138 42.7639C133.447 42.7884 133.747 42.8755 134.021 43.02C135.242 43.7372 136.196 44.8313 136.742 46.1377ZM134.975 51.8255C135.41 51.2524 135.615 50.5372 135.549 49.8206C135.56 48.932 135.366 48.0527 134.984 47.2505C134.712 46.576 134.225 46.0107 133.597 45.6431C133.381 45.5016 133.121 45.4424 132.865 45.4765C132.609 45.5105 132.374 45.6355 132.202 45.8286C131.767 46.395 131.562 47.1047 131.628 47.8158C131.617 48.7101 131.81 49.5952 132.193 50.4035C132.47 51.0776 132.96 51.6422 133.589 52.0109C133.804 52.1508 134.063 52.2082 134.318 52.1725C134.573 52.1368 134.806 52.0104 134.975 51.8166" fill="black"/>
<path opacity="0.25" d="M146.377 44.2036C147.561 44.8151 148.534 45.7692 149.168 46.9415C149.848 48.0955 150.21 49.4087 150.219 50.7481C150.229 51.1781 150.173 51.6072 150.051 52.0199C149.969 52.3143 149.831 52.5902 149.645 52.8324C149.507 52.9929 149.35 53.1353 149.177 53.2563C149.05 53.3431 148.905 53.4005 148.753 53.4241H148.594L148.815 53.6626C148.991 53.8774 149.157 54.1014 149.309 54.3338C149.545 54.6719 149.752 55.0294 149.928 55.4025C150.137 55.8628 150.303 56.3418 150.422 56.8332C150.57 57.4104 150.644 58.0039 150.643 58.5996C150.695 59.1427 150.615 59.6902 150.41 60.1959C150.206 60.7016 149.883 61.1507 149.468 61.5053C148.682 62.0794 147.658 62.0529 146.377 61.3993C145.814 61.1085 145.289 60.7496 144.814 60.3307C144.359 59.9471 143.945 59.518 143.577 59.0501C143.26 58.635 142.977 58.2463 142.694 57.8666C142.498 57.586 142.324 57.2908 142.173 56.9834L142.005 56.6301L143.489 55.1464C143.489 55.2082 143.542 55.2788 143.586 55.3936C143.63 55.5085 143.745 55.6939 143.913 55.9854C144.076 56.2668 144.256 56.5381 144.452 56.7979C144.669 57.0816 144.911 57.3447 145.176 57.584C145.44 57.8405 145.737 58.0603 146.059 58.2375C146.695 58.5555 147.181 58.5996 147.516 58.3788C147.702 58.2291 147.846 58.0346 147.936 57.8137C148.026 57.5927 148.058 57.3526 148.029 57.1159C148.023 56.4925 147.849 55.8824 147.525 55.3495C147.203 54.7912 146.724 54.3398 146.148 54.0512L144.911 53.4241V50.4654L146.059 51.0483C146.226 51.1646 146.425 51.2269 146.629 51.2269C146.833 51.2269 147.031 51.1646 147.199 51.0483C147.356 50.8864 147.475 50.6912 147.546 50.4772C147.618 50.2633 147.641 50.0359 147.614 49.8119C147.618 49.2614 147.478 48.7194 147.207 48.2398C146.951 47.7608 146.553 47.3723 146.068 47.127C145.714 46.9272 145.303 46.8555 144.902 46.9238C144.61 46.9648 144.337 47.0907 144.116 47.286L143.869 47.5421L142.403 44.6805C142.448 44.6149 142.498 44.5529 142.553 44.4951C142.895 44.1482 143.321 43.8957 143.789 43.762C144.155 43.7001 144.528 43.7001 144.893 43.762C145.411 43.8165 145.914 43.9662 146.377 44.2036Z" fill="black"/>
</g>
<path style="mix-blend-mode:multiply" opacity="0.63" d="M68.5589 123.417C73.752 119.99 73.178 121.748 78.009 118.197C74.9532 116.599 65.7768 110.867 63.878 109.692L52.9971 113.931L62.7122 119.61C62.8711 119.584 68.4706 123.417 68.5589 123.417Z" fill="url(#paint0_linear_1155_2747)"/>
<path style="mix-blend-mode:multiply" opacity="0.63" d="M100.231 85.6694C105.424 82.2426 104.85 84.0001 109.681 80.4497C106.625 78.8511 97.4486 73.1192 95.5497 71.9446L84.7041 76.1574L94.4192 81.8363C94.5075 81.8716 100.151 85.6694 100.231 85.6694Z" fill="url(#paint1_linear_1155_2747)"/>
<path d="M66.4484 29.6663L62.1826 52.4526L74.6974 38.1184" fill="#FFEDE1"/>
<path d="M97.1568 71.4235C96.1234 71.1056 91.681 71.3529 91.681 71.3529C91.681 71.3529 91.3542 65.3648 91.4602 65.1705H87.0442C87.0442 65.1705 85.6753 73.9583 85.5869 74.8327C85.4191 76.4401 87.3533 77.1466 87.7949 77.1289C88.1185 77.055 88.4371 76.9606 88.7488 76.8463C88.6678 76.0034 88.6678 75.1545 88.7488 74.3116C88.8106 73.9318 88.9166 73.6668 89.3052 73.5609C90.0029 73.3754 91.2129 73.87 91.8841 74.0731C92.5553 74.2762 93.465 74.5854 94.2599 74.815C96.1499 74.0554 97.7927 73.3047 97.9251 72.9514C98.3314 72.0771 98.7289 71.9093 97.1568 71.4235Z" fill="#F9CE9B"/>
<path d="M98.632 71.8563L98.5348 71.7238C98.2257 71.3529 97.3072 71.2822 96.8744 71.2292C95.136 71.0592 93.3833 71.1007 91.6548 71.3529C91.6548 71.3529 95.8411 71.2204 95.9206 71.9799C95.9566 72.2844 95.9211 72.593 95.8168 72.8812C95.7125 73.1695 95.5424 73.4294 95.32 73.6403C93.43 74.9916 90.9041 73.0221 89.3232 72.1213L86.3468 70.452L85.8787 72.9691C85.6502 74.1183 85.529 75.2862 85.5166 76.4577C85.6932 76.8375 87.442 78.0033 87.8482 77.8443C88.2545 77.6854 89.5528 77.0848 89.5528 77.0848L89.6323 73.9936C89.6323 73.9936 92.0964 75.3802 93.3417 75.1859C94.2867 75.0711 99.5505 73.4107 98.632 71.8563Z" fill="#56403D"/>
<path d="M83.6971 58.8292L83.3438 65.6474C86.6541 67.185 90.3781 67.5916 93.9421 66.8044C94.684 62.883 96.0706 55.0668 95.9205 52.4437C95.7173 48.9109 96.4681 45.175 91.7077 42.8434C88.0601 41.077 76.9142 45.3693 76.9142 45.3693L68.5327 59.6682C79.29 63.934 83.6971 58.8292 83.6971 58.8292Z" fill="#999A1C"/>
<path d="M62.156 109.33C61.476 109.012 60.4603 108.712 60.0275 108.032C59.7087 107.251 59.6348 106.391 59.8156 105.568C59.8744 104.785 59.9539 104.004 60.054 103.227C60.0146 103.188 59.9839 103.141 59.9641 103.089C59.9443 103.038 59.9358 102.982 59.9392 102.927C59.9669 102.29 60.0378 101.655 60.1512 101.028L56.9805 100.383C56.9805 100.383 54.9845 105.682 55.011 106.336C55.0375 106.99 57.6606 111.441 59.162 111.882C60.6634 112.324 65.1235 111.423 65.5386 110.876V110.823C64.4258 110.346 63.2777 109.851 62.156 109.33Z" fill="#F9CE9B"/>
<path d="M57.9694 106.716C57.9694 106.716 59.0911 112.121 59.6652 112.527C60.2392 112.934 66.8808 111.556 66.0506 110.231C65.5207 109.348 61.6347 108.986 61.3079 108.853C61.3079 108.853 63.2774 109.736 63.2421 110.063C63.2068 110.39 60.513 111.308 60.407 111.052C60.3011 110.796 57.9783 105.921 57.9783 105.921L55.4435 104.72L52.7939 109.304L54.5603 110.284C54.5603 110.284 54.9666 111.803 55.1609 111.821C55.8796 111.029 56.538 110.185 57.1304 109.295C57.18 109.971 57.3257 110.638 57.5632 111.273C57.8016 111.485 59.7535 113.472 60.8751 112.227L59.2854 110.019" fill="#56403D"/>
<path d="M76.3047 56.2944C78.3537 49.591 78.4067 50.7833 79.7491 45.2546L66.3423 41.7218C59.5064 51.9668 53.1562 101.443 53.1562 101.443C53.1562 101.443 59.7713 106.742 65.5209 105.135C65.5209 105.135 73.2665 64.3227 73.2842 64.2785C74.3793 61.5141 74.4235 60.9842 76.3047 56.2944Z" fill="#999A1C"/>
<path d="M74.1939 61.885C74.1939 61.885 70.5816 61.3109 68.5768 59.6682L67.8438 90.3326L74.1939 61.885Z" fill="#7A770E"/>
<path d="M73.2046 24.27C73.2046 24.27 65.7858 7.55999 64.9379 6.48249C64.0901 5.405 65.9536 -0.0177918 64.7878 0.0440315C63.622 0.105855 62.2265 2.80842 62.2265 2.80842C62.2265 2.80842 57.1217 -0.883319 55.3023 0.264829C53.4829 1.41298 61.0077 9.03491 61.0077 9.03491L67.2607 29.7369" fill="#F9CE9B"/>
<path d="M86.1963 20.8608C86.1963 20.8608 103.092 13.8571 104.443 13.6628C105.794 13.4685 108.179 8.24883 108.991 9.10553C109.804 9.96223 108.938 12.8768 108.938 12.8768C108.938 12.8768 115.174 13.7599 115.713 15.8001C116.251 17.8403 105.529 18.2289 105.529 18.2289L86.7262 28.9332" fill="#F9CE9B"/>
<path d="M73.4521 19.0767L67.835 14.1044L64.1079 26.3012L68.78 33.1548" fill="#B05800"/>
<path d="M82.2221 22.0796H81.701C79.0073 22.0796 76.0309 18.4232 76.0309 18.4232C76.0309 18.4232 75.0771 9.9799 70.2814 16.7805C66.7486 21.8323 65.7771 36.1223 65.5298 43.0377C67.4463 44.4508 69.9457 44.9278 72.2774 45.1927C73.8259 45.3965 75.3884 45.4733 76.9494 45.4223C77.9099 45.381 78.8513 45.1404 79.7138 44.7158L81.7187 33.5434C81.6926 29.7161 81.8606 25.8899 82.2221 22.0796Z" fill="#B05800"/>
<path d="M79.4048 9.23804C79.4048 9.23804 83.9974 15.6765 80.7031 18.0699C77.4088 20.4634 74.141 17.6813 73.7259 16.8953C73.3108 16.1093 72.4276 9.71496 79.4048 9.23804Z" fill="#F9CE9B"/>
<path d="M79.4932 8.15176C78.4989 7.69372 77.4172 7.45654 76.3225 7.45654C75.2278 7.45654 74.1461 7.69372 73.1519 8.15176C71.3905 8.7465 69.8508 9.86124 68.7359 11.3489C68.2295 11.0994 67.6646 10.9926 67.102 11.0398C66.4195 11.0846 65.7688 11.3447 65.2435 11.7827C64.7182 12.2207 64.3454 12.8141 64.1787 13.4774C64.0489 14.0939 64.1309 14.7362 64.4114 15.3003C64.6919 15.8645 65.1544 16.3175 65.7242 16.5862C66.5911 16.8879 67.5414 16.8404 68.3738 16.4538V16.6127C68.6741 17.9022 67.4906 18.7412 67.208 19.9159C67.032 20.4523 67.032 21.031 67.208 21.5674C67.4111 22.0973 68.0912 22.6096 68.0912 23.1572C68.0595 23.6005 67.9167 24.0288 67.6761 24.4025C67.4717 24.8184 67.3176 25.2572 67.2168 25.7096C70.0166 26.7429 73.2667 26.2837 76.0487 25.3033C79.0777 24.3241 81.7082 22.3907 83.547 19.7922C83.3804 19.5238 83.1574 19.2948 82.8935 19.121C82.3634 18.8613 81.8067 18.6599 81.2331 18.5204C80.4029 18.1848 81.0123 16.754 80.8798 16.0033C80.659 14.758 79.6787 14.3694 78.5835 14.0868C77.7975 13.8837 77.7003 13.4332 77.5855 12.6649C77.4385 12.0785 77.4787 11.4609 77.7003 10.8985C77.9298 10.8977 78.1517 10.8164 78.3274 10.6689C78.6812 10.3824 79.07 10.142 79.4844 9.95347C79.6885 9.84606 79.8426 9.66303 79.9136 9.44352C79.9845 9.224 79.9668 8.98543 79.8641 8.77882C79.8623 8.65104 79.8271 8.52594 79.7621 8.41594C79.697 8.30595 79.6043 8.21488 79.4932 8.15176Z" fill="#56403D"/>
<path d="M77.1704 11.3136C78.3061 10.8967 79.3836 10.3357 80.3764 9.64437C80.3764 9.52956 80.1026 5.15776 72.6397 7.73668C65.1767 10.3156 70.1049 18.9797 70.1049 18.9797" fill="#56403D"/>
<path d="M78.8218 18.9708C78.8218 18.9708 90.3032 17.4075 92.838 17.7431L93.5622 26.3984L78.8218 35.0978" fill="#B05800"/>
<defs>
<linearGradient id="paint0_linear_1155_2747" x1="4675.71" y1="2204.51" x2="4636.23" y2="2081.32" gradientUnits="userSpaceOnUse">
<stop stop-color="#8BDB5A" stop-opacity="0"/>
<stop offset="0.99" stop-color="#C4E2A6"/>
</linearGradient>
<linearGradient id="paint1_linear_1155_2747" x1="5596.55" y1="1580.71" x2="5557.05" y2="1457.44" gradientUnits="userSpaceOnUse">
<stop stop-color="white" stop-opacity="0"/>
<stop offset="0.99" stop-color="#C2C61A"/>
</linearGradient>
</defs>
</svg>
