<svg width="70" height="80" viewBox="0 0 70 80" fill="none" xmlns="http://www.w3.org/2000/svg">
<path d="M15.6029 0.997358C14.8719 1.43571 13.662 2.51865 13.0947 3.04718C19.0437 0.198091 24.8663 8.46188 28.6728 13.7605C29.4794 14.8821 30.2104 15.978 30.8532 16.9964C32.1135 16.8031 33.4243 16.5451 34.8107 16.2101C36.6508 15.3075 25.1059 -4.62358 15.6029 0.997358Z" fill="#FEFEFE"/>
<path d="M13.095 3.04712C7.72584 9.1709 12.8177 19.8068 30.8533 16.9963C30.2105 15.9908 29.4796 14.895 28.6729 13.7605C28.6098 13.6703 28.5343 13.5799 28.4713 13.4768C19.0944 13.6573 13.3093 9.4932 13.095 3.04712Z" fill="#E4E7ED"/>
<path d="M54.397 0.997358C55.1279 1.43571 56.3379 2.51865 56.9051 3.04718C50.9562 0.198091 45.1335 8.46188 41.3271 13.7605C40.5204 14.8821 39.7895 15.978 39.1467 16.9964C37.8863 16.8031 36.5756 16.5451 35.1892 16.2101C33.3491 15.3075 44.894 -4.62358 54.397 0.997358Z" fill="#FEFEFE"/>
<path d="M56.9048 3.04712C62.2738 9.1709 57.1821 19.8068 39.1465 16.9963C39.7893 15.9908 40.5203 14.895 41.3269 13.7605C41.39 13.6703 41.4655 13.5799 41.5286 13.4768C50.9054 13.6573 56.6905 9.4932 56.9048 3.04712Z" fill="#E4E7ED"/>
<path d="M4.99103 16.0296H63.3831C65.135 16.0296 66.5592 17.4993 66.5592 19.2784V76.7128C66.5592 78.5049 65.1223 79.9617 63.3831 79.9617H4.99103C3.23912 79.9617 1.81494 78.4919 1.81494 76.7128V19.2784C1.81494 17.4864 3.25177 16.0296 4.99103 16.0296Z" fill="#001379"/>
<path d="M4.76412 18.3115H63.6101C65.2359 18.3115 66.5592 19.6651 66.5592 21.3282V74.6757C66.5592 76.3387 65.2359 77.6924 63.6101 77.6924H4.76412C3.13832 77.6924 1.81494 76.3387 1.81494 74.6757V21.3282C1.81476 19.6651 3.13813 18.3115 4.76412 18.3115Z" fill="#5E73BB"/>
<path d="M67.9578 27.5293L66.3193 34.3235L1.68853 34.0142L1.15918 27.5293H67.9578Z" fill="#102179"/>
<path d="M0.743618 15.5655H69.2564C69.6596 15.5655 70 15.9137 70 16.3261V29.7339C70 30.1464 69.6596 30.4946 69.2564 30.4946H0.743618C0.340374 30.4946 0 30.1464 0 29.7339V16.3261C0 15.9137 0.340191 15.5655 0.743618 15.5655Z" fill="#2C46A5"/>
<path d="M27.501 15.5655H40.6086V79.9745H27.501V15.5655Z" fill="#FEFEFE"/>
<path d="M40.6086 77.7051V79.9999L27.501 79.9741V77.7051H40.6086Z" fill="#E4E7ED"/>
<path d="M40.6086 30.5718V34.1815L27.501 34.1428V30.5718H40.6086Z" fill="#E4E7ED"/>
</svg>
