<svg width="32" height="30" viewBox="0 0 32 30" fill="none" xmlns="http://www.w3.org/2000/svg">
<ellipse cx="15.6669" cy="15" rx="15.5556" ry="15" fill="url(#paint0_linear_1155_3002)"/>
<path d="M19.3059 14.4721C19.1966 12.3359 17.6372 11.0516 15.7586 11.0516H15.6876C13.5067 11.0516 12.3006 12.7899 12.3006 14.7632C12.3006 16.9715 13.7593 18.3668 15.6734 18.3668C17.8018 18.3668 19.208 16.7812 19.3102 14.9074L19.3059 14.4721ZM15.6919 9.13882C17.1343 9.16137 18.5091 9.76425 19.5145 10.8152C19.5145 10.3237 19.8394 9.95034 20.2906 9.95034H20.4042C21.1136 9.95034 21.2555 10.6292 21.2555 10.844V18.4691C21.2405 18.5709 21.2571 18.6749 21.303 18.7666C21.3489 18.8583 21.4219 18.9332 21.5117 18.9808C21.6015 19.0284 21.7037 19.0464 21.804 19.0322C21.9044 19.0179 21.9978 18.9723 22.0714 18.9015C23.2761 17.6432 24.7177 12.4325 21.3222 9.41413C18.1594 6.61058 13.9111 7.07471 11.6536 8.65595C9.25132 10.3395 7.71462 14.0627 9.21159 17.5596C10.8391 21.375 15.4946 22.5123 18.2616 21.3779C19.6635 20.8013 20.3105 22.7271 18.8547 23.3555C16.6567 24.3068 10.5369 24.2117 7.67772 19.1754C5.74088 15.7838 5.84446 9.8062 10.9668 6.71003C14.8859 4.34035 20.048 4.99619 23.1697 8.29559C26.4261 11.755 26.236 18.2226 23.059 20.7379C21.6202 21.8809 19.4818 20.7696 19.496 19.1033L19.4804 18.5585C18.9838 19.0655 18.3934 19.4679 17.7433 19.7424C17.0931 20.017 16.396 20.1584 15.6919 20.1585C12.8214 20.1585 10.2999 17.5927 10.2999 14.6811C10.2999 11.7363 12.8256 9.14026 15.6919 9.14026" fill="#74510C"/>
<defs>
<linearGradient id="paint0_linear_1155_3002" x1="15.6669" y1="0" x2="15.6669" y2="30" gradientUnits="userSpaceOnUse">
<stop stop-color="#FFF7B1"/>
<stop offset="1" stop-color="#FFF500"/>
</linearGradient>
</defs>
</svg>
