<svg width="325" height="448" viewBox="0 0 325 448" fill="none" xmlns="http://www.w3.org/2000/svg">
<g filter="url(#filter0_ddi_1155_2962)">
<g filter="url(#filter1_d_1155_2962)">
<rect x="20" y="20" width="285" height="400" rx="5" fill="url(#paint0_linear_1155_2962)"/>
<rect x="20" y="20" width="285" height="400" rx="5" stroke="url(#paint1_linear_1155_2962)" stroke-width="1.5"/>
</g>
<g filter="url(#filter2_d_1155_2962)">
<path d="M162.5 229L109.718 213.563L98 76H162.5V229Z" fill="#FFC000"/>
<path d="M162.5 229L215.23 213.563L227 76H162.5V229Z" fill="url(#paint2_linear_1155_2962)"/>
<rect x="97" y="75" width="131" height="155" rx="4" stroke="url(#paint3_linear_1155_2962)" stroke-width="2"/>
</g>
<g filter="url(#filter3_d_1155_2962)">
<path d="M90.445 131.703H82.5387V137.203H89.8044V141.297H82.5387V150H77.4919V127.594H90.445V131.703ZM113.425 150H107.628L104.144 144.234C103.883 143.797 103.633 143.406 103.394 143.062C103.154 142.719 102.909 142.427 102.659 142.188C102.42 141.938 102.165 141.75 101.894 141.625C101.633 141.49 101.347 141.422 101.034 141.422H99.675V150H94.6281V127.594H102.628C108.066 127.594 110.784 129.625 110.784 133.688C110.784 134.469 110.665 135.193 110.425 135.859C110.185 136.516 109.847 137.109 109.409 137.641C108.972 138.172 108.441 138.63 107.816 139.016C107.201 139.401 106.514 139.703 105.753 139.922V139.984C106.086 140.089 106.409 140.26 106.722 140.5C107.034 140.729 107.336 141 107.628 141.312C107.92 141.625 108.196 141.964 108.456 142.328C108.727 142.682 108.972 143.031 109.191 143.375L113.425 150ZM99.675 131.375V137.609H101.863C102.946 137.609 103.816 137.297 104.472 136.672C105.139 136.036 105.472 135.25 105.472 134.312C105.472 132.354 104.3 131.375 101.956 131.375H99.675ZM125.483 150.391C122.275 150.391 119.66 149.349 117.639 147.266C115.619 145.172 114.608 142.448 114.608 139.094C114.608 135.552 115.634 132.688 117.686 130.5C119.738 128.312 122.457 127.219 125.842 127.219C129.04 127.219 131.624 128.266 133.592 130.359C135.572 132.453 136.561 135.214 136.561 138.641C136.561 142.161 135.535 145 133.483 147.156C131.441 149.312 128.775 150.391 125.483 150.391ZM125.702 131.562C123.931 131.562 122.525 132.229 121.483 133.562C120.441 134.885 119.921 136.641 119.921 138.828C119.921 141.047 120.441 142.802 121.483 144.094C122.525 145.385 123.889 146.031 125.577 146.031C127.316 146.031 128.697 145.406 129.717 144.156C130.738 142.896 131.249 141.151 131.249 138.922C131.249 136.599 130.754 134.792 129.764 133.5C128.775 132.208 127.421 131.562 125.702 131.562ZM160.932 150H155.838L146.604 135.922C146.062 135.099 145.687 134.479 145.479 134.062H145.416C145.5 134.854 145.541 136.062 145.541 137.688V150H140.776V127.594H146.213L155.104 141.234C155.51 141.849 155.885 142.458 156.229 143.062H156.291C156.208 142.542 156.166 141.516 156.166 139.984V127.594H160.932V150ZM182.271 131.703H175.881V150H170.818V131.703H164.459V127.594H182.271V131.703ZM199.204 150H185.767V127.594H198.689V131.703H190.814V136.688H198.142V140.781H190.814V145.906H199.204V150ZM223.434 150H218.341L209.106 135.922C208.565 135.099 208.19 134.479 207.981 134.062H207.919C208.002 134.854 208.044 136.062 208.044 137.688V150H203.278V127.594H208.716L217.606 141.234C218.012 141.849 218.387 142.458 218.731 143.062H218.794C218.71 142.542 218.669 141.516 218.669 139.984V127.594H223.434V150ZM229.039 150V127.594H236.977C244.935 127.594 248.914 131.234 248.914 138.516C248.914 142.005 247.826 144.792 245.649 146.875C243.482 148.958 240.591 150 236.977 150H229.039ZM234.086 131.703V145.906H236.586C238.774 145.906 240.487 145.25 241.727 143.938C242.977 142.625 243.602 140.839 243.602 138.578C243.602 136.443 242.982 134.766 241.742 133.547C240.513 132.318 238.784 131.703 236.555 131.703H234.086Z" fill="white"/>
</g>
<path d="M82.9153 289.095C81.6106 289.095 80.4326 288.804 79.3813 288.221C78.3426 287.638 77.5193 286.834 76.9113 285.808C76.316 284.782 76.0183 283.629 76.0183 282.35C76.0183 281.071 76.316 279.918 76.9113 278.892C77.5193 277.866 78.3426 277.062 79.3813 276.479C80.4326 275.896 81.6106 275.605 82.9153 275.605C83.878 275.605 84.7646 275.763 85.5753 276.08C86.386 276.384 87.0763 276.84 87.6463 277.448L87.0383 278.075C85.9743 277.024 84.6126 276.498 82.9533 276.498C81.8386 276.498 80.8253 276.751 79.9133 277.258C79.0013 277.765 78.2856 278.468 77.7663 279.367C77.247 280.254 76.9873 281.248 76.9873 282.35C76.9873 283.452 77.247 284.453 77.7663 285.352C78.2856 286.239 79.0013 286.935 79.9133 287.442C80.8253 287.949 81.8386 288.202 82.9533 288.202C84.6 288.202 85.9616 287.67 87.0383 286.606L87.6463 287.233C87.0763 287.841 86.3796 288.303 85.5563 288.62C84.7456 288.937 83.8653 289.095 82.9153 289.095ZM96.9795 279.937H93.1035V289H92.1535V279.937H88.2775V279.082H96.9795V279.937ZM102.491 279.006C103.719 279.006 104.663 279.323 105.322 279.956C105.98 280.577 106.31 281.495 106.31 282.711V289H105.398V287.233C105.081 287.816 104.619 288.272 104.011 288.601C103.403 288.918 102.674 289.076 101.826 289.076C100.724 289.076 99.8495 288.816 99.2035 288.297C98.5702 287.778 98.2535 287.094 98.2535 286.245C98.2535 285.422 98.5448 284.757 99.1275 284.25C99.7228 283.731 100.667 283.471 101.959 283.471H105.36V282.673C105.36 281.748 105.106 281.045 104.6 280.564C104.106 280.083 103.377 279.842 102.415 279.842C101.756 279.842 101.123 279.956 100.515 280.184C99.9192 280.412 99.4125 280.716 98.9945 281.096L98.5195 280.412C99.0135 279.969 99.6088 279.627 100.306 279.386C101.002 279.133 101.731 279.006 102.491 279.006ZM101.959 288.297C102.782 288.297 103.479 288.107 104.049 287.727C104.631 287.347 105.068 286.796 105.36 286.074V284.212H101.978C101.002 284.212 100.293 284.389 99.8495 284.744C99.4188 285.099 99.2035 285.586 99.2035 286.207C99.2035 286.853 99.4442 287.366 99.9255 287.746C100.407 288.113 101.085 288.297 101.959 288.297ZM115.356 279.006C116.281 279.006 117.117 279.221 117.864 279.652C118.612 280.083 119.194 280.678 119.612 281.438C120.043 282.198 120.258 283.066 120.258 284.041C120.258 285.016 120.043 285.89 119.612 286.663C119.194 287.423 118.612 288.018 117.864 288.449C117.117 288.867 116.281 289.076 115.356 289.076C114.482 289.076 113.691 288.873 112.981 288.468C112.272 288.05 111.721 287.474 111.328 286.739V292.686H110.378V279.082H111.29V281.419C111.683 280.659 112.234 280.07 112.943 279.652C113.665 279.221 114.47 279.006 115.356 279.006ZM115.299 288.221C116.059 288.221 116.743 288.044 117.351 287.689C117.959 287.334 118.434 286.84 118.776 286.207C119.131 285.574 119.308 284.852 119.308 284.041C119.308 283.23 119.131 282.508 118.776 281.875C118.434 281.242 117.959 280.748 117.351 280.393C116.743 280.038 116.059 279.861 115.299 279.861C114.539 279.861 113.855 280.038 113.247 280.393C112.652 280.748 112.177 281.242 111.822 281.875C111.48 282.508 111.309 283.23 111.309 284.041C111.309 284.852 111.48 285.574 111.822 286.207C112.177 286.84 112.652 287.334 113.247 287.689C113.855 288.044 114.539 288.221 115.299 288.221ZM129.798 279.937H125.922V289H124.972V279.937H121.096V279.082H129.798V279.937ZM139.428 275.7V289H138.459V276.574H135.21V275.7H139.428ZM146.222 281.267C148.16 281.267 149.566 281.609 150.44 282.293C151.314 282.964 151.751 283.921 151.751 285.162C151.751 285.922 151.573 286.6 151.219 287.195C150.877 287.778 150.357 288.24 149.661 288.582C148.964 288.924 148.109 289.095 147.096 289.095C146.133 289.095 145.227 288.93 144.379 288.601C143.543 288.272 142.89 287.841 142.422 287.309L142.916 286.568C143.334 287.049 143.91 287.442 144.645 287.746C145.392 288.05 146.203 288.202 147.077 288.202C148.267 288.202 149.179 287.93 149.813 287.385C150.459 286.84 150.782 286.112 150.782 285.2C150.782 284.199 150.414 283.439 149.68 282.92C148.958 282.401 147.735 282.141 146.013 282.141H143.315L144.018 275.7H151.067V276.574H144.835L144.322 281.267H146.222ZM163.843 289.076C162.881 289.076 162.019 288.861 161.259 288.43C160.499 287.999 159.904 287.404 159.473 286.644C159.043 285.871 158.827 285.004 158.827 284.041C158.827 283.066 159.043 282.198 159.473 281.438C159.904 280.665 160.499 280.07 161.259 279.652C162.019 279.221 162.881 279.006 163.843 279.006C164.641 279.006 165.363 279.164 166.009 279.481C166.668 279.785 167.2 280.235 167.605 280.83L166.902 281.343C166.548 280.849 166.104 280.482 165.572 280.241C165.053 279.988 164.477 279.861 163.843 279.861C163.071 279.861 162.374 280.038 161.753 280.393C161.145 280.735 160.664 281.223 160.309 281.856C159.967 282.489 159.796 283.218 159.796 284.041C159.796 284.864 159.967 285.593 160.309 286.226C160.664 286.859 161.145 287.353 161.753 287.708C162.374 288.05 163.071 288.221 163.843 288.221C164.477 288.221 165.053 288.101 165.572 287.86C166.104 287.607 166.548 287.233 166.902 286.739L167.605 287.252C167.2 287.847 166.668 288.303 166.009 288.62C165.363 288.924 164.641 289.076 163.843 289.076ZM178.888 284.269H170.357C170.383 285.042 170.579 285.732 170.946 286.34C171.314 286.935 171.808 287.398 172.428 287.727C173.062 288.056 173.771 288.221 174.556 288.221C175.202 288.221 175.798 288.107 176.342 287.879C176.9 287.638 177.362 287.29 177.729 286.834L178.28 287.461C177.85 287.98 177.305 288.379 176.646 288.658C176 288.937 175.297 289.076 174.537 289.076C173.549 289.076 172.669 288.861 171.896 288.43C171.124 287.999 170.516 287.404 170.072 286.644C169.642 285.884 169.426 285.016 169.426 284.041C169.426 283.078 169.629 282.217 170.034 281.457C170.452 280.684 171.022 280.083 171.744 279.652C172.466 279.221 173.277 279.006 174.176 279.006C175.076 279.006 175.88 279.221 176.589 279.652C177.311 280.07 177.875 280.659 178.28 281.419C178.698 282.179 178.907 283.04 178.907 284.003L178.888 284.269ZM174.176 279.842C173.48 279.842 172.853 280 172.295 280.317C171.738 280.621 171.288 281.058 170.946 281.628C170.617 282.185 170.427 282.819 170.376 283.528H177.976C177.938 282.819 177.748 282.185 177.406 281.628C177.064 281.071 176.615 280.634 176.057 280.317C175.5 280 174.873 279.842 174.176 279.842ZM182.202 279.082H183.152V283.604H189.878V279.082H190.828V289H189.878V284.44H183.152V289H182.202V279.082ZM201.751 279.937H197.875V289H196.925V279.937H193.049V279.082H201.751V279.937ZM211.049 279.082V289H210.175V285.58H206.869C206.641 285.58 206.476 285.574 206.375 285.561L203.924 289H202.879L205.444 285.447C204.633 285.27 204.013 284.921 203.582 284.402C203.151 283.883 202.936 283.211 202.936 282.388C202.936 281.299 203.297 280.475 204.019 279.918C204.754 279.361 205.754 279.082 207.021 279.082H211.049ZM203.886 282.426C203.886 284.047 204.912 284.858 206.964 284.858H210.175V279.918H207.078C204.95 279.918 203.886 280.754 203.886 282.426ZM219.933 279.234C220.858 279.234 221.675 279.443 222.384 279.861C223.106 280.266 223.67 280.836 224.075 281.571C224.48 282.306 224.683 283.154 224.683 284.117C224.683 285.08 224.474 285.941 224.056 286.701C223.651 287.448 223.074 288.037 222.327 288.468C221.592 288.886 220.75 289.095 219.8 289.095C218.711 289.095 217.78 288.829 217.007 288.297C216.247 287.765 215.664 287.011 215.259 286.036C214.866 285.061 214.67 283.921 214.67 282.616C214.67 281.134 214.847 279.905 215.202 278.93C215.569 277.955 216.114 277.188 216.836 276.631C217.571 276.061 218.508 275.637 219.648 275.358L224.037 274.294L224.189 275.187L220.009 276.175C218.983 276.416 218.147 276.77 217.501 277.239C216.868 277.695 216.393 278.322 216.076 279.12C215.759 279.918 215.595 280.938 215.582 282.179C215.911 281.267 216.462 280.551 217.235 280.032C218.008 279.5 218.907 279.234 219.933 279.234ZM219.819 288.278C220.566 288.278 221.238 288.101 221.833 287.746C222.428 287.391 222.891 286.904 223.22 286.283C223.549 285.65 223.714 284.934 223.714 284.136C223.714 283.338 223.549 282.635 223.22 282.027C222.891 281.406 222.428 280.931 221.833 280.602C221.25 280.26 220.579 280.089 219.819 280.089C219.059 280.089 218.381 280.26 217.786 280.602C217.191 280.931 216.728 281.406 216.399 282.027C216.07 282.635 215.905 283.338 215.905 284.136C215.905 284.934 216.07 285.65 216.399 286.283C216.728 286.904 217.191 287.391 217.786 287.746C218.381 288.101 219.059 288.278 219.819 288.278ZM232.991 279.006C233.916 279.006 234.752 279.221 235.499 279.652C236.246 280.083 236.829 280.678 237.247 281.438C237.678 282.198 237.893 283.066 237.893 284.041C237.893 285.016 237.678 285.89 237.247 286.663C236.829 287.423 236.246 288.018 235.499 288.449C234.752 288.867 233.916 289.076 232.991 289.076C232.117 289.076 231.325 288.873 230.616 288.468C229.907 288.05 229.356 287.474 228.963 286.739V292.686H228.013V279.082H228.925V281.419C229.318 280.659 229.869 280.07 230.578 279.652C231.3 279.221 232.104 279.006 232.991 279.006ZM232.934 288.221C233.694 288.221 234.378 288.044 234.986 287.689C235.594 287.334 236.069 286.84 236.411 286.207C236.766 285.574 236.943 284.852 236.943 284.041C236.943 283.23 236.766 282.508 236.411 281.875C236.069 281.242 235.594 280.748 234.986 280.393C234.378 280.038 233.694 279.861 232.934 279.861C232.174 279.861 231.49 280.038 230.882 280.393C230.287 280.748 229.812 281.242 229.457 281.875C229.115 282.508 228.944 283.23 228.944 284.041C228.944 284.852 229.115 285.574 229.457 286.207C229.812 286.84 230.287 287.334 230.882 287.689C231.49 288.044 232.174 288.221 232.934 288.221ZM248.135 279.082V289H247.261V285.58H243.955C243.727 285.58 243.562 285.574 243.461 285.561L241.01 289H239.965L242.53 285.447C241.719 285.27 241.098 284.921 240.668 284.402C240.237 283.883 240.022 283.211 240.022 282.388C240.022 281.299 240.383 280.475 241.105 279.918C241.839 279.361 242.84 279.082 244.107 279.082H248.135ZM240.972 282.426C240.972 284.047 241.998 284.858 244.05 284.858H247.261V279.918H244.164C242.036 279.918 240.972 280.754 240.972 282.426Z" fill="white"/>
<rect x="63.5" y="324.5" width="199" height="44" rx="2.5" stroke="url(#paint4_linear_1155_2962)"/>
<path d="M126.132 341.5V352H125.037V342.46H118.392V352H117.297V341.5H126.132ZM133.425 352.075C132.665 352.075 131.98 351.905 131.37 351.565C130.76 351.215 130.28 350.735 129.93 350.125C129.58 349.515 129.405 348.825 129.405 348.055C129.405 347.285 129.58 346.595 129.93 345.985C130.28 345.375 130.76 344.9 131.37 344.56C131.98 344.22 132.665 344.05 133.425 344.05C134.185 344.05 134.87 344.22 135.48 344.56C136.09 344.9 136.565 345.375 136.905 345.985C137.255 346.595 137.43 347.285 137.43 348.055C137.43 348.825 137.255 349.515 136.905 350.125C136.565 350.735 136.09 351.215 135.48 351.565C134.87 351.905 134.185 352.075 133.425 352.075ZM133.425 351.13C133.985 351.13 134.485 351.005 134.925 350.755C135.375 350.495 135.725 350.13 135.975 349.66C136.225 349.19 136.35 348.655 136.35 348.055C136.35 347.455 136.225 346.92 135.975 346.45C135.725 345.98 135.375 345.62 134.925 345.37C134.485 345.11 133.985 344.98 133.425 344.98C132.865 344.98 132.36 345.11 131.91 345.37C131.47 345.62 131.12 345.98 130.86 346.45C130.61 346.92 130.485 347.455 130.485 348.055C130.485 348.655 130.61 349.19 130.86 349.66C131.12 350.13 131.47 350.495 131.91 350.755C132.36 351.005 132.865 351.13 133.425 351.13ZM148.107 351.07V353.905H147.102V352H140.037V353.905H139.032V351.07H139.482C140.012 351.04 140.372 350.65 140.562 349.9C140.752 349.15 140.882 348.1 140.952 346.75L141.057 344.11H146.877V351.07H148.107ZM141.927 346.81C141.877 347.93 141.782 348.855 141.642 349.585C141.502 350.305 141.252 350.8 140.892 351.07H145.812V345.055H142.017L141.927 346.81ZM154.998 344.05C155.738 344.05 156.408 344.22 157.008 344.56C157.608 344.89 158.078 345.36 158.418 345.97C158.758 346.58 158.928 347.275 158.928 348.055C158.928 348.845 158.758 349.545 158.418 350.155C158.078 350.765 157.608 351.24 157.008 351.58C156.418 351.91 155.748 352.075 154.998 352.075C154.358 352.075 153.778 351.945 153.258 351.685C152.748 351.415 152.328 351.025 151.998 350.515V354.91H150.933V344.11H151.953V345.67C152.273 345.15 152.693 344.75 153.213 344.47C153.743 344.19 154.338 344.05 154.998 344.05ZM154.923 351.13C155.473 351.13 155.973 351.005 156.423 350.755C156.873 350.495 157.223 350.13 157.473 349.66C157.733 349.19 157.863 348.655 157.863 348.055C157.863 347.455 157.733 346.925 157.473 346.465C157.223 345.995 156.873 345.63 156.423 345.37C155.973 345.11 155.473 344.98 154.923 344.98C154.363 344.98 153.858 345.11 153.408 345.37C152.968 345.63 152.618 345.995 152.358 346.465C152.108 346.925 151.983 347.455 151.983 348.055C151.983 348.655 152.108 349.19 152.358 349.66C152.618 350.13 152.968 350.495 153.408 350.755C153.858 351.005 154.363 351.13 154.923 351.13ZM165.221 352.075C164.461 352.075 163.776 351.905 163.166 351.565C162.556 351.215 162.076 350.735 161.726 350.125C161.376 349.515 161.201 348.825 161.201 348.055C161.201 347.285 161.376 346.595 161.726 345.985C162.076 345.375 162.556 344.9 163.166 344.56C163.776 344.22 164.461 344.05 165.221 344.05C165.981 344.05 166.666 344.22 167.276 344.56C167.886 344.9 168.361 345.375 168.701 345.985C169.051 346.595 169.226 347.285 169.226 348.055C169.226 348.825 169.051 349.515 168.701 350.125C168.361 350.735 167.886 351.215 167.276 351.565C166.666 351.905 165.981 352.075 165.221 352.075ZM165.221 351.13C165.781 351.13 166.281 351.005 166.721 350.755C167.171 350.495 167.521 350.13 167.771 349.66C168.021 349.19 168.146 348.655 168.146 348.055C168.146 347.455 168.021 346.92 167.771 346.45C167.521 345.98 167.171 345.62 166.721 345.37C166.281 345.11 165.781 344.98 165.221 344.98C164.661 344.98 164.156 345.11 163.706 345.37C163.266 345.62 162.916 345.98 162.656 346.45C162.406 346.92 162.281 347.455 162.281 348.055C162.281 348.655 162.406 349.19 162.656 349.66C162.916 350.13 163.266 350.495 163.706 350.755C164.156 351.005 164.661 351.13 165.221 351.13ZM176.077 344.305C176.807 344.305 177.457 344.47 178.027 344.8C178.607 345.12 179.057 345.575 179.377 346.165C179.697 346.745 179.857 347.41 179.857 348.16C179.857 348.93 179.687 349.615 179.347 350.215C179.017 350.805 178.552 351.265 177.952 351.595C177.352 351.925 176.662 352.09 175.882 352.09C174.572 352.09 173.557 351.63 172.837 350.71C172.117 349.79 171.757 348.52 171.757 346.9C171.757 345.21 172.077 343.915 172.717 343.015C173.367 342.115 174.377 341.505 175.747 341.185L179.287 340.375L179.467 341.35L176.137 342.115C175.007 342.365 174.177 342.81 173.647 343.45C173.117 344.08 172.827 345.015 172.777 346.255C173.097 345.645 173.542 345.17 174.112 344.83C174.682 344.48 175.337 344.305 176.077 344.305ZM175.912 351.205C176.462 351.205 176.952 351.08 177.382 350.83C177.822 350.57 178.162 350.21 178.402 349.75C178.652 349.29 178.777 348.77 178.777 348.19C178.777 347.61 178.657 347.1 178.417 346.66C178.177 346.22 177.837 345.88 177.397 345.64C176.967 345.39 176.472 345.265 175.912 345.265C175.352 345.265 174.852 345.39 174.412 345.64C173.982 345.88 173.642 346.22 173.392 346.66C173.152 347.1 173.032 347.61 173.032 348.19C173.032 348.77 173.152 349.29 173.392 349.75C173.642 350.21 173.987 350.57 174.427 350.83C174.867 351.08 175.362 351.205 175.912 351.205ZM182.89 344.11H183.955V347.605H188.92V344.11H189.985V352H188.92V348.52H183.955V352H182.89V344.11ZM200.662 348.385H194.062C194.122 349.205 194.437 349.87 195.007 350.38C195.577 350.88 196.297 351.13 197.167 351.13C197.657 351.13 198.107 351.045 198.517 350.875C198.927 350.695 199.282 350.435 199.582 350.095L200.182 350.785C199.832 351.205 199.392 351.525 198.862 351.745C198.342 351.965 197.767 352.075 197.137 352.075C196.327 352.075 195.607 351.905 194.977 351.565C194.357 351.215 193.872 350.735 193.522 350.125C193.172 349.515 192.997 348.825 192.997 348.055C192.997 347.285 193.162 346.595 193.492 345.985C193.832 345.375 194.292 344.9 194.872 344.56C195.462 344.22 196.122 344.05 196.852 344.05C197.582 344.05 198.237 344.22 198.817 344.56C199.397 344.9 199.852 345.375 200.182 345.985C200.512 346.585 200.677 347.275 200.677 348.055L200.662 348.385ZM196.852 344.965C196.092 344.965 195.452 345.21 194.932 345.7C194.422 346.18 194.132 346.81 194.062 347.59H199.657C199.587 346.81 199.292 346.18 198.772 345.7C198.262 345.21 197.622 344.965 196.852 344.965ZM210.684 348.385H204.084C204.144 349.205 204.459 349.87 205.029 350.38C205.599 350.88 206.319 351.13 207.189 351.13C207.679 351.13 208.129 351.045 208.539 350.875C208.949 350.695 209.304 350.435 209.604 350.095L210.204 350.785C209.854 351.205 209.414 351.525 208.884 351.745C208.364 351.965 207.789 352.075 207.159 352.075C206.349 352.075 205.629 351.905 204.999 351.565C204.379 351.215 203.894 350.735 203.544 350.125C203.194 349.515 203.019 348.825 203.019 348.055C203.019 347.285 203.184 346.595 203.514 345.985C203.854 345.375 204.314 344.9 204.894 344.56C205.484 344.22 206.144 344.05 206.874 344.05C207.604 344.05 208.259 344.22 208.839 344.56C209.419 344.9 209.874 345.375 210.204 345.985C210.534 346.585 210.699 347.275 210.699 348.055L210.684 348.385ZM206.874 344.965C206.114 344.965 205.474 345.21 204.954 345.7C204.444 346.18 204.154 346.81 204.084 347.59H209.679C209.609 346.81 209.314 346.18 208.794 345.7C208.284 345.21 207.644 344.965 206.874 344.965Z" fill="white"/>
</g>
<defs>
<filter id="filter0_ddi_1155_2962" x="0.25" y="0.25" width="318.5" height="433.5" filterUnits="userSpaceOnUse" color-interpolation-filters="sRGB">
<feFlood flood-opacity="0" result="BackgroundImageFix"/>
<feColorMatrix in="SourceAlpha" type="matrix" values="0 0 0 0 0 0 0 0 0 0 0 0 0 0 0 0 0 0 127 0" result="hardAlpha"/>
<feOffset dy="4"/>
<feGaussianBlur stdDeviation="2"/>
<feColorMatrix type="matrix" values="0 0 0 0 0 0 0 0 0 0 0 0 0 0 0 0 0 0 0.25 0"/>
<feBlend mode="normal" in2="BackgroundImageFix" result="effect1_dropShadow_1155_2962"/>
<feColorMatrix in="SourceAlpha" type="matrix" values="0 0 0 0 0 0 0 0 0 0 0 0 0 0 0 0 0 0 127 0" result="hardAlpha"/>
<feOffset dx="-3" dy="-3"/>
<feGaussianBlur stdDeviation="8"/>
<feColorMatrix type="matrix" values="0 0 0 0 0.0392157 0 0 0 0 0.160784 0 0 0 0 0.486275 0 0 0 0.13 0"/>
<feBlend mode="normal" in2="effect1_dropShadow_1155_2962" result="effect2_dropShadow_1155_2962"/>
<feBlend mode="normal" in="SourceGraphic" in2="effect2_dropShadow_1155_2962" result="shape"/>
<feColorMatrix in="SourceAlpha" type="matrix" values="0 0 0 0 0 0 0 0 0 0 0 0 0 0 0 0 0 0 127 0" result="hardAlpha"/>
<feOffset dx="3" dy="5"/>
<feGaussianBlur stdDeviation="7.5"/>
<feComposite in2="hardAlpha" operator="arithmetic" k2="-1" k3="1"/>
<feColorMatrix type="matrix" values="0 0 0 0 0.575521 0 0 0 0 0.692927 0 0 0 0 0.920833 0 0 0 0.73 0"/>
<feBlend mode="normal" in2="shape" result="effect3_innerShadow_1155_2962"/>
</filter>
<filter id="filter1_d_1155_2962" x="0.25" y="8.25" width="324.5" height="439.5" filterUnits="userSpaceOnUse" color-interpolation-filters="sRGB">
<feFlood flood-opacity="0" result="BackgroundImageFix"/>
<feColorMatrix in="SourceAlpha" type="matrix" values="0 0 0 0 0 0 0 0 0 0 0 0 0 0 0 0 0 0 127 0" result="hardAlpha"/>
<feOffset dy="8"/>
<feGaussianBlur stdDeviation="9.5"/>
<feColorMatrix type="matrix" values="0 0 0 0 0 0 0 0 0 0 0 0 0 0 0 0 0 0 0.25 0"/>
<feBlend mode="normal" in2="BackgroundImageFix" result="effect1_dropShadow_1155_2962"/>
<feBlend mode="normal" in="SourceGraphic" in2="effect1_dropShadow_1155_2962" result="shape"/>
</filter>
<filter id="filter2_d_1155_2962" x="67" y="70" width="191" height="215" filterUnits="userSpaceOnUse" color-interpolation-filters="sRGB">
<feFlood flood-opacity="0" result="BackgroundImageFix"/>
<feColorMatrix in="SourceAlpha" type="matrix" values="0 0 0 0 0 0 0 0 0 0 0 0 0 0 0 0 0 0 127 0" result="hardAlpha"/>
<feOffset dy="25"/>
<feGaussianBlur stdDeviation="14.5"/>
<feColorMatrix type="matrix" values="0 0 0 0 0 0 0 0 0 0 0 0 0 0 0 0 0 0 0.25 0"/>
<feBlend mode="normal" in2="BackgroundImageFix" result="effect1_dropShadow_1155_2962"/>
<feBlend mode="normal" in="SourceGraphic" in2="effect1_dropShadow_1155_2962" result="shape"/>
</filter>
<filter id="filter3_d_1155_2962" x="73.4917" y="127.219" width="179.423" height="31.1719" filterUnits="userSpaceOnUse" color-interpolation-filters="sRGB">
<feFlood flood-opacity="0" result="BackgroundImageFix"/>
<feColorMatrix in="SourceAlpha" type="matrix" values="0 0 0 0 0 0 0 0 0 0 0 0 0 0 0 0 0 0 127 0" result="hardAlpha"/>
<feOffset dy="4"/>
<feGaussianBlur stdDeviation="2"/>
<feColorMatrix type="matrix" values="0 0 0 0 0 0 0 0 0 0 0 0 0 0 0 0 0 0 0.25 0"/>
<feBlend mode="normal" in2="BackgroundImageFix" result="effect1_dropShadow_1155_2962"/>
<feBlend mode="normal" in="SourceGraphic" in2="effect1_dropShadow_1155_2962" result="shape"/>
</filter>
<linearGradient id="paint0_linear_1155_2962" x1="162.5" y1="20" x2="162.5" y2="420" gradientUnits="userSpaceOnUse">
<stop stop-color="#4C7DFB"/>
<stop offset="1" stop-color="#001D69"/>
</linearGradient>
<linearGradient id="paint1_linear_1155_2962" x1="162.5" y1="20" x2="162.5" y2="420" gradientUnits="userSpaceOnUse">
<stop stop-color="#6E77C9"/>
<stop offset="1" stop-color="#04107B"/>
</linearGradient>
<linearGradient id="paint2_linear_1155_2962" x1="194.75" y1="76" x2="190.808" y2="228.987" gradientUnits="userSpaceOnUse">
<stop stop-color="#C8A640"/>
<stop offset="1" stop-color="#94761C"/>
</linearGradient>
<linearGradient id="paint3_linear_1155_2962" x1="162.5" y1="76" x2="162.5" y2="229" gradientUnits="userSpaceOnUse">
<stop stop-color="white" stop-opacity="0.01"/>
<stop offset="1" stop-color="#F2F6FF"/>
</linearGradient>
<linearGradient id="paint4_linear_1155_2962" x1="163" y1="324" x2="163" y2="369" gradientUnits="userSpaceOnUse">
<stop stop-color="white"/>
<stop offset="1" stop-color="#FDF9E5"/>
</linearGradient>
</defs>
</svg>
