<svg width="32" height="30" viewBox="0 0 32 30" fill="none" xmlns="http://www.w3.org/2000/svg">
<ellipse cx="15.5556" cy="15" rx="15.5556" ry="15" fill="url(#paint0_linear_1155_3005)"/>
<path d="M15.5311 7.84573C17.9675 7.84573 18.2565 7.8557 19.2187 7.89985C19.7974 7.90682 20.3705 8.01474 20.9132 8.21888C21.3099 8.36688 21.6686 8.60398 21.9624 8.91249C22.2657 9.21119 22.4992 9.57526 22.6455 9.97782C22.8456 10.529 22.9509 11.1109 22.9569 11.6983C23.0003 12.6753 23.0102 12.9687 23.0102 15.4426C23.0102 17.9166 23.0003 18.2099 22.9569 19.187C22.95 19.7745 22.8437 20.3565 22.6427 20.9075C22.4906 21.307 22.2579 21.6699 21.9596 21.9728C21.6613 22.2757 21.3039 22.512 20.9104 22.6664C20.3684 22.8693 19.7963 22.9762 19.2187 22.9826C18.2565 23.0267 17.9675 23.0367 15.5311 23.0367C13.0946 23.0367 12.8057 23.0267 11.8435 22.9826C11.2648 22.9756 10.6917 22.8677 10.149 22.6636C9.75255 22.515 9.394 22.278 9.09982 21.97C8.79598 21.6716 8.56247 21.3074 8.41671 20.9046C8.21598 20.3545 8.1097 19.7736 8.10251 19.187C8.05903 18.2099 8.04921 17.9166 8.04921 15.4426C8.04921 12.9687 8.05903 12.6753 8.10251 11.6983C8.10938 11.1108 8.21566 10.5288 8.41671 9.97782C8.56299 9.57526 8.79643 9.21119 9.09982 8.91249C9.394 8.60444 9.75255 8.3674 10.149 8.21888C10.6917 8.01474 11.2648 7.90682 11.8435 7.89985C12.8057 7.8557 13.0946 7.84573 15.5311 7.84573ZM15.5311 6.17651C13.0526 6.17651 12.7426 6.18648 11.7691 6.23206C11.0119 6.24645 10.2626 6.39092 9.55288 6.65933C8.94418 6.89188 8.39274 7.25641 7.937 7.72752C7.47303 8.19027 7.11402 8.75018 6.88499 9.36824C6.62064 10.0889 6.47836 10.8497 6.46419 11.6185C6.41509 12.6112 6.40527 12.926 6.40527 15.4426C6.40527 17.9593 6.41509 18.2826 6.45998 19.2639C6.47426 20.0323 6.61653 20.7926 6.88078 21.5128C7.10912 22.1312 7.46822 22.6912 7.93279 23.1535C8.38871 23.6247 8.94007 23.9897 9.54867 24.2231C10.2586 24.4908 11.0078 24.6352 11.7649 24.6504C12.7384 24.696 13.0484 24.7059 15.5269 24.7059C18.0054 24.7059 18.3168 24.696 19.2903 24.6504C20.0469 24.6351 20.7956 24.4907 21.5051 24.2231C22.1099 23.9844 22.6591 23.6205 23.1179 23.1547C23.5767 22.6888 23.9351 22.1311 24.1702 21.517C24.4337 20.7967 24.5759 20.0364 24.591 19.2682C24.6359 18.2797 24.6457 17.9636 24.6457 15.4469C24.6457 12.9303 24.6359 12.6155 24.591 11.6271C24.5761 10.8583 24.4338 10.0976 24.1702 9.37679C23.9403 8.75883 23.5809 8.19899 23.1168 7.73606C22.6615 7.26435 22.1099 6.89973 21.5009 6.66788C20.7916 6.39957 20.0428 6.2551 19.2861 6.2406C18.328 6.18648 18.0096 6.17651 15.5311 6.17651Z" fill="#74510C"/>
<path d="M15.5311 10.6846C14.6042 10.6846 13.6981 10.9636 12.9275 11.4865C12.1568 12.0094 11.5562 12.7525 11.2015 13.622C10.8468 14.4915 10.754 15.4482 10.9348 16.3713C11.1156 17.2943 11.5619 18.1422 12.2173 18.8077C12.8727 19.4731 13.7077 19.9263 14.6168 20.1099C15.5259 20.2935 16.4681 20.1993 17.3245 19.8392C18.1808 19.479 18.9127 18.8691 19.4276 18.0866C19.9426 17.3041 20.2174 16.3841 20.2174 15.443C20.2174 14.8181 20.0962 14.1993 19.8607 13.622C19.6252 13.0447 19.28 12.5201 18.8448 12.0783C18.4096 11.6364 17.893 11.2859 17.3245 11.0468C16.7559 10.8076 16.1465 10.6846 15.5311 10.6846ZM15.5311 18.5322C14.9293 18.5322 14.3411 18.351 13.8408 18.0115C13.3405 17.6721 12.9505 17.1896 12.7203 16.6251C12.49 16.0607 12.4297 15.4395 12.5471 14.8403C12.6645 14.2411 12.9543 13.6906 13.3798 13.2586C13.8053 12.8266 14.3474 12.5323 14.9375 12.4131C15.5277 12.2939 16.1394 12.3551 16.6953 12.5889C17.2513 12.8227 17.7264 13.2187 18.0607 13.7267C18.395 14.2347 18.5735 14.832 18.5735 15.443C18.5735 16.2623 18.2529 17.048 17.6824 17.6274C17.1118 18.2067 16.338 18.5322 15.5311 18.5322Z" fill="#74510C"/>
<path d="M20.4026 11.6089C21.0076 11.6089 21.4981 11.1109 21.4981 10.4966C21.4981 9.88229 21.0076 9.38428 20.4026 9.38428C19.7976 9.38428 19.3071 9.88229 19.3071 10.4966C19.3071 11.1109 19.7976 11.6089 20.4026 11.6089Z" fill="#74510C"/>
<defs>
<linearGradient id="paint0_linear_1155_3005" x1="15.5556" y1="0" x2="15.5556" y2="30" gradientUnits="userSpaceOnUse">
<stop stop-color="#FFF7B1"/>
<stop offset="1" stop-color="#FFF500"/>
</linearGradient>
</defs>
</svg>
