<svg width="28" height="27" viewBox="0 0 28 27" fill="none" xmlns="http://www.w3.org/2000/svg">
<ellipse cx="14" cy="13.5" rx="14" ry="13.5" fill="url(#paint0_linear_1155_2947)"/>
<path d="M13.9769 7.06284C16.1697 7.06284 16.4298 7.07181 17.2958 7.11155C17.8165 7.11783 18.3324 7.21495 18.8208 7.39868C19.1778 7.53187 19.5006 7.74527 19.765 8.02292C20.0381 8.29175 20.2482 8.61942 20.3798 8.98172C20.5599 9.47776 20.6547 10.0015 20.6601 10.5302C20.6992 11.4095 20.7081 11.6735 20.7081 13.9001C20.7081 16.1266 20.6992 16.3906 20.6601 17.27C20.6539 17.7988 20.5583 18.3225 20.3773 18.8184C20.2404 19.178 20.031 19.5046 19.7625 19.7772C19.4941 20.0499 19.1724 20.2625 18.8182 20.4015C18.3305 20.584 17.8155 20.6803 17.2958 20.686C16.4298 20.7258 16.1697 20.7347 13.9769 20.7347C11.7841 20.7347 11.524 20.7258 10.658 20.686C10.1372 20.6797 9.62141 20.5826 9.13304 20.3989C8.77622 20.2652 8.45352 20.0519 8.18876 19.7746C7.91531 19.5061 7.70515 19.1784 7.57396 18.8158C7.3933 18.3208 7.29766 17.7979 7.29119 17.27C7.25205 16.3906 7.24321 16.1266 7.24321 13.9001C7.24321 11.6735 7.25205 11.4095 7.29119 10.5302C7.29737 10.0014 7.39302 9.4776 7.57396 8.98172C7.70561 8.61942 7.91571 8.29175 8.18876 8.02292C8.45352 7.74568 8.77622 7.53235 9.13304 7.39868C9.62141 7.21495 10.1372 7.11783 10.658 7.11155C11.524 7.07181 11.7841 7.06284 13.9769 7.06284ZM13.9769 5.56055C11.7462 5.56055 11.4672 5.56952 10.5911 5.61054C9.90964 5.62349 9.23524 5.75351 8.59652 5.99508C8.04869 6.20438 7.55239 6.53246 7.14222 6.95645C6.72465 7.37293 6.40154 7.87685 6.19542 8.4331C5.9575 9.08165 5.82945 9.76642 5.81669 10.4584C5.77251 11.3518 5.76367 11.6351 5.76367 13.9001C5.76367 16.165 5.77251 16.456 5.81291 17.3392C5.82576 18.0307 5.95381 18.715 6.19163 19.3632C6.39713 19.9198 6.72032 20.4238 7.13843 20.8398C7.54876 21.2639 8.04499 21.5924 8.59273 21.8025C9.23164 22.0434 9.90592 22.1734 10.5873 22.187C11.4634 22.228 11.7424 22.237 13.9731 22.237C16.2038 22.237 16.484 22.228 17.3602 22.187C18.0411 22.1733 18.715 22.0433 19.3535 21.8025C19.8978 21.5876 20.3921 21.2602 20.805 20.8409C21.218 20.4216 21.5405 19.9197 21.7521 19.367C21.9892 18.7187 22.1172 18.0345 22.1308 17.343C22.1712 16.4534 22.18 16.1689 22.18 13.9039C22.18 11.6389 22.1712 11.3557 22.1308 10.4661C22.1174 9.77418 21.9893 9.08953 21.7521 8.44079C21.5452 7.88463 21.2217 7.38078 20.804 6.96414C20.3943 6.5396 19.8979 6.21144 19.3497 6.00277C18.7114 5.7613 18.0374 5.63128 17.3564 5.61823C16.4941 5.56952 16.2076 5.56055 13.9769 5.56055Z" fill="#DAE7FB"/>
<path d="M13.9765 9.61816C13.1423 9.61816 12.3269 9.86933 11.6333 10.3399C10.9397 10.8105 10.3991 11.4793 10.0798 12.2619C9.76062 13.0444 9.67709 13.9055 9.83983 14.7362C10.0026 15.5669 10.4043 16.33 10.9941 16.929C11.584 17.5279 12.3355 17.9358 13.1537 18.101C13.9718 18.2662 14.8199 18.1814 15.5905 17.8573C16.3612 17.5332 17.0199 16.9842 17.4834 16.28C17.9468 15.5757 18.1942 14.7477 18.1942 13.9007C18.1942 13.3383 18.0851 12.7814 17.8732 12.2619C17.6612 11.7423 17.3505 11.2702 16.9589 10.8725C16.5672 10.4748 16.1023 10.1594 15.5905 9.94415C15.0788 9.72894 14.5304 9.61816 13.9765 9.61816ZM13.9765 16.681C13.4349 16.681 12.9055 16.5179 12.4553 16.2124C12.005 15.9069 11.654 15.4727 11.4468 14.9647C11.2395 14.4567 11.1853 13.8976 11.2909 13.3583C11.3966 12.819 11.6574 12.3236 12.0403 11.9348C12.4233 11.546 12.9112 11.2812 13.4423 11.1739C13.9735 11.0666 14.524 11.1217 15.0243 11.3321C15.5247 11.5425 15.9523 11.8989 16.2532 12.3561C16.5541 12.8133 16.7147 13.3508 16.7147 13.9007C16.7147 14.6381 16.4262 15.3453 15.9127 15.8667C15.3992 16.3881 14.7027 16.681 13.9765 16.681Z" fill="#DAE7FB"/>
<path d="M18.3614 10.447C18.906 10.447 19.3474 9.99882 19.3474 9.44592C19.3474 8.89303 18.906 8.44482 18.3614 8.44482C17.8169 8.44482 17.3755 8.89303 17.3755 9.44592C17.3755 9.99882 17.8169 10.447 18.3614 10.447Z" fill="#DAE7FB"/>
<defs>
<linearGradient id="paint0_linear_1155_2947" x1="14" y1="0" x2="14" y2="27" gradientUnits="userSpaceOnUse">
<stop stop-color="#3F94F8"/>
<stop offset="1" stop-color="#183AB3"/>
</linearGradient>
</defs>
</svg>
