<svg width="512" height="410" viewBox="0 0 512 410" fill="none" xmlns="http://www.w3.org/2000/svg">
<g filter="url(#filter0_di_1155_2451)">
<path d="M20.3519 197.446L205.688 83.152C207.02 82.3367 208.531 81.9075 210.068 81.9075C211.606 81.9075 213.117 82.3367 214.449 83.152L491.599 251.325C492.936 252.138 494.048 253.312 494.82 254.726C495.593 256.141 496 257.747 496 259.382C496 261.017 495.593 262.623 494.82 264.038C494.048 265.452 492.936 266.626 491.599 267.439L314.394 375.936C310.046 378.598 305.113 380 300.092 380C295.071 380 290.138 378.598 285.79 375.936L20.3792 213.517C19.0501 212.703 17.9459 211.533 17.1773 210.124C16.4088 208.715 16.0028 207.117 16 205.49C15.9972 203.862 16.3978 202.262 17.1616 200.851C17.9253 199.439 19.0255 198.265 20.3519 197.446Z" fill="#1323AC"/>
</g>
<path d="M119.095 216.172V220.94L121.363 223.896" fill="#ADCEE1"/>
<path d="M209.447 158.127L121.665 215.817C120.868 216.35 120.215 217.093 119.769 217.972C119.322 218.852 119.098 219.839 119.117 220.838C119.136 221.837 119.398 222.813 119.878 223.673C120.358 224.532 121.04 225.246 121.856 225.744L255.081 305.649C256.943 306.767 259.05 307.346 261.189 307.328C263.329 307.31 265.427 306.696 267.272 305.548L354.671 251.075C361.026 245.539 360.548 235.134 354.671 234.685L222.212 157.881C220.264 156.689 218.046 156.082 215.798 156.125C213.549 156.168 211.353 156.861 209.447 158.127Z" fill="#88D3D8"/>
<path d="M209.446 154.15L121.65 211.84C120.854 212.373 120.2 213.115 119.754 213.995C119.307 214.875 119.083 215.862 119.102 216.861C119.121 217.859 119.384 218.836 119.864 219.695C120.344 220.555 121.025 221.268 121.842 221.767L255.066 301.672C256.929 302.79 259.035 303.369 261.175 303.351C263.314 303.333 265.412 302.719 267.257 301.571L354.657 247.098C355.664 246.453 356.497 245.543 357.076 244.456C357.654 243.369 357.958 242.143 357.958 240.895C357.958 239.648 357.654 238.421 357.076 237.334C356.497 236.248 355.664 235.338 354.657 234.693L222.157 153.918C220.216 152.735 218.009 152.131 215.771 152.172C213.533 152.213 211.347 152.896 209.446 154.15Z" fill="white"/>
<path d="M213.041 146.261C213.041 146.261 249.504 21.4761 249.272 21.4761C249.039 21.4761 250.406 15.9259 256.925 19.0705L396.846 106.396C396.846 106.396 403.68 109.294 402.313 116.003C400.946 122.713 366.615 238.108 366.615 238.108C365.899 239.205 364.871 240.031 363.681 240.466C362.492 240.901 361.203 240.923 360.001 240.528C355.736 239.079 216.266 153.217 216.266 153.217C214.998 152.706 213.959 151.704 213.361 150.413C212.762 149.122 212.648 147.638 213.041 146.261Z" fill="#112E7C"/>
<path d="M251.594 30.5565L394.877 119.128L365.166 224.93L220.038 138.981L251.594 30.5565Z" fill="#172D51"/>
<path d="M204.075 167.37L171.971 188.571C171.4 188.945 170.93 189.47 170.608 190.096C170.286 190.721 170.123 191.424 170.135 192.137C170.148 192.849 170.335 193.545 170.679 194.158C171.022 194.77 171.51 195.277 172.094 195.628L287.347 265.274C289.069 266.328 291.023 266.883 293.012 266.883C295.001 266.883 296.955 266.328 298.677 265.274C306.084 260.695 318.836 252.449 326.639 247.377C327.334 246.924 327.905 246.289 328.299 245.532C328.693 244.775 328.894 243.923 328.885 243.059C328.875 242.195 328.654 241.348 328.244 240.601C327.834 239.854 327.248 239.233 326.544 238.798C303.214 224.365 227.213 177.499 210.539 167.254C209.553 166.649 208.431 166.34 207.292 166.361C206.153 166.381 205.041 166.73 204.075 167.37Z" fill="#112E7C"/>
<path d="M205.797 224.93L246.046 248.928C246.659 249.301 247.169 249.839 247.523 250.488C247.878 251.137 248.064 251.873 248.064 252.623C248.064 253.373 247.878 254.109 247.523 254.758C247.169 255.407 246.659 255.945 246.046 256.318L222.375 271.013C221.563 271.51 220.641 271.772 219.703 271.772C218.765 271.772 217.844 271.51 217.031 271.013L175.908 246.102C175.394 245.79 174.966 245.34 174.669 244.796C174.372 244.253 174.216 243.636 174.216 243.008C174.216 242.38 174.372 241.763 174.669 241.22C174.966 240.677 175.394 240.226 175.908 239.914L200.508 224.916C201.315 224.431 202.227 224.178 203.154 224.18C204.082 224.183 204.993 224.441 205.797 224.93Z" fill="#112E7C"/>
<path opacity="0.1" d="M204.075 167.37L171.971 188.571C171.4 188.945 170.93 189.47 170.608 190.096C170.286 190.721 170.123 191.424 170.135 192.137C170.148 192.849 170.335 193.545 170.679 194.158C171.022 194.77 171.51 195.277 172.094 195.628L287.347 265.274C289.069 266.328 291.023 266.883 293.012 266.883C295.001 266.883 296.955 266.328 298.677 265.274C306.084 260.695 318.836 252.449 326.639 247.377C327.334 246.924 327.905 246.289 328.299 245.532C328.693 244.775 328.894 243.923 328.885 243.059C328.875 242.195 328.654 241.348 328.244 240.601C327.834 239.854 327.248 239.233 326.544 238.798C303.214 224.365 227.213 177.499 210.539 167.254C209.553 166.649 208.431 166.34 207.292 166.361C206.153 166.381 205.041 166.73 204.075 167.37Z" fill="#053855"/>
<path opacity="0.1" d="M205.797 224.93L246.046 248.928C246.659 249.301 247.169 249.839 247.523 250.488C247.878 251.137 248.064 251.873 248.064 252.623C248.064 253.373 247.878 254.109 247.523 254.758C247.169 255.407 246.659 255.945 246.046 256.318L222.375 271.013C221.563 271.51 220.641 271.772 219.703 271.772C218.765 271.772 217.844 271.51 217.031 271.013L175.908 246.102C175.394 245.79 174.966 245.34 174.669 244.796C174.372 244.253 174.216 243.636 174.216 243.008C174.216 242.38 174.372 241.763 174.669 241.22C174.966 240.677 175.394 240.226 175.908 239.914L200.508 224.916C201.315 224.431 202.227 224.178 203.154 224.18C204.082 224.183 204.993 224.441 205.797 224.93Z" fill="#053855"/>
<path d="M175.84 229.657C172.975 221.161 171.425 212.23 171.248 203.21C170.797 191.718 174.774 174.024 190.641 175.154C212.932 176.748 220.845 202.485 232.79 209.528C244.735 216.571 271.727 204.92 273.503 215.672C275.28 226.425 270.469 239.119 263.458 246.93C246.593 265.769 213.137 264.32 193.265 252.031C185.17 246.961 179.004 239.045 175.84 229.657Z" fill="#FA6D90"/>
<path d="M254.546 248.913C218.138 254.115 173.912 229.045 172.135 190.773C171.351 194.731 171.012 198.773 171.124 202.816C171.301 211.836 172.851 220.767 175.716 229.262C178.881 238.658 185.052 246.58 193.155 251.651C212.835 263.781 245.841 265.331 262.856 247.058C260.133 247.892 257.356 248.512 254.546 248.913Z" fill="#D64770"/>
<path d="M269.279 164.577C269.281 163.925 269.129 163.283 268.835 162.71C268.541 162.138 268.115 161.653 267.598 161.302C267.547 160.759 267.362 160.241 267.063 159.798C266.763 159.355 266.358 159.004 265.889 158.78C265.824 158.748 265.755 158.724 265.684 158.708C266.495 157.059 267.154 155.332 267.652 153.549C267.634 153.249 267.524 152.963 267.339 152.736C267.154 152.509 266.903 152.352 266.626 152.289C266.349 152.227 266.06 152.262 265.804 152.39C265.547 152.518 265.337 152.732 265.206 152.998C264.444 155.24 263.464 157.392 262.281 159.418C262.183 159.363 262.077 159.324 261.967 159.302C260.477 159.085 259.234 158.693 258.646 160.534C258.058 162.374 257.758 164.07 257.279 165.838C257.241 165.985 257.233 166.139 257.255 166.289C257.277 166.44 257.329 166.584 257.408 166.712C257.487 166.839 257.591 166.947 257.712 167.029C257.834 167.111 257.97 167.164 258.113 167.185C258.213 167.492 258.421 167.745 258.694 167.891C258.967 168.037 259.283 168.065 259.575 167.968C259.641 168.211 259.753 168.438 259.903 168.634L259.821 168.736C259.692 168.919 259.613 169.137 259.594 169.364C259.574 169.592 259.615 169.821 259.712 170.026C259.808 170.23 259.956 170.403 260.14 170.523C260.323 170.643 260.535 170.707 260.751 170.707C259.835 171.373 260.382 173.17 261.571 172.721C263.88 171.837 267.133 171.272 268.923 169.316C269.554 168.731 269.943 167.908 270.01 167.023C270.076 166.138 269.814 165.26 269.279 164.577Z" fill="#FFB5A9"/>
<path d="M262.296 168.299C262.384 168.12 262.436 167.923 262.449 167.721C262.461 167.52 262.434 167.318 262.368 167.128C262.302 166.938 262.2 166.765 262.068 166.62C261.935 166.475 261.775 166.36 261.599 166.284L261.818 165.908C261.954 165.652 262.014 165.359 261.99 165.067C261.965 164.774 261.858 164.497 261.682 164.271C261.505 164.045 261.269 163.88 261.002 163.8C260.736 163.72 260.453 163.727 260.191 163.821C260.057 163.641 259.885 163.497 259.688 163.402C259.491 163.306 259.276 163.261 259.06 163.271C258.844 163.281 258.633 163.345 258.445 163.458C258.256 163.572 258.096 163.731 257.977 163.922C256.521 166.649 254.886 169.263 253.085 171.748C252.915 171.974 252.809 172.246 252.78 172.534C252.751 172.821 252.8 173.111 252.921 173.371L252.565 173.936C252.455 174.101 252.383 174.291 252.355 174.49C252.327 174.69 252.344 174.894 252.403 175.086C252.463 175.278 252.565 175.452 252.7 175.594C252.835 175.737 252.999 175.844 253.18 175.907C253.394 176.226 253.71 176.452 254.069 176.544C253.686 177.515 254.602 178.356 255.504 178.327C255.611 178.494 255.753 178.634 255.918 178.735C256.083 178.836 256.268 178.897 256.458 178.912C256.649 178.928 256.84 178.897 257.018 178.823C257.195 178.75 257.355 178.634 257.485 178.486C259.699 176.076 261.486 173.264 262.761 170.183C262.9 169.86 262.93 169.496 262.846 169.153C262.761 168.809 262.567 168.507 262.296 168.299Z" fill="#FFB5A9"/>
<path d="M251.389 215.897C257.02 210.39 263.293 202.478 259.33 196.188C252.77 185.812 235.126 197.913 232.228 198.565C219.505 201.463 193.223 233.344 216.949 232.199C227.734 231.682 238.084 227.535 246.497 220.36C247.795 219.23 249.558 217.693 251.389 215.897Z" fill="#3E2928"/>
<path d="M251.213 215.675C251.377 215.113 251.733 214.638 252.211 214.341C254.453 213.001 256.9 212.088 259.441 211.646C259.828 211.547 260.234 211.557 260.617 211.674C261 211.791 261.348 212.011 261.627 212.313C262.625 202.328 259.304 196.155 259.304 196.155L250.475 216.443C250.735 216.196 250.953 215.935 251.213 215.675Z" fill="#3E2928"/>
<path d="M255.327 167.555C255.021 167.451 254.737 167.283 254.493 167.062L241.154 179.438C238.259 174.573 236.576 169.008 236.262 163.265C235.77 153.774 218.604 152.165 218.604 152.165L225.957 184.452C225.957 184.452 230.863 197.494 239.173 198.566C245.664 199.436 259.085 185.104 264.538 176.931C262.311 172.902 259.673 169.062 255.327 167.555Z" fill="#00A99D"/>
<path d="M210.526 141.254C204.419 146.859 199.805 154.064 197.146 162.151C192.431 175.976 204.225 198.582 204.225 198.582L222.594 183.192" fill="#006D62"/>
<path d="M196.08 216.647C195.951 219.392 196.593 222.115 197.925 224.473C199.627 227.328 202.204 229.477 205.223 230.559C208.984 231.911 212.957 232.477 216.921 232.225C225.122 231.66 232.187 227.632 238.16 222.081C237.025 206.793 232.953 196.127 229.481 190.91L207.259 179.535C207.396 179.535 202.927 189.012 202.722 189.519C200.432 195.184 198.665 201.071 197.446 207.097C196.706 210.227 196.248 213.425 196.08 216.647Z" fill="#3E2928"/>
<path d="M229.085 164.428L205.578 163.283L199.701 196.207C206.712 201.337 228.019 199.366 232.215 198.584C230.916 188.628 230.082 174.412 229.085 164.428Z" fill="#00A99D"/>
<path d="M229.318 150.137C231.144 147.48 232.448 144.462 233.152 141.26C233.857 138.059 233.947 134.74 233.418 131.501C232.53 124.922 229.099 119.459 222.485 118.27C212.234 116.444 204.786 125.617 204.95 135.877C205.032 141.601 205.62 145.471 201.643 147.862C197.666 150.253 194.809 156.556 198.581 161.599C202.353 166.642 198.964 164.831 196.436 169.323C193.907 173.816 194.563 179.467 199.757 181.496C204.95 183.525 229.072 179.714 231.286 177.323C232.074 176.368 232.481 175.126 232.42 173.859C231.854 170.671 230.218 167.809 227.815 165.802C225.86 164.056 224.248 161.919 223.072 159.513C221.145 155.296 227.049 153.223 229.318 150.137Z" fill="#FF8A00"/>
<path d="M433.857 276.685L440.923 272.975L435.729 269.845L433.857 276.685Z" fill="#C46200"/>
<path d="M397.393 179.471L405.962 174.891L404.95 181.384L399.62 183.065" fill="#C46200"/>
<path d="M444.299 268.713L460.522 210.95C460.943 209.449 460.873 207.841 460.325 206.387C459.777 204.932 458.782 203.717 457.501 202.936L411.895 175.185C411.017 174.663 410.039 174.362 409.034 174.306C408.029 174.249 407.025 174.438 406.101 174.858C405.176 175.278 404.355 175.919 403.7 176.729C403.046 177.54 402.577 178.499 402.328 179.533L387.855 239.078C387.496 240.565 387.612 242.136 388.183 243.546C388.754 244.956 389.748 246.126 391.012 246.874L434.869 272.843C435.728 273.34 436.68 273.626 437.657 273.682C438.634 273.738 439.61 273.561 440.514 273.165C441.418 272.769 442.227 272.164 442.882 271.394C443.537 270.623 444.021 269.707 444.299 268.713Z" fill="#C46200"/>
<path d="M436.672 272.773L452.895 215.01C453.316 213.509 453.247 211.901 452.699 210.447C452.151 208.992 451.156 207.777 449.875 206.997L404.268 179.246C403.391 178.723 402.412 178.422 401.407 178.366C400.402 178.309 399.399 178.498 398.474 178.918C397.549 179.338 396.728 179.979 396.074 180.789C395.419 181.6 394.95 182.559 394.701 183.593L380.228 243.138C379.869 244.625 379.985 246.196 380.556 247.606C381.127 249.016 382.121 250.186 383.385 250.934L427.242 276.903C428.101 277.399 429.054 277.686 430.03 277.742C431.007 277.797 431.983 277.621 432.887 277.225C433.791 276.829 434.6 276.224 435.255 275.453C435.91 274.683 436.394 273.767 436.672 272.773Z" fill="#FF8000"/>
<path d="M411.977 216.75L410.35 221.894L399.636 222.517L407.344 231.429L405.717 236.574L393.048 221.604L394.169 218.025L411.977 216.75Z" fill="white"/>
<path d="M427.446 223.686L440.101 238.67L438.981 242.235L421.187 243.525L422.813 238.366L433.514 237.743L425.82 228.845L427.446 223.686Z" fill="white"/>
<path d="M423.536 217.851L426.816 219.314L410.457 242.776L407.19 241.298L423.536 217.851Z" fill="white"/>
<path d="M295.261 76.2146V80.1128L264.538 61.1725V57.3757L295.261 76.2146Z" fill="#F7931E"/>
<path d="M383.698 130.42L298.28 78.0776V81.9903L383.015 134.159C383.247 132.927 383.466 131.609 383.698 130.42Z" fill="#00A99D"/>
<path d="M381.65 141.882L371.304 135.534V139.679L381.008 145.664C381.263 144.408 381.477 143.147 381.65 141.882Z" fill="#8CC63F"/>
<path d="M368.309 133.669V137.814L319.819 107.933V103.948L368.309 133.669Z" fill="#F7931E"/>
<path d="M316.758 102.077V106.048L285.038 86.4988V82.6296L316.758 102.077Z" fill="#F15A24"/>
<path d="M281.99 80.7602V84.6149L264.538 73.8623V70.0656L281.99 80.7602Z" fill="#8CC63F"/>
<path d="M379.668 153.205L297.339 102.745V106.658L378.916 156.914C379.162 155.683 379.422 154.451 379.668 153.205Z" fill="#00A99D"/>
<path d="M285.162 109.659V113.557L254.438 94.6313V90.8346L285.162 109.659Z" fill="#F7931E"/>
<path d="M373.613 163.896L288.223 111.553V115.466L372.957 167.634C373.162 166.403 373.381 165.142 373.613 163.896Z" fill="#00A99D"/>
<path d="M371.619 175.337L361.273 168.99V173.135L370.977 179.12C371.196 177.864 371.41 176.603 371.619 175.337Z" fill="#8CC63F"/>
<path d="M358.211 167.128V171.258L309.721 141.377V137.406L358.211 167.128Z" fill="#F7931E"/>
<path d="M306.672 135.536V139.492L274.952 119.957V116.088L306.672 135.536Z" fill="#F15A24"/>
<path d="M271.891 114.218V118.073L254.438 107.32V103.524L271.891 114.218Z" fill="#8CC63F"/>
<path d="M369.567 186.69L287.238 136.231V140.144L368.802 190.4C369.075 189.139 369.348 187.908 369.567 186.69Z" fill="#00A99D"/>
<path d="M241.633 85.1107L247.496 82.0386L243.191 79.4302L241.633 85.1107Z" fill="#066D0A"/>
<path d="M211.32 4.30818L218.44 0.496948L217.607 5.88773L213.165 7.2934" fill="#066D0A"/>
<path d="M250.31 78.5069L263.799 30.4825C264.147 29.2334 264.088 27.8964 263.632 26.687C263.176 25.4777 262.349 24.4665 261.284 23.8165L223.372 0.76074C222.644 0.320482 221.83 0.063763 220.993 0.0104382C220.156 -0.0428865 219.319 0.10861 218.546 0.453213C217.773 0.797816 217.085 1.32629 216.536 1.99777C215.986 2.66924 215.59 3.46572 215.377 4.32562L203.35 53.8281C203.052 55.0656 203.148 56.3729 203.622 57.5469C204.097 58.7209 204.924 59.6959 205.974 60.3203L242.438 81.9124C243.152 82.3294 243.944 82.5718 244.758 82.622C245.572 82.6721 246.386 82.5287 247.14 82.2023C247.895 81.8758 248.571 81.3745 249.12 80.7351C249.668 80.0958 250.075 79.3344 250.31 78.5069Z" fill="#066D0A"/>
<path d="M243.969 81.868L257.459 33.8434C257.807 32.5943 257.748 31.2572 257.292 30.0479C256.836 28.8385 256.008 27.8273 254.944 27.1774L217.032 4.09253C216.304 3.65227 215.49 3.39555 214.653 3.34223C213.816 3.2889 212.979 3.4404 212.206 3.785C211.433 4.12961 210.745 4.65808 210.196 5.32956C209.646 6.00104 209.25 6.79752 209.037 7.65741L197.01 57.1601C196.712 58.3976 196.807 59.7049 197.282 60.8789C197.756 62.0529 198.583 63.0279 199.634 63.6523L236.097 85.2445C236.809 85.6619 237.6 85.9054 238.413 85.9574C239.225 86.0094 240.038 85.8685 240.792 85.545C241.546 85.2214 242.223 84.7234 242.773 84.0873C243.322 83.4512 243.731 82.693 243.969 81.868Z" fill="#139E20"/>
<path d="M223.223 22.8688L221.925 27.2162L220.381 26.3902C220.151 26.2469 219.893 26.163 219.627 26.1454C219.361 26.1278 219.095 26.1769 218.85 26.2888C218.586 26.4314 218.357 26.6361 218.179 26.8873C218.001 27.1385 217.88 27.4295 217.825 27.7379L216.076 33.6504C215.905 34.2564 215.652 34.8325 215.324 35.3604C215.103 35.7444 214.804 36.0712 214.449 36.3168C214.191 36.4806 213.916 36.6119 213.629 36.7081C213.437 36.7845 213.232 36.8142 213.028 36.795H212.796L212.987 37.0124C213.129 37.2096 213.257 37.4179 213.37 37.6355C213.55 37.9675 213.687 38.3232 213.78 38.6934C213.872 39.1699 213.908 39.6566 213.889 40.1425C213.875 40.8121 213.769 41.476 213.575 42.1133L211.812 48.0548C211.594 48.6765 211.594 49.3605 211.812 49.9822C212.022 50.571 212.431 51.0562 212.96 51.3444L214.518 52.1993L213.151 56.5468L210.828 55.257C209.324 54.502 208.139 53.1791 207.506 51.5472C206.924 49.8134 206.924 47.9193 207.506 46.1854L209.447 39.9686C209.678 39.3144 209.678 38.594 209.447 37.9398C209.202 37.3055 208.744 36.7894 208.162 36.4907L209.351 32.4476C209.598 32.6119 209.876 32.7131 210.166 32.7433C210.455 32.7735 210.747 32.7318 211.019 32.6215C211.286 32.4797 211.519 32.2756 211.702 32.0247C211.884 31.7738 212.01 31.4824 212.071 31.1724L213.916 24.9411C214.082 24.1256 214.413 23.3577 214.884 22.6899C215.356 22.0221 215.958 21.4702 216.65 21.0719C217.349 20.794 218.101 20.6939 218.844 20.7794C219.586 20.865 220.3 21.1339 220.927 21.5646L223.223 22.8688Z" fill="white"/>
<path d="M243.613 34.1262C245.117 34.8813 246.301 36.2041 246.934 37.836C247.518 39.5647 247.518 41.4547 246.934 43.1833L244.98 49.4001C244.749 50.0543 244.749 50.7748 244.98 51.4289C245.227 52.0618 245.684 52.5771 246.265 52.8781L245.076 56.9212C244.831 56.7598 244.555 56.6591 244.269 56.6265C243.983 56.5939 243.693 56.6302 243.422 56.7328C243.154 56.8755 242.919 57.0795 242.735 57.3301C242.551 57.5808 242.421 57.8717 242.356 58.1819L240.524 64.3987C240.36 65.2169 240.031 65.9876 239.559 66.658C239.087 67.3284 238.484 67.8825 237.791 68.2824C237.091 68.5603 236.34 68.6604 235.597 68.5749C234.854 68.4893 234.141 68.2204 233.513 67.7897L231.19 66.5L232.557 62.1526L234.101 63.0075C234.33 63.1523 234.587 63.2394 234.852 63.262C235.117 63.2846 235.384 63.2422 235.632 63.138C235.884 63.0034 236.106 62.8116 236.28 62.5762C236.455 62.3408 236.579 62.0676 236.643 61.7758L238.406 55.8343C238.576 55.2237 238.829 54.6428 239.158 54.1098C239.377 53.7286 239.676 53.4062 240.032 53.1679C240.292 53.0216 240.562 52.8957 240.839 52.7911C241.037 52.703 241.254 52.673 241.467 52.7042H241.672L241.481 52.5013C241.343 52.3011 241.215 52.0931 241.098 51.8782C240.912 51.5447 240.773 51.1832 240.688 50.8058C240.597 50.3292 240.561 49.8426 240.579 49.3567C240.594 48.6871 240.7 48.0234 240.893 47.3858L242.643 41.4734C242.857 40.841 242.857 40.1494 242.643 39.517C242.45 38.8957 242.039 38.3769 241.495 38.0679L239.95 37.2129L241.249 32.8655L243.613 34.1262Z" fill="white"/>
<path d="M237.177 39.938L229.756 46.0534L232.175 58.0523L227.651 55.5453L226.065 48.0822L221.132 51.9369L216.622 49.4444L224.466 43.1262L222.225 31.6635L226.913 34.2574L228.129 41.1118L232.503 37.3441L237.177 39.938Z" fill="white"/>
<defs>
<filter id="filter0_di_1155_2451" x="0" y="79.9075" width="512" height="330.092" filterUnits="userSpaceOnUse" color-interpolation-filters="sRGB">
<feFlood flood-opacity="0" result="BackgroundImageFix"/>
<feColorMatrix in="SourceAlpha" type="matrix" values="0 0 0 0 0 0 0 0 0 0 0 0 0 0 0 0 0 0 127 0" result="hardAlpha"/>
<feOffset dy="14"/>
<feGaussianBlur stdDeviation="8"/>
<feColorMatrix type="matrix" values="0 0 0 0 0 0 0 0 0 0 0 0 0 0 0 0 0 0 0.25 0"/>
<feBlend mode="normal" in2="BackgroundImageFix" result="effect1_dropShadow_1155_2451"/>
<feBlend mode="normal" in="SourceGraphic" in2="effect1_dropShadow_1155_2451" result="shape"/>
<feColorMatrix in="SourceAlpha" type="matrix" values="0 0 0 0 0 0 0 0 0 0 0 0 0 0 0 0 0 0 127 0" result="hardAlpha"/>
<feOffset dx="2" dy="5"/>
<feGaussianBlur stdDeviation="6"/>
<feComposite in2="hardAlpha" operator="arithmetic" k2="-1" k3="1"/>
<feColorMatrix type="matrix" values="0 0 0 0 0.116302 0 0 0 0 0.183029 0 0 0 0 0.3625 0 0 0 0.35 0"/>
<feBlend mode="normal" in2="shape" result="effect2_innerShadow_1155_2451"/>
</filter>
</defs>
</svg>
