<svg width="89" height="34" viewBox="0 0 89 34" fill="none" xmlns="http://www.w3.org/2000/svg">
<path d="M39.5415 30.867V26.8589H42.5743V27.3321H40.0966V28.5586H42.4157V29.0295H40.0966V30.3938H42.6704V30.867H39.5415Z" fill="#0A172B"/>
<path d="M45.343 30.867V30.5018C45.255 30.6398 45.1298 30.7526 44.9806 30.8286C44.8314 30.9045 44.6636 30.9408 44.4947 30.9336C44.2561 30.9344 44.0227 30.8672 43.8242 30.7407C43.6141 30.6105 43.4473 30.4256 43.3436 30.2078C43.2278 29.9594 43.1712 29.6895 43.1778 29.4177C43.1728 29.148 43.2243 28.8802 43.3292 28.6298C43.418 28.4078 43.5767 28.2176 43.7834 28.0854C43.9851 27.9606 44.2207 27.8951 44.461 27.8971C44.624 27.8951 44.7852 27.9303 44.9311 27.9998C45.0769 28.0693 45.2033 28.1711 45.2998 28.2968V26.8589H45.8116V30.867H45.343ZM43.7161 29.4177C43.691 29.7139 43.7761 30.0092 43.9564 30.2514C44.025 30.3368 44.113 30.4061 44.2138 30.4542C44.3145 30.5024 44.4253 30.5281 44.538 30.5294C44.6481 30.53 44.7569 30.5065 44.856 30.4607C44.9552 30.415 45.042 30.3481 45.1099 30.2652C45.2875 30.0322 45.3727 29.7465 45.3502 29.459C45.3754 29.1498 45.2908 28.8414 45.1099 28.5839C45.0403 28.4968 44.9504 28.4263 44.8474 28.3781C44.7444 28.3298 44.631 28.3051 44.5163 28.3059C44.4056 28.3052 44.2962 28.3289 44.1966 28.3751C44.097 28.4213 44.0099 28.4888 43.942 28.5724C43.7701 28.8221 43.6905 29.1197 43.7161 29.4177Z" fill="#0A172B"/>
<path d="M48.625 30.867V30.4398C48.5225 30.5939 48.3803 30.7203 48.2119 30.8068C48.0436 30.8933 47.8548 30.937 47.6638 30.9336C47.4902 30.9342 47.3184 30.9006 47.1591 30.8349C47.0238 30.7823 46.9047 30.6978 46.813 30.5891C46.7339 30.4788 46.6807 30.3534 46.6568 30.2216C46.6314 30.0697 46.6209 29.9159 46.6256 29.7622V27.9637H47.1399V29.5716C47.1335 29.7451 47.144 29.9189 47.1711 30.0907C47.1982 30.214 47.2718 30.3235 47.3778 30.3985C47.4922 30.4733 47.6286 30.5111 47.7671 30.5064C47.92 30.5069 48.0703 30.4681 48.2021 30.3939C48.3307 30.3247 48.4314 30.2163 48.488 30.0861C48.5522 29.9027 48.5807 29.7096 48.5722 29.5164V27.9614H49.0888V30.8647L48.625 30.867Z" fill="#0A172B"/>
<path d="M51.8793 29.8034L52.3864 29.8654C52.3483 30.1682 52.1962 30.4474 51.9586 30.6509C51.7256 30.8415 51.4265 30.9423 51.1199 30.9334C50.9333 30.9404 50.7472 30.9094 50.574 30.8425C50.4009 30.7755 50.2445 30.6742 50.1154 30.5453C49.8447 30.2322 49.7097 29.8319 49.7381 29.4267C49.7322 29.1439 49.7878 28.8631 49.9015 28.6021C49.9995 28.3783 50.1741 28.1928 50.3966 28.0761C50.6167 27.958 50.8651 27.8963 51.1175 27.8969C51.4072 27.8813 51.6935 27.9625 51.9274 28.1266C52.1485 28.299 52.2929 28.5453 52.3311 28.8157L51.8312 28.8892C51.7988 28.7203 51.7093 28.5662 51.5765 28.4505C51.4549 28.351 51.2992 28.2979 51.1391 28.3012C51.0194 28.2976 50.9004 28.3199 50.791 28.3664C50.6815 28.413 50.5845 28.4825 50.5071 28.5699C50.3237 28.8142 50.2384 29.1134 50.2668 29.4129C50.2417 29.7142 50.3266 30.0145 50.5071 30.2627C50.5812 30.3489 50.6749 30.4177 50.7812 30.4639C50.8874 30.5101 51.0033 30.5324 51.1199 30.5292C51.3068 30.5346 51.4887 30.4703 51.627 30.35C51.7751 30.2014 51.8643 30.0081 51.8793 29.8034Z" fill="#0A172B"/>
<path d="M54.8095 30.5088C54.6466 30.6481 54.4596 30.7593 54.2567 30.8372C54.0756 30.9027 53.8833 30.9354 53.6896 30.9337C53.4122 30.9516 53.1379 30.8697 52.9206 30.704C52.8272 30.6203 52.7546 30.5177 52.7081 30.4037C52.6615 30.2898 52.6423 30.1673 52.6518 30.0452C52.6612 29.9232 52.6991 29.8048 52.7627 29.6986C52.8262 29.5924 52.9138 29.5011 53.0191 29.4315C53.1326 29.3592 53.2576 29.3049 53.3892 29.2707C53.5402 29.2359 53.6936 29.2113 53.8482 29.1972C54.1592 29.1688 54.4666 29.1118 54.7662 29.0272C54.7662 28.9583 54.7662 28.917 54.7662 28.8986C54.7747 28.8221 54.7662 28.7447 54.7414 28.6715C54.7165 28.5983 54.6759 28.5309 54.622 28.4737C54.4531 28.3524 54.244 28.2937 54.0332 28.3083C53.8457 28.2943 53.6582 28.3369 53.4973 28.43C53.3631 28.5409 53.2732 28.6926 53.2426 28.8596L52.7379 28.7953C52.7713 28.6145 52.8487 28.4438 52.9638 28.2968C53.0832 28.1599 53.2407 28.058 53.418 28.0028C53.64 27.9305 53.8733 27.8956 54.1077 27.8995C54.3229 27.8934 54.5375 27.9229 54.7422 27.9867C54.8798 28.032 55.0025 28.1113 55.0978 28.2164C55.1792 28.3132 55.2345 28.4275 55.2589 28.5495C55.281 28.7017 55.2898 28.8553 55.2853 29.0089V29.6635C55.2773 29.954 55.2877 30.2447 55.3165 30.534C55.3407 30.6557 55.3854 30.7728 55.4487 30.8809H54.9128C54.8541 30.7642 54.819 30.6379 54.8095 30.5088ZM54.7662 29.4108C54.4937 29.5018 54.2117 29.5641 53.9251 29.5969C53.7717 29.6114 53.6208 29.6438 53.4757 29.6934C53.3926 29.7268 53.3222 29.7837 53.2738 29.8564C53.2261 29.9243 53.2009 30.0044 53.2017 30.0861C53.2003 30.1483 53.2134 30.2101 53.24 30.2669C53.2666 30.3237 53.3061 30.3741 53.3555 30.4146C53.4869 30.51 53.65 30.5565 53.8146 30.5455C53.9991 30.5487 54.1812 30.5059 54.3433 30.4215C54.4913 30.3438 54.6105 30.2243 54.6845 30.0792C54.7479 29.9228 54.7757 29.7552 54.7662 29.5877V29.4108Z" fill="#0A172B"/>
<path d="M57.2117 30.426L57.2862 30.8624C57.1584 30.8901 57.0279 30.9048 56.8969 30.9061C56.751 30.9136 56.6056 30.886 56.4739 30.8257C56.3762 30.7753 56.2998 30.6941 56.2576 30.596C56.2026 30.407 56.1815 30.2106 56.1951 30.0149V28.345H55.8154V27.9637H56.1951V27.2425L56.707 26.9485V27.9637H57.2237V28.345H56.707V30.0447C56.7013 30.1357 56.7094 30.227 56.731 30.3158C56.7508 30.3545 56.7817 30.3872 56.82 30.4099C56.8746 30.4376 56.9361 30.4503 56.9978 30.4467C57.0695 30.4445 57.141 30.4376 57.2117 30.426Z" fill="#0A172B"/>
<path d="M57.7217 27.4239V26.8589H58.236V27.4239H57.7217ZM57.7217 30.8693V27.9637H58.236V30.867L57.7217 30.8693Z" fill="#0A172B"/>
<path d="M58.8326 29.4153C58.8326 28.8779 58.9888 28.4782 59.3012 28.2209C59.5684 28.0026 59.9111 27.8872 60.2624 27.8971C60.4523 27.892 60.6411 27.9251 60.8167 27.9944C60.9922 28.0636 61.1506 28.1674 61.2814 28.299C61.42 28.4448 61.5267 28.6156 61.5952 28.8014C61.6637 28.9872 61.6927 29.1842 61.6803 29.3809C61.6949 29.6849 61.634 29.988 61.5025 30.2652C61.3897 30.4772 61.2109 30.6506 60.9906 30.7613C60.7702 30.8789 60.522 30.9406 60.2697 30.9405C60.0783 30.9477 59.8874 30.9165 59.7094 30.8488C59.5314 30.7812 59.3702 30.6786 59.2363 30.5477C59.0943 30.3936 58.9856 30.2143 58.9163 30.02C58.847 29.8257 58.8186 29.6202 58.8326 29.4153ZM59.3613 29.4153C59.3383 29.7142 59.4288 30.011 59.616 30.2514C59.6956 30.339 59.794 30.4093 59.9045 30.4574C60.015 30.5056 60.135 30.5305 60.2564 30.5305C60.3779 30.5305 60.4979 30.5056 60.6084 30.4574C60.7189 30.4093 60.8173 30.339 60.8969 30.2514C61.0853 30.0063 61.1757 29.7048 61.1516 29.4016C61.1741 29.1084 61.0816 28.8177 60.8921 28.5861C60.815 28.4972 60.718 28.426 60.6081 28.3778C60.4983 28.3297 60.3785 28.3059 60.2576 28.3082C60.136 28.3059 60.0154 28.3294 59.9044 28.3771C59.7934 28.4248 59.6949 28.4954 59.616 28.5838C59.4282 28.8223 59.3369 29.1176 59.3589 29.4153H59.3613Z" fill="#0A172B"/>
<path d="M62.2852 30.8671V27.9638H62.749V28.3749C62.8523 28.2227 62.9952 28.0986 63.1637 28.0149C63.3322 27.9311 63.5205 27.8906 63.7102 27.8972C63.8829 27.8952 64.0541 27.928 64.2125 27.9936C64.3497 28.0429 64.4696 28.1281 64.5586 28.2394C64.6383 28.3482 64.6932 28.4719 64.7196 28.6023C64.7435 28.7613 64.7532 28.9219 64.7484 29.0824V30.8671H64.2341V29.1008C64.2426 28.9453 64.2214 28.7896 64.1716 28.6414C64.1301 28.5436 64.0545 28.4625 63.9578 28.4117C63.8497 28.35 63.7255 28.3189 63.5997 28.3221C63.3904 28.3187 63.1874 28.3899 63.0301 28.5219C62.8715 28.6552 62.7898 28.9078 62.7898 29.2799V30.8648L62.2852 30.8671Z" fill="#0A172B"/>
<path d="M69.1611 29.8035L69.6681 29.8655C69.6309 30.1681 69.4797 30.4473 69.2428 30.6511C69.0095 30.8413 68.7106 30.942 68.4041 30.9336C68.2174 30.9405 68.0314 30.9095 67.8582 30.8426C67.685 30.7757 67.5287 30.6744 67.3996 30.5454C67.1289 30.2323 66.9939 29.8321 67.0223 29.4268C67.0151 29.144 67.0708 28.863 67.1857 28.6022C67.2837 28.3784 67.4582 28.193 67.6807 28.0762C67.9005 27.9572 68.1491 27.8954 68.4017 27.8971C68.6913 27.8818 68.9775 27.963 69.2115 28.1268C69.4311 28.3005 69.575 28.5462 69.6153 28.8158L69.1154 28.8893C69.082 28.7208 68.9927 28.5669 68.8607 28.4506C68.7384 28.3506 68.5818 28.2975 68.4209 28.3013C68.3012 28.2979 68.1822 28.3203 68.0728 28.3668C67.9634 28.4133 67.8664 28.4828 67.7889 28.5701C67.6066 28.8149 67.5214 29.1137 67.5486 29.413C67.5234 29.7144 67.6084 30.0147 67.7889 30.2629C67.8627 30.3488 67.9561 30.4174 68.0618 30.4636C68.1676 30.5098 68.283 30.5322 68.3993 30.5293C68.5862 30.5347 68.768 30.4705 68.9063 30.3502C69.0562 30.2025 69.1464 30.0088 69.1611 29.8035Z" fill="#0A172B"/>
<path d="M69.9171 29.4156C69.9171 28.8781 70.0733 28.4785 70.3857 28.2212C70.6527 28.0025 70.9955 27.887 71.347 27.8973C71.5371 27.8907 71.7265 27.9225 71.9029 27.9905C72.0793 28.0586 72.2387 28.1615 72.3707 28.2924C72.5089 28.4385 72.6153 28.6094 72.6838 28.7951C72.7523 28.9808 72.7815 29.1777 72.7697 29.3743C72.7843 29.6783 72.7233 29.9814 72.5918 30.2586C72.4771 30.4692 72.2987 30.6421 72.08 30.7547C71.856 30.8742 71.6034 30.9359 71.347 30.9339C71.1556 30.9412 70.9647 30.9101 70.7866 30.8424C70.6086 30.7748 70.4475 30.6721 70.3136 30.5411C70.0313 30.2306 69.8888 29.8261 69.9171 29.4156ZM70.4458 29.4156C70.4218 29.7146 70.5123 30.0118 70.7005 30.2517C70.7794 30.3405 70.8778 30.4114 70.9887 30.4595C71.0997 30.5075 71.2204 30.5315 71.3422 30.5296C71.4635 30.5315 71.5837 30.5073 71.694 30.4588C71.8042 30.4103 71.9016 30.3387 71.979 30.2494C72.1686 30.0049 72.2591 29.7029 72.2338 29.3995C72.2572 29.1066 72.1655 28.8159 71.9766 28.5841C71.8992 28.4955 71.8021 28.4246 71.6923 28.3765C71.5826 28.3284 71.4629 28.3044 71.3422 28.3062C71.2206 28.3039 71.0999 28.3274 70.9889 28.3751C70.878 28.4227 70.7795 28.4934 70.7005 28.5818C70.5119 28.8207 70.4212 29.1173 70.4458 29.4156Z" fill="#0A172B"/>
<path d="M73.3706 30.8669V27.9636H73.832V28.3702C73.9306 28.2229 74.0669 28.1022 74.228 28.0194C74.389 27.9366 74.5696 27.8945 74.7524 27.897C74.9462 27.89 75.138 27.9362 75.3052 28.0302C75.449 28.1187 75.5567 28.2517 75.6104 28.4069C75.7072 28.2513 75.8447 28.1224 76.0095 28.033C76.1742 27.9436 76.3605 27.8967 76.55 27.897C76.6761 27.8875 76.8028 27.903 76.9224 27.9425C77.0419 27.982 77.1515 28.0448 77.2445 28.1267C77.4227 28.3319 77.5091 28.596 77.4848 28.8617V30.8554H76.9729V29.0179C76.9803 28.8746 76.9633 28.7311 76.9225 28.593C76.8888 28.5053 76.8253 28.4309 76.7422 28.3817C76.6488 28.328 76.5412 28.3009 76.4322 28.3036C76.3338 28.3012 76.2359 28.3181 76.1445 28.3532C76.0532 28.3884 75.9704 28.441 75.9011 28.508C75.8223 28.5979 75.7629 28.7018 75.7262 28.8138C75.6895 28.9257 75.6762 29.0435 75.6873 29.1603V30.8462H75.173V28.988C75.1861 28.815 75.1424 28.6424 75.048 28.4942C74.9981 28.437 74.9344 28.3923 74.8624 28.3639C74.7904 28.3355 74.7122 28.3243 74.6347 28.3311C74.4923 28.331 74.3526 28.3684 74.2309 28.4391C74.1082 28.5155 74.0153 28.6286 73.9666 28.7606C73.9024 28.9567 73.874 29.1618 73.8825 29.367V30.8738L73.3706 30.8669Z" fill="#0A172B"/>
<path d="M78.252 31.9741V27.9637H78.7326V28.3404C78.8293 28.2049 78.9566 28.0918 79.1051 28.0096C79.261 27.9306 79.4358 27.8918 79.6121 27.8971C79.8561 27.8932 80.0956 27.9596 80.2995 28.0877C80.5019 28.2221 80.6583 28.4107 80.7488 28.6298C80.8518 28.8719 80.9032 29.1311 80.9002 29.3924C80.9055 29.6688 80.8481 29.943 80.732 30.1963C80.6353 30.4133 80.4744 30.5987 80.2691 30.7297C80.0637 30.8606 79.8229 30.9315 79.5761 30.9336C79.4147 30.9362 79.2552 30.8998 79.1123 30.8279C78.983 30.7639 78.8693 30.6747 78.7782 30.5661V31.9741H78.252ZM78.7182 29.4245C78.6943 29.7193 78.7793 30.0127 78.9585 30.2537C79.0261 30.3377 79.1132 30.4057 79.2128 30.4523C79.3124 30.4989 79.4219 30.5229 79.5328 30.5225C79.6466 30.522 79.7588 30.4968 79.8609 30.4486C79.9629 30.4004 80.0521 30.3306 80.1216 30.2445C80.3037 29.9927 80.3887 29.6882 80.3619 29.3832C80.3856 29.0877 80.3006 28.7937 80.1216 28.5517C80.0552 28.4671 79.9693 28.3982 79.8705 28.3504C79.7717 28.3026 79.6628 28.2771 79.5521 28.2761C79.4375 28.2793 79.3252 28.3078 79.2239 28.3592C79.1227 28.4105 79.0351 28.4835 78.9681 28.5724C78.7822 28.822 78.6938 29.1259 78.7182 29.4314V29.4245Z" fill="#0A172B"/>
<path d="M81.5029 30.867V26.8589H82.0172V30.867H81.5029Z" fill="#0A172B"/>
<path d="M84.8984 29.9322L85.4319 29.9942C85.3619 30.2681 85.1967 30.5111 84.9632 30.6833C84.6707 30.8649 84.3235 30.949 83.9758 30.9224C83.6281 30.8958 83.2993 30.76 83.0407 30.5363C82.7653 30.2324 82.6256 29.8374 82.6514 29.4361C82.6215 29.0188 82.7629 28.6069 83.0455 28.2876C83.1766 28.1542 83.3359 28.0492 83.5129 27.9795C83.6898 27.9097 83.8804 27.877 84.0717 27.8834C84.2599 27.8792 84.4468 27.9142 84.6194 27.986C84.7921 28.0578 84.9463 28.1646 85.0714 28.2991C85.346 28.6096 85.4846 29.0095 85.4583 29.4154C85.4583 29.443 85.4583 29.4866 85.4583 29.5463H83.1945C83.1925 29.815 83.2924 30.0753 83.4757 30.279C83.5571 30.3619 83.6559 30.4275 83.7656 30.4714C83.8754 30.5154 83.9936 30.5367 84.1125 30.534C84.2846 30.5375 84.4533 30.4875 84.5932 30.3916C84.7399 30.2704 84.846 30.1106 84.8984 29.9322ZM83.2161 29.1375H84.9128C84.9088 28.9389 84.8408 28.7464 84.7181 28.5862C84.6421 28.495 84.5451 28.4218 84.4346 28.3724C84.3242 28.323 84.2032 28.2987 84.0813 28.3014C83.9705 28.2994 83.8605 28.3187 83.7577 28.3582C83.6549 28.3976 83.5614 28.4564 83.4829 28.5311C83.3152 28.6934 83.2167 28.9096 83.2065 29.1375H83.2161Z" fill="#0A172B"/>
<path d="M85.7378 30.867L86.8481 29.358L85.8195 27.9637H86.4636L86.9298 28.6528C87.0187 28.7837 87.0884 28.8825 87.1436 28.979C87.2254 28.8595 87.3047 28.7493 87.384 28.6574L87.8958 27.9683H88.511L87.4609 29.3465L88.5928 30.8831H87.9559L87.3335 29.9804L87.1677 29.737L86.3698 30.8854L85.7378 30.867Z" fill="#0A172B"/>
<path d="M31.4984 25.1132V7.9093L15.748 16.4378V33.7496L31.4984 25.1132Z" fill="#F0CC0D"/>
<path d="M15.8201 0L0 7.90932L15.7479 16.4378L31.4983 7.90932L15.8201 0Z" fill="#FFEB3C"/>
<path d="M0 25.2579V7.9093L15.7479 16.4348V34L0 25.2579Z" fill="#FFE600"/>
<path d="M43.5862 23.2458H40.8394V5.69275H43.5862V23.2458ZM58.2623 8.01493H55.2367V23.2458H52.5019V8.01493H49.4739V5.69275H58.2623V8.01493Z" fill="#2967C4"/>
<path d="M71.7318 23.2458H64.1162V5.69275H71.6622V8.01493H66.8558V13.1394H70.9869V15.4156H66.863V20.9282H71.7318V23.2458ZM87.1121 21.638C87.1121 22.7099 86.5513 23.2458 85.4299 23.2458H79.6983C78.6121 23.2458 78.0682 22.7099 78.0666 21.638V7.30978C78.0666 6.23788 78.6105 5.70194 79.6983 5.70194H85.4251C86.5465 5.70194 87.1073 6.23788 87.1073 7.30978V11.4144H84.3677V7.94832H80.8134V20.9925H84.3677V17.3014H87.1025L87.1121 21.638Z" fill="#001C47"/>
</svg>
