<svg width="78" height="30" viewBox="0 0 78 30" fill="none" xmlns="http://www.w3.org/2000/svg">
<path d="M34.8135 27.3041V23.856H37.4837V24.263H35.3022V25.3182H37.344V25.7233H35.3022V26.8971H37.5683V27.3041H34.8135Z" fill="#BFD9FF"/>
<path d="M39.9214 27.3041V26.9899C39.8439 27.1086 39.7337 27.2057 39.6023 27.2711C39.4709 27.3364 39.3232 27.3676 39.1745 27.3614C38.9644 27.3621 38.7589 27.3043 38.5842 27.1955C38.3992 27.0835 38.2523 26.9244 38.161 26.737C38.0591 26.5233 38.0092 26.2911 38.015 26.0573C38.0106 25.8253 38.0559 25.5949 38.1483 25.3795C38.2265 25.1885 38.3662 25.0249 38.5482 24.9112C38.7258 24.8038 38.9333 24.7474 39.1448 24.7491C39.2883 24.7474 39.4302 24.7777 39.5587 24.8375C39.6871 24.8973 39.7984 24.9849 39.8833 25.093V23.856H40.3339V27.3041H39.9214ZM38.4889 26.0573C38.4669 26.3122 38.5418 26.5662 38.7005 26.7746C38.761 26.848 38.8384 26.9076 38.9271 26.949C39.0158 26.9904 39.1134 27.0125 39.2126 27.0137C39.3095 27.0142 39.4053 26.994 39.4926 26.9546C39.5799 26.9152 39.6563 26.8577 39.7161 26.7864C39.8725 26.586 39.9475 26.3401 39.9277 26.0928C39.9499 25.8268 39.8754 25.5615 39.7161 25.34C39.6548 25.265 39.5757 25.2044 39.485 25.1629C39.3943 25.1214 39.2945 25.1002 39.1935 25.1009C39.096 25.1002 38.9997 25.1206 38.912 25.1603C38.8243 25.2001 38.7476 25.2582 38.6878 25.3301C38.5365 25.5449 38.4665 25.8009 38.4889 26.0573Z" fill="#BFD9FF"/>
<path d="M42.8114 27.304V26.9365C42.7211 27.0691 42.5959 27.1778 42.4477 27.2522C42.2995 27.3266 42.1333 27.3642 41.965 27.3613C41.8123 27.3618 41.661 27.3329 41.5207 27.2764C41.4016 27.2312 41.2967 27.1584 41.216 27.0649C41.1464 26.97 41.0995 26.8622 41.0785 26.7488C41.0561 26.6181 41.0469 26.4858 41.051 26.3536V24.8063H41.5038V26.1896C41.4982 26.3389 41.5074 26.4884 41.5313 26.6361C41.5552 26.7422 41.6199 26.8365 41.7133 26.9009C41.814 26.9653 41.9341 26.9978 42.056 26.9938C42.1907 26.9943 42.323 26.9608 42.439 26.897C42.5522 26.8374 42.6409 26.7442 42.6908 26.6322C42.7472 26.4744 42.7723 26.3083 42.7648 26.1421V24.8044H43.2197V27.3021L42.8114 27.304Z" fill="#BFD9FF"/>
<path d="M45.6763 26.3891L46.1228 26.4425C46.0892 26.703 45.9554 26.9432 45.7462 27.1183C45.541 27.2823 45.2777 27.3689 45.0077 27.3613C44.8434 27.3673 44.6796 27.3406 44.5271 27.283C44.3747 27.2255 44.237 27.1383 44.1233 27.0274C43.885 26.758 43.7662 26.4137 43.7911 26.065C43.7859 25.8218 43.8349 25.5802 43.935 25.3556C44.0213 25.1631 44.175 25.0036 44.3709 24.9031C44.5647 24.8016 44.7834 24.7485 45.0056 24.749C45.2607 24.7356 45.5127 24.8054 45.7187 24.9466C45.9134 25.0949 46.0405 25.3069 46.0741 25.5394L45.634 25.6027C45.6054 25.4573 45.5267 25.3248 45.4097 25.2252C45.3026 25.1397 45.1656 25.0939 45.0247 25.0968C44.9193 25.0937 44.8145 25.1129 44.7181 25.1529C44.6218 25.193 44.5363 25.2528 44.4682 25.328C44.3067 25.5381 44.2316 25.7956 44.2566 26.0532C44.2345 26.3124 44.3093 26.5708 44.4682 26.7843C44.5334 26.8585 44.616 26.9177 44.7095 26.9574C44.803 26.9971 44.905 27.0163 45.0077 27.0135C45.1723 27.0182 45.3324 26.9629 45.4542 26.8594C45.5846 26.7316 45.6631 26.5652 45.6763 26.3891Z" fill="#BFD9FF"/>
<path d="M48.2558 26.9959C48.1124 27.1158 47.9477 27.2114 47.7691 27.2785C47.6096 27.3348 47.4403 27.3629 47.2698 27.3615C47.0256 27.3769 46.7841 27.3064 46.5927 27.1639C46.5105 27.0919 46.4466 27.0036 46.4056 26.9056C46.3647 26.8075 46.3477 26.7021 46.3561 26.5971C46.3644 26.4922 46.3977 26.3903 46.4537 26.2989C46.5097 26.2075 46.5868 26.129 46.6795 26.0691C46.7794 26.0069 46.8895 25.9602 47.0053 25.9308C47.1383 25.9009 47.2733 25.8797 47.4095 25.8676C47.6833 25.8431 47.9539 25.7941 48.2177 25.7214C48.2177 25.6621 48.2177 25.6265 48.2177 25.6107C48.2252 25.5449 48.2177 25.4783 48.1958 25.4153C48.174 25.3523 48.1382 25.2944 48.0907 25.2451C47.942 25.1408 47.7579 25.0903 47.5724 25.1029C47.4072 25.0908 47.2422 25.1274 47.1005 25.2076C46.9824 25.3029 46.9032 25.4335 46.8763 25.5771L46.4319 25.5218C46.4613 25.3663 46.5295 25.2194 46.6308 25.093C46.736 24.9752 46.8746 24.8875 47.0307 24.84C47.2261 24.7779 47.4316 24.7478 47.638 24.7511C47.8274 24.7459 48.0164 24.7713 48.1965 24.8262C48.3177 24.8652 48.4258 24.9334 48.5097 25.0238C48.5813 25.107 48.63 25.2054 48.6514 25.3103C48.6709 25.4413 48.6787 25.5734 48.6747 25.7056V26.2687C48.6677 26.5186 48.6769 26.7687 48.7022 27.0176C48.7235 27.1223 48.7628 27.2231 48.8186 27.316H48.3468C48.2951 27.2156 48.2642 27.107 48.2558 26.9959ZM48.2177 26.0514C47.9778 26.1296 47.7295 26.1833 47.4772 26.2114C47.3421 26.2239 47.2093 26.2518 47.0815 26.2944C47.0083 26.3232 46.9463 26.3721 46.9038 26.4347C46.8617 26.4931 46.8396 26.562 46.8403 26.6323C46.8391 26.6858 46.8506 26.7389 46.874 26.7878C46.8974 26.8367 46.9321 26.8801 46.9757 26.9149C47.0913 26.997 47.235 27.037 47.3798 27.0275C47.5423 27.0302 47.7027 26.9935 47.8453 26.9208C47.9756 26.854 48.0806 26.7512 48.1458 26.6264C48.2016 26.4918 48.2261 26.3476 48.2177 26.2035V26.0514Z" fill="#BFD9FF"/>
<path d="M50.3713 26.9246L50.4368 27.3001C50.3243 27.3239 50.2094 27.3365 50.0941 27.3376C49.9657 27.3441 49.8376 27.3203 49.7217 27.2684C49.6357 27.2251 49.5684 27.1553 49.5313 27.0708C49.4828 26.9083 49.4642 26.7393 49.4763 26.5709V25.1343H49.142V24.8063H49.4763V24.1858L49.9269 23.9329V24.8063H50.3818V25.1343H49.9269V26.5966C49.9219 26.6749 49.929 26.7534 49.9481 26.8298C49.9655 26.8631 49.9927 26.8912 50.0264 26.9108C50.0745 26.9346 50.1286 26.9455 50.1829 26.9424C50.2461 26.9405 50.309 26.9346 50.3713 26.9246Z" fill="#BFD9FF"/>
<path d="M50.8197 24.3421V23.856H51.2725V24.3421H50.8197ZM50.8197 27.3061V24.8064H51.2725V27.3041L50.8197 27.3061Z" fill="#BFD9FF"/>
<path d="M51.7973 26.0551C51.7973 25.5927 51.9349 25.2489 52.2099 25.0276C52.4452 24.8398 52.7469 24.7405 53.0562 24.749C53.2234 24.7446 53.3897 24.7731 53.5442 24.8327C53.6988 24.8923 53.8382 24.9816 53.9534 25.0948C54.0754 25.2202 54.1693 25.3671 54.2297 25.527C54.29 25.6868 54.3155 25.8563 54.3046 26.0255C54.3175 26.2871 54.2638 26.5478 54.148 26.7863C54.0487 26.9687 53.8913 27.1178 53.6973 27.2131C53.5033 27.3142 53.2848 27.3673 53.0626 27.3672C52.8941 27.3734 52.726 27.3466 52.5693 27.2884C52.4126 27.2302 52.2707 27.1419 52.1528 27.0293C52.0278 26.8968 51.9321 26.7425 51.8711 26.5753C51.8101 26.4081 51.785 26.2314 51.7973 26.0551ZM52.2628 26.0551C52.2426 26.3123 52.3222 26.5676 52.4871 26.7744C52.5572 26.8498 52.6438 26.9102 52.7411 26.9516C52.8384 26.9931 52.944 27.0145 53.051 27.0145C53.1579 27.0145 53.2635 26.9931 53.3608 26.9516C53.4581 26.9102 53.5447 26.8498 53.6148 26.7744C53.7807 26.5636 53.8603 26.3042 53.8391 26.0433C53.8589 25.791 53.7774 25.541 53.6106 25.3418C53.5428 25.2652 53.4573 25.204 53.3606 25.1626C53.2639 25.1212 53.1584 25.1007 53.052 25.1027C52.9449 25.1007 52.8387 25.1209 52.741 25.1619C52.6433 25.2029 52.5566 25.2637 52.4871 25.3398C52.3218 25.545 52.2414 25.799 52.2607 26.0551H52.2628Z" fill="#BFD9FF"/>
<path d="M54.8377 27.3041V24.8064H55.246V25.1601C55.337 25.0291 55.4628 24.9223 55.6111 24.8503C55.7595 24.7783 55.9253 24.7434 56.0923 24.7491C56.2444 24.7473 56.3951 24.7756 56.5345 24.8321C56.6553 24.8744 56.7609 24.9477 56.8392 25.0435C56.9095 25.1371 56.9578 25.2435 56.981 25.3557C57.0021 25.4924 57.0106 25.6306 57.0064 25.7687V27.3041H56.5536V25.7845C56.5611 25.6507 56.5424 25.5168 56.4986 25.3893C56.462 25.3052 56.3955 25.2354 56.3103 25.1917C56.2151 25.1386 56.1058 25.1119 55.995 25.1146C55.8108 25.1117 55.632 25.173 55.4936 25.2865C55.3539 25.4011 55.282 25.6185 55.282 25.9386V27.3021L54.8377 27.3041Z" fill="#BFD9FF"/>
<path d="M60.8912 26.3892L61.3376 26.4426C61.3048 26.7028 61.1717 26.9431 60.9632 27.1184C60.7578 27.282 60.4946 27.3686 60.2247 27.3614C60.0604 27.3674 59.8966 27.3407 59.7441 27.2832C59.5917 27.2256 59.454 27.1384 59.3403 27.0275C59.102 26.7581 58.9831 26.4138 59.0081 26.0652C59.0018 25.8218 59.0509 25.5801 59.152 25.3558C59.2383 25.1632 59.392 25.0037 59.5879 24.9032C59.7813 24.8008 60.0002 24.7477 60.2226 24.7491C60.4776 24.736 60.7296 24.8058 60.9356 24.9467C61.1289 25.0962 61.2556 25.3075 61.2911 25.5395L60.851 25.6028C60.8216 25.4577 60.7429 25.3254 60.6267 25.2253C60.5191 25.1393 60.3812 25.0936 60.2395 25.0969C60.1341 25.094 60.0294 25.1132 59.9331 25.1532C59.8367 25.1933 59.7513 25.253 59.6831 25.3281C59.5226 25.5387 59.4476 25.7958 59.4715 26.0533C59.4494 26.3125 59.5241 26.5709 59.6831 26.7844C59.7481 26.8583 59.8303 26.9173 59.9234 26.9571C60.0165 26.9968 60.1181 27.0161 60.2205 27.0136C60.3851 27.0183 60.5452 26.963 60.6669 26.8595C60.7989 26.7324 60.8783 26.5658 60.8912 26.3892Z" fill="#BFD9FF"/>
<path d="M61.5576 26.0554C61.5576 25.593 61.6951 25.2491 61.9702 25.0278C62.2052 24.8397 62.5071 24.7403 62.8165 24.7492C62.9839 24.7435 63.1507 24.7708 63.306 24.8294C63.4613 24.8879 63.6016 24.9764 63.7178 25.0891C63.8395 25.2147 63.9332 25.3617 63.9935 25.5215C64.0538 25.6813 64.0795 25.8507 64.0691 26.0198C64.0819 26.2814 64.0283 26.5421 63.9125 26.7806C63.8115 26.9618 63.6545 27.1105 63.4618 27.2074C63.2647 27.3102 63.0423 27.3633 62.8165 27.3615C62.648 27.3679 62.4799 27.3411 62.3232 27.2828C62.1664 27.2246 62.0245 27.1363 61.9067 27.0236C61.6582 26.7565 61.5327 26.4085 61.5576 26.0554ZM62.0231 26.0554C62.0019 26.3126 62.0816 26.5682 62.2473 26.7746C62.3167 26.851 62.4034 26.912 62.5011 26.9534C62.5988 26.9947 62.705 27.0153 62.8123 27.0137C62.9191 27.0154 63.025 26.9945 63.122 26.9528C63.2191 26.9111 63.3048 26.8495 63.373 26.7727C63.5399 26.5623 63.6196 26.3025 63.5972 26.0415C63.6179 25.7895 63.5371 25.5394 63.3709 25.34C63.3027 25.2638 63.2172 25.2028 63.1206 25.1614C63.0239 25.12 62.9186 25.0994 62.8123 25.1009C62.7052 25.099 62.599 25.1192 62.5013 25.1602C62.4036 25.2012 62.3169 25.262 62.2473 25.3381C62.0812 25.5435 62.0014 25.7987 62.0231 26.0554Z" fill="#BFD9FF"/>
<path d="M64.5978 27.304V24.8063H65.004V25.156C65.0908 25.0294 65.2108 24.9255 65.3526 24.8543C65.4944 24.783 65.6534 24.7468 65.8144 24.749C65.985 24.7429 66.1539 24.7827 66.301 24.8636C66.4276 24.9397 66.5225 25.0541 66.5697 25.1877C66.655 25.0538 66.7761 24.9429 66.9211 24.866C67.0662 24.789 67.2302 24.7487 67.397 24.749C67.508 24.7408 67.6196 24.7541 67.7248 24.7881C67.8301 24.8221 67.9266 24.8761 68.0085 24.9466C68.1654 25.1231 68.2414 25.3503 68.2201 25.5789V27.2941H67.7694V25.7133C67.7759 25.59 67.7609 25.4665 67.725 25.3477C67.6953 25.2723 67.6394 25.2083 67.5663 25.1659C67.484 25.1198 67.3893 25.0965 67.2933 25.0987C67.2067 25.0967 67.1205 25.1112 67.04 25.1415C66.9596 25.1717 66.8867 25.217 66.8257 25.2746C66.7563 25.352 66.704 25.4414 66.6717 25.5377C66.6394 25.634 66.6277 25.7353 66.6374 25.8358V27.2862H66.1846V25.6876C66.1962 25.5387 66.1577 25.3902 66.0746 25.2628C66.0307 25.2136 65.9746 25.1751 65.9112 25.1507C65.8478 25.1262 65.779 25.1165 65.7107 25.1225C65.5853 25.1224 65.4624 25.1545 65.3552 25.2153C65.2472 25.2811 65.1654 25.3783 65.1225 25.492C65.066 25.6606 65.041 25.8371 65.0484 26.0136V27.3099L64.5978 27.304Z" fill="#BFD9FF"/>
<path d="M68.8953 28.2565V24.8064H69.3184V25.1304C69.4036 25.0138 69.5156 24.9166 69.6464 24.8459C69.7836 24.7779 69.9375 24.7445 70.0928 24.7491C70.3076 24.7457 70.5185 24.8028 70.6979 24.9131C70.8762 25.0287 71.0138 25.1909 71.0936 25.3794C71.1842 25.5877 71.2295 25.8107 71.2269 26.0354C71.2315 26.2733 71.181 26.5092 71.0788 26.7271C70.9936 26.9138 70.8519 27.0732 70.6712 27.1859C70.4904 27.2986 70.2784 27.3595 70.0611 27.3614C69.9189 27.3636 69.7785 27.3323 69.6527 27.2705C69.5389 27.2154 69.4387 27.1386 69.3586 27.0452V28.2565H68.8953ZM69.3057 26.0631C69.2847 26.3167 69.3596 26.5691 69.5173 26.7765C69.5769 26.8487 69.6535 26.9072 69.7412 26.9473C69.8289 26.9874 69.9253 27.008 70.023 27.0077C70.1232 27.0073 70.222 26.9856 70.3118 26.9441C70.4016 26.9027 70.4802 26.8426 70.5414 26.7686C70.7017 26.5519 70.7765 26.29 70.7529 26.0275C70.7738 25.7734 70.6989 25.5204 70.5414 25.3122C70.4829 25.2394 70.4072 25.1801 70.3203 25.139C70.2333 25.0979 70.1374 25.076 70.0399 25.0751C69.939 25.0779 69.8402 25.1024 69.751 25.1466C69.6619 25.1908 69.5848 25.2535 69.5258 25.33C69.3621 25.5447 69.2842 25.8062 69.3057 26.069V26.0631Z" fill="#BFD9FF"/>
<path d="M71.7579 27.3041V23.856H72.2107V27.3041H71.7579Z" fill="#BFD9FF"/>
<path d="M74.7476 26.4998L75.2173 26.5531C75.1558 26.7887 75.0103 26.9978 74.8047 27.1459C74.5472 27.3022 74.2415 27.3745 73.9354 27.3516C73.6292 27.3287 73.3398 27.212 73.1121 27.0195C72.8696 26.758 72.7466 26.4182 72.7693 26.073C72.743 25.714 72.8674 25.3596 73.1163 25.0849C73.2317 24.9702 73.372 24.8798 73.5278 24.8198C73.6836 24.7599 73.8513 24.7317 74.0198 24.7372C74.1855 24.7336 74.35 24.7637 74.502 24.8255C74.654 24.8872 74.7898 24.9791 74.8999 25.0948C75.1417 25.362 75.2638 25.706 75.2406 26.0552C75.2406 26.0789 75.2406 26.1164 75.2406 26.1678H73.2475C73.2457 26.399 73.3337 26.6229 73.495 26.7982C73.5667 26.8695 73.6537 26.9259 73.7503 26.9637C73.8469 27.0015 73.951 27.0198 74.0557 27.0175C74.2073 27.0205 74.3557 26.9775 74.4789 26.895C74.6081 26.7907 74.7015 26.6533 74.7476 26.4998ZM74.7603 25.8161C74.7568 25.6453 74.6969 25.4797 74.5889 25.3418C74.522 25.2634 74.4366 25.2004 74.3393 25.1579C74.2421 25.1154 74.1356 25.0945 74.0282 25.0968C73.9307 25.0951 73.8338 25.1117 73.7433 25.1456C73.6528 25.1796 73.5705 25.2302 73.5014 25.2944C73.3537 25.434 73.267 25.62 73.2581 25.8161H74.7603Z" fill="#BFD9FF"/>
<path d="M75.4862 27.3041L76.4637 26.0058L75.5581 24.8064H76.1251L76.5356 25.3992C76.6139 25.5118 76.6753 25.5968 76.7239 25.6798C76.7959 25.577 76.8657 25.4822 76.9355 25.4031L77.3862 24.8103H77.9278L77.0032 25.9959L77.9998 27.3179H77.4391L76.8911 26.5413L76.7451 26.3318L76.0426 27.3199L75.4862 27.3041Z" fill="#BFD9FF"/>
<path d="M27.7319 22.3547V7.5542L13.8647 14.8912V29.7845L27.7319 22.3547Z" fill="#F0CC0D"/>
<path d="M13.865 0L0 7.55437L13.865 14.8914L27.7321 7.55437L13.865 0Z" fill="#FFEB3C"/>
<path d="M0 22.4792V7.5542L13.865 14.9643V29.9999L0 22.4792Z" fill="#FFE600"/>
<path d="M38.3744 20.7488H35.9561V5.64795H38.3744V20.7488ZM51.2958 7.64572H48.632V20.7488H46.2242V7.64572H43.5582V5.64795H51.2958V7.64572Z" fill="#4987E3"/>
<path d="M63.1553 20.7488H56.4502V5.64795H63.0939V7.64572H58.8622V12.0542H62.4994V14.0125H58.8686V18.755H63.1553V20.7488ZM76.6965 19.3656C76.6965 20.2877 76.2029 20.7488 75.2155 20.7488H70.1692C69.2129 20.7488 68.734 20.2877 68.7326 19.3656V7.03907C68.7326 6.11693 69.2115 5.65585 70.1692 5.65585H75.2112C76.1986 5.65585 76.6923 6.11693 76.6923 7.03907V10.5702H74.2803V7.58841H71.151V18.8103H74.2803V15.6348H76.6881L76.6965 19.3656Z" fill="#094FB7"/>
</svg>
