<svg width="29" height="27" viewBox="0 0 29 27" fill="none" xmlns="http://www.w3.org/2000/svg">
<ellipse cx="14.8569" cy="13.5" rx="14" ry="13.5" fill="url(#paint0_linear_1155_2944)"/>
<path d="M18.1315 13.0267C18.0331 11.1041 16.6297 9.94825 14.9388 9.94825H14.875C12.9122 9.94825 11.8267 11.5128 11.8267 13.2887C11.8267 15.2762 13.1395 16.5319 14.8622 16.5319C16.7778 16.5319 18.0433 15.1049 18.1353 13.4185L18.1315 13.0267ZM14.8788 8.22677C16.177 8.24706 17.4143 8.78965 18.3192 9.7355C18.3192 9.29313 18.6116 8.95714 19.0177 8.95714H19.1199C19.7584 8.95714 19.8861 9.56815 19.8861 9.76145V16.624C19.8726 16.7156 19.8875 16.8092 19.9288 16.8918C19.9702 16.9743 20.0358 17.0417 20.1167 17.0846C20.1975 17.1274 20.2895 17.1436 20.3798 17.1308C20.4701 17.118 20.5542 17.0769 20.6204 17.0132C21.7046 15.8807 23.0021 11.191 19.9461 8.47455C17.0996 5.95135 13.2761 6.36907 11.2444 7.79218C9.08234 9.3074 7.69931 12.6583 9.04658 15.8054C10.5113 19.2393 14.7013 20.2629 17.1915 19.2419C18.4533 18.723 19.0356 20.4562 17.7254 21.0218C15.7472 21.878 10.2393 21.7924 7.6661 17.2597C5.92294 14.2072 6.01617 8.82741 10.6263 6.04086C14.1535 3.90814 18.7993 4.4984 21.6088 7.46786C24.5396 10.5813 24.3685 16.4022 21.5092 18.6659C20.2143 19.6947 18.2898 18.6945 18.3026 17.1948L18.2885 16.7045C17.8416 17.1608 17.3102 17.5229 16.7251 17.77C16.14 18.0171 15.5125 18.1444 14.8788 18.1444C12.2954 18.1444 10.0261 15.8353 10.0261 13.2148C10.0261 10.5645 12.2992 8.22807 14.8788 8.22807" fill="#DAE7FB"/>
<defs>
<linearGradient id="paint0_linear_1155_2944" x1="14.8569" y1="0" x2="14.8569" y2="27" gradientUnits="userSpaceOnUse">
<stop stop-color="#3F94F8"/>
<stop offset="1" stop-color="#183AB3"/>
</linearGradient>
</defs>
</svg>
