<svg width="180" height="213" viewBox="0 0 180 213" fill="none" xmlns="http://www.w3.org/2000/svg">
<g filter="url(#filter0_d_1155_3034)">
<rect x="5" width="170" height="178" rx="34" fill="url(#paint0_linear_1155_3034)"/>
</g>
<path d="M46.1457 125.368C44.4131 125.368 42.8567 125.008 41.4767 124.287C40.0967 123.566 39.0157 122.57 38.2337 121.297C37.4517 120.009 37.0607 118.56 37.0607 116.95C37.0607 115.34 37.4517 113.899 38.2337 112.626C39.0157 111.338 40.0967 110.334 41.4767 109.613C42.8567 108.892 44.4131 108.532 46.1457 108.532C47.8784 108.532 49.4347 108.892 50.8147 109.613C52.1947 110.334 53.2757 111.338 54.0577 112.626C54.8397 113.899 55.2307 115.34 55.2307 116.95C55.2307 118.56 54.8397 120.009 54.0577 121.297C53.2757 122.57 52.1947 123.566 50.8147 124.287C49.4347 125.008 47.8784 125.368 46.1457 125.368ZM46.1457 120.975C46.8204 120.975 47.4261 120.814 47.9627 120.492C48.5147 120.155 48.9517 119.687 49.2737 119.089C49.5957 118.476 49.7567 117.763 49.7567 116.95C49.7567 116.137 49.5957 115.432 49.2737 114.834C48.9517 114.221 48.5147 113.753 47.9627 113.431C47.4261 113.094 46.8204 112.925 46.1457 112.925C45.4711 112.925 44.8577 113.094 44.3057 113.431C43.7691 113.753 43.3397 114.221 43.0177 114.834C42.6957 115.432 42.5347 116.137 42.5347 116.95C42.5347 117.763 42.6957 118.476 43.0177 119.089C43.3397 119.687 43.7691 120.155 44.3057 120.492C44.8577 120.814 45.4711 120.975 46.1457 120.975ZM76.6193 118.652C76.6193 120.63 75.96 122.179 74.6413 123.298C73.338 124.417 71.4366 125.084 68.9373 125.299V129.462H64.4293V125.299C61.93 125.084 60.021 124.425 58.7023 123.321C57.399 122.202 56.7473 120.645 56.7473 118.652C56.7473 116.705 57.3913 115.194 58.6793 114.121C59.9826 113.032 61.8993 112.396 64.4293 112.212V107.934H68.9373V112.212C71.4366 112.427 73.338 113.071 74.6413 114.144C75.96 115.217 76.6193 116.72 76.6193 118.652ZM61.6693 118.652C61.6693 119.572 61.8763 120.27 62.2903 120.745C62.7043 121.205 63.4173 121.512 64.4293 121.665V115.846C63.4173 115.984 62.7043 116.275 62.2903 116.72C61.8763 117.149 61.6693 117.793 61.6693 118.652ZM68.9373 121.665C69.9493 121.512 70.6623 121.205 71.0763 120.745C71.5056 120.27 71.7203 119.572 71.7203 118.652C71.7203 117.793 71.5056 117.149 71.0763 116.72C70.6623 116.275 69.9493 115.984 68.9373 115.846V121.665ZM92.1368 112.419V125H86.9388V116.467H84.5698L84.5008 118.1C84.4394 119.725 84.2708 121.059 83.9948 122.102C83.7188 123.145 83.2588 123.95 82.6148 124.517C81.9861 125.069 81.1198 125.345 80.0158 125.345C79.3258 125.345 78.5208 125.23 77.6008 125L77.8078 120.791C78.0531 120.822 78.2294 120.837 78.3368 120.837C78.9654 120.837 79.3794 120.615 79.5788 120.17C79.7781 119.71 79.9008 118.951 79.9468 117.893L80.1308 112.419H92.1368ZM108.887 112.419V125H103.942V123.965C103.191 124.808 102.041 125.23 100.492 125.23C99.3884 125.23 98.3687 124.969 97.4334 124.448C96.5134 123.911 95.7774 123.145 95.2254 122.148C94.6887 121.151 94.4204 120.001 94.4204 118.698C94.4204 117.395 94.6887 116.252 95.2254 115.271C95.7774 114.274 96.5134 113.515 97.4334 112.994C98.3687 112.457 99.3884 112.189 100.492 112.189C101.888 112.189 102.953 112.549 103.689 113.27V112.419H108.887ZM101.734 121.182C102.332 121.182 102.823 120.967 103.206 120.538C103.59 120.093 103.781 119.48 103.781 118.698C103.781 117.916 103.59 117.31 103.206 116.881C102.823 116.452 102.332 116.237 101.734 116.237C101.136 116.237 100.646 116.452 100.262 116.881C99.8791 117.31 99.6874 117.916 99.6874 118.698C99.6874 119.48 99.8791 120.093 100.262 120.538C100.646 120.967 101.136 121.182 101.734 121.182ZM125.337 112.419V125H120.392V123.804C119.932 124.279 119.395 124.64 118.782 124.885C118.169 125.115 117.517 125.23 116.827 125.23C115.232 125.23 113.952 124.747 112.986 123.781C112.02 122.8 111.537 121.328 111.537 119.365V112.419H116.735V118.468C116.735 119.327 116.873 119.94 117.149 120.308C117.425 120.676 117.831 120.86 118.368 120.86C118.874 120.86 119.296 120.661 119.633 120.262C119.97 119.848 120.139 119.204 120.139 118.33V112.419H125.337ZM118.276 111.384C116.681 111.384 115.516 111.062 114.78 110.418C114.044 109.759 113.676 108.739 113.676 107.359H117.011C117.011 107.865 117.095 108.248 117.264 108.509C117.448 108.754 117.778 108.877 118.253 108.877C119.112 108.877 119.541 108.371 119.541 107.359H122.922C122.922 108.739 122.546 109.759 121.795 110.418C121.059 111.062 119.886 111.384 118.276 111.384ZM128.358 112.419H133.533V116.835H137.075V112.419H142.25V125H137.075V120.906H133.533V125H128.358V112.419Z" fill="#FFFDEE"/>
<path d="M89.4711 79.7561C83.5719 79.7511 77.9162 77.4027 73.7484 73.2277C69.5806 69.0528 67.242 63.3931 67.2471 57.4938C67.2522 51.5946 69.6005 45.939 73.7755 41.7711C77.9505 37.6033 83.6101 35.2647 89.5094 35.2698C95.4086 35.2749 101.064 37.6232 105.232 41.7982C109.4 45.9732 111.738 51.6328 111.733 57.5321C111.728 63.4313 109.38 69.087 105.205 73.2548C101.03 77.4226 95.3704 79.7612 89.4711 79.7561Z" fill="url(#paint1_radial_1155_3034)"/>
<path d="M89.5092 35V35.5464C93.6411 35.5525 97.6876 36.7237 101.184 38.9255C104.68 41.1273 107.485 44.2705 109.276 47.9942C111.067 51.7178 111.771 55.8711 111.308 59.977C110.846 64.083 109.234 67.9752 106.66 71.2068C104.085 74.4384 100.651 76.8785 96.7521 78.2467C92.8533 79.615 88.6476 79.8561 84.618 78.9423C80.5883 78.0285 76.8981 75.9969 73.9709 73.0806C71.0437 70.1644 68.9982 66.4818 68.0692 62.4556C67.4185 59.6422 67.3287 56.728 67.8052 53.8798C68.2816 51.0316 69.3149 48.3053 70.8459 45.8568C72.377 43.4082 74.3757 41.2856 76.7277 39.6102C79.0798 37.9348 81.7391 36.7395 84.5535 36.0928C86.1794 35.7237 87.8419 35.5404 89.5092 35.5464V35ZM89.5092 35C87.7991 35.0025 86.0947 35.1967 84.4279 35.5792C78.8301 36.8744 73.9399 40.2621 70.76 45.0476C67.5802 49.8331 66.3515 55.6538 67.3261 61.3163C68.3006 66.9787 71.4045 72.0537 76.0012 75.5008C80.598 78.9479 86.3393 80.5059 92.048 79.8552C97.7567 79.2045 103 76.3946 106.703 72.0014C110.407 67.6083 112.289 61.965 111.964 56.2285C111.639 50.492 109.132 45.0971 104.957 41.1499C100.782 37.2027 95.2549 35.0023 89.5092 35V35Z" fill="#5C960B"/>
<g style="mix-blend-mode:multiply" opacity="0.8">
<path style="mix-blend-mode:multiply" opacity="0.8" d="M100.617 38.7751C105.408 41.8867 108.786 46.7556 110.023 52.3334C111.259 57.9112 110.256 63.7515 107.228 68.5965C104.201 73.4416 99.3916 76.9038 93.8362 78.2374C88.2809 79.5711 82.424 78.6695 77.5269 75.7269C79.9534 77.3407 82.679 78.4515 85.5424 78.9936C88.4058 79.5356 91.3488 79.4979 94.1973 78.8827C97.0459 78.2675 99.7421 77.0873 102.127 75.4119C104.511 73.7364 106.535 71.5998 108.08 69.1284C109.624 66.657 110.657 63.901 111.118 61.0234C111.578 58.1458 111.457 55.2051 110.761 52.3751C110.065 49.5451 108.809 46.8835 107.067 44.5475C105.324 42.2115 103.131 40.2487 100.617 38.7751Z" fill="url(#paint2_linear_1155_3034)"/>
</g>
<g style="mix-blend-mode:screen">
<path style="mix-blend-mode:screen" d="M85.1552 62.6335C91.1271 54.4979 99.3884 46.2803 108.748 48.8757C107.542 46.193 105.79 43.792 103.602 41.8266C101.414 39.8613 98.839 38.375 96.0429 37.4632C93.2468 36.5513 90.291 36.234 87.365 36.5317C84.4391 36.8293 81.6077 37.7354 79.0525 39.1916C76.4973 40.6478 74.2747 42.6221 72.5274 44.9878C70.78 47.3535 69.5465 50.0583 68.906 52.9288C68.2654 55.7992 68.232 58.7718 68.8078 61.6559C69.3836 64.5401 70.556 67.272 72.2497 69.6763C75.7192 69.7419 80.7787 68.5945 85.1552 62.6335Z" fill="url(#paint3_linear_1155_3034)"/>
</g>
<g style="mix-blend-mode:screen">
<path style="mix-blend-mode:screen" d="M70.6198 63.3161C69.6967 59.3322 69.9518 55.1658 71.354 51.3242C72.7562 47.4827 75.2449 44.1316 78.5173 41.6791C81.7897 39.2265 85.7046 37.7782 89.7852 37.5105C93.8659 37.2429 97.9364 38.1673 101.501 40.1714C99.155 38.5416 96.5022 37.4053 93.7037 36.8314C90.9052 36.2575 88.0194 36.258 85.2211 36.8328C82.4228 37.4076 79.7704 38.5448 77.4248 40.1754C75.0791 41.8059 73.0891 43.8959 71.5753 46.3186C70.0616 48.7413 69.0556 51.4462 68.6185 54.2693C68.1814 57.0923 68.3222 59.9748 69.0325 62.7418C69.7427 65.5088 71.0075 68.1028 72.7502 70.3664C74.4929 72.63 76.6772 74.516 79.1706 75.9101C74.8442 72.9306 71.7929 68.4365 70.6198 63.3161Z" fill="url(#paint4_linear_1155_3034)"/>
</g>
<path style="mix-blend-mode:multiply" opacity="0.8" d="M103.624 51.6615L98.6845 46.7222L86.8553 58.5568L81.845 53.5465L76.9058 58.4858L86.8444 68.4299L86.8553 68.419L86.8663 68.4299L103.624 51.6615Z" fill="url(#paint5_linear_1155_3034)"/>
<path d="M102.786 50.8213L97.8466 45.8875L86.012 57.7221L81.0071 52.7118L76.0679 57.6565L86.0065 67.5952L86.012 67.5843L86.0284 67.5952L102.786 50.8213Z" fill="white"/>
<path d="M22.1277 210.112C23.6537 210.112 24.9697 209.58 25.8657 208.572L24.9557 207.69C24.1997 208.488 23.2757 208.866 22.1977 208.866C19.9857 208.866 18.3477 207.27 18.3477 205.1C18.3477 202.93 19.9857 201.334 22.1977 201.334C23.2757 201.334 24.1997 201.698 24.9557 202.496L25.8657 201.614C24.9697 200.606 23.6537 200.088 22.1417 200.088C19.1597 200.088 16.9477 202.202 16.9477 205.1C16.9477 207.998 19.1597 210.112 22.1277 210.112ZM34.8646 202.58L31.8686 207.592L28.9566 202.58H27.5706V210H28.8026V204.568L31.5466 209.16H32.1346L34.9066 204.582V210H36.1246V202.58H34.8646ZM41.9185 210.084C44.1445 210.084 45.7685 208.502 45.7685 206.29C45.7685 204.078 44.1445 202.51 41.9185 202.51C39.6925 202.51 38.0545 204.078 38.0545 206.29C38.0545 208.502 39.6925 210.084 41.9185 210.084ZM41.9185 208.908C40.4905 208.908 39.4125 207.872 39.4125 206.29C39.4125 204.708 40.4905 203.686 41.9185 203.686C43.3465 203.686 44.4105 204.708 44.4105 206.29C44.4105 207.872 43.3465 208.908 41.9185 208.908ZM52.9658 202.58H46.1898V203.756H48.9058V210H50.2498V203.756H52.9658V202.58ZM58.2741 202.51C57.1821 202.51 56.2301 202.93 55.6281 203.756V202.58H54.3401V212.716H55.6841V208.88C56.3001 209.678 57.2241 210.084 58.2741 210.084C60.4441 210.084 62.0261 208.572 62.0261 206.29C62.0261 204.022 60.4441 202.51 58.2741 202.51ZM58.1621 208.908C56.7481 208.908 55.6701 207.872 55.6701 206.29C55.6701 204.722 56.7481 203.686 58.1621 203.686C59.5901 203.686 60.6681 204.722 60.6681 206.29C60.6681 207.872 59.5901 208.908 58.1621 208.908ZM70.6848 206.332C70.6848 204.05 69.1588 202.51 67.0168 202.51C64.8748 202.51 63.2928 204.092 63.2928 206.29C63.2928 208.502 64.8888 210.084 67.2828 210.084C68.5148 210.084 69.5368 209.664 70.2088 208.88L69.4668 208.012C68.9208 208.614 68.1928 208.908 67.3248 208.908C65.8548 208.908 64.8048 208.04 64.6368 206.738H70.6568C70.6708 206.612 70.6848 206.444 70.6848 206.332ZM67.0168 203.644C68.3188 203.644 69.2568 204.526 69.3968 205.772H64.6368C64.7768 204.512 65.7288 203.644 67.0168 203.644ZM77.9853 202.58H71.2093V203.756H73.9253V210H75.2693V203.756H77.9853V202.58ZM82.7896 205.1L80.7036 205.086V202.58H79.3596V210L82.5796 210.014C84.5676 210.028 85.6876 209.132 85.6876 207.522C85.6876 205.996 84.6796 205.114 82.7896 205.1ZM82.4676 208.992L80.7036 208.978V206.066L82.4676 206.094C83.6996 206.108 84.3156 206.528 84.3156 207.508C84.3156 208.502 83.6856 209.006 82.4676 208.992ZM96.2261 206.15C96.9681 205.856 97.4161 205.282 97.4161 204.484C97.4161 203.266 96.3661 202.58 94.6161 202.58H91.1721V210H94.7421C96.7161 210 97.6681 209.244 97.6681 207.956C97.6681 207.018 97.2061 206.402 96.2261 206.15ZM92.4881 203.616H94.5041C95.5261 203.616 96.0721 203.966 96.0721 204.68C96.0721 205.394 95.5261 205.772 94.5041 205.772H92.4881V203.616ZM94.6441 208.964H92.4881V206.738H94.7281C95.8341 206.738 96.3241 207.102 96.3241 207.872C96.3241 208.628 95.7501 208.964 94.6441 208.964ZM103.006 210.084C104.336 210.084 105.442 209.524 106.03 208.488L105.008 207.844C104.532 208.572 103.804 208.908 102.992 208.908C101.536 208.908 100.444 207.9 100.444 206.29C100.444 204.708 101.536 203.686 102.992 203.686C103.804 203.686 104.532 204.022 105.008 204.75L106.03 204.092C105.442 203.056 104.336 202.51 103.006 202.51C100.724 202.51 99.0857 204.078 99.0857 206.29C99.0857 208.502 100.724 210.084 103.006 210.084ZM114.366 206.332C114.366 204.05 112.84 202.51 110.698 202.51C108.556 202.51 106.974 204.092 106.974 206.29C106.974 208.502 108.57 210.084 110.964 210.084C112.196 210.084 113.218 209.664 113.89 208.88L113.148 208.012C112.602 208.614 111.874 208.908 111.006 208.908C109.536 208.908 108.486 208.04 108.318 206.738H114.338C114.352 206.612 114.366 206.444 114.366 206.332ZM110.698 203.644C112 203.644 112.938 204.526 113.078 205.772H108.318C108.458 204.512 109.41 203.644 110.698 203.644ZM125.587 210H127.169L124.159 206.15L126.973 202.58H125.531L123.123 205.716H121.555V202.58H120.211V210H121.555V206.864H123.095L125.587 210ZM133.461 202.58L130.899 208.516L128.309 202.58H126.909L130.185 209.986L129.947 210.504C129.583 211.358 129.177 211.652 128.533 211.652C128.029 211.652 127.567 211.456 127.203 211.106L126.629 212.114C127.091 212.562 127.819 212.8 128.533 212.8C129.667 212.8 130.521 212.31 131.179 210.742L134.777 202.58H133.461ZM140.087 202.51C138.995 202.51 138.043 202.93 137.441 203.756V202.58H136.153V212.716H137.497V208.88C138.113 209.678 139.037 210.084 140.087 210.084C142.257 210.084 143.839 208.572 143.839 206.29C143.839 204.022 142.257 202.51 140.087 202.51ZM139.975 208.908C138.561 208.908 137.483 207.872 137.483 206.29C137.483 204.722 138.561 203.686 139.975 203.686C141.403 203.686 142.481 204.722 142.481 206.29C142.481 207.872 141.403 208.908 139.975 208.908ZM149.025 210.084C150.355 210.084 151.461 209.524 152.049 208.488L151.027 207.844C150.551 208.572 149.823 208.908 149.011 208.908C147.555 208.908 146.463 207.9 146.463 206.29C146.463 204.708 147.555 203.686 149.011 203.686C149.823 203.686 150.551 204.022 151.027 204.75L152.049 204.092C151.461 203.056 150.355 202.51 149.025 202.51C146.743 202.51 145.105 204.078 145.105 206.29C145.105 208.502 146.743 210.084 149.025 210.084ZM157.135 205.1L155.133 205.086V202.58H153.789V210L156.911 210.014C158.899 210.028 160.019 209.132 160.019 207.522C160.019 205.996 159.011 205.114 157.135 205.1ZM161.125 210H162.469V202.58H161.125V210ZM156.813 208.992L155.133 208.978V206.066L156.813 206.094C158.031 206.108 158.661 206.528 158.661 207.508C158.661 208.502 158.017 209.006 156.813 208.992Z" fill="white"/>
<defs>
<filter id="filter0_d_1155_3034" x="0" y="0" width="180" height="188" filterUnits="userSpaceOnUse" color-interpolation-filters="sRGB">
<feFlood flood-opacity="0" result="BackgroundImageFix"/>
<feColorMatrix in="SourceAlpha" type="matrix" values="0 0 0 0 0 0 0 0 0 0 0 0 0 0 0 0 0 0 127 0" result="hardAlpha"/>
<feOffset dy="5"/>
<feGaussianBlur stdDeviation="2.5"/>
<feColorMatrix type="matrix" values="0 0 0 0 0.0875 0 0 0 0 0.15075 0 0 0 0 0.375 0 0 0 1 0"/>
<feBlend mode="normal" in2="BackgroundImageFix" result="effect1_dropShadow_1155_3034"/>
<feBlend mode="normal" in="SourceGraphic" in2="effect1_dropShadow_1155_3034" result="shape"/>
</filter>
<linearGradient id="paint0_linear_1155_3034" x1="90" y1="0" x2="90" y2="178" gradientUnits="userSpaceOnUse">
<stop stop-color="#497CE0"/>
<stop offset="1" stop-color="#001641"/>
</linearGradient>
<radialGradient id="paint1_radial_1155_3034" cx="0" cy="0" r="1" gradientUnits="userSpaceOnUse" gradientTransform="translate(93.0563 73.0712) rotate(-13) scale(22.956)">
<stop stop-color="#88C607"/>
<stop offset="1" stop-color="#22AC00"/>
</radialGradient>
<linearGradient id="paint2_linear_1155_3034" x1="87.0918" y1="49.9546" x2="108.505" y2="90.8749" gradientUnits="userSpaceOnUse">
<stop stop-color="white"/>
<stop offset="1" stop-color="#FBAE17"/>
</linearGradient>
<linearGradient id="paint3_linear_1155_3034" x1="78.8203" y1="37.7538" x2="93.2411" y2="64.464" gradientUnits="userSpaceOnUse">
<stop stop-color="#FFFBD4"/>
<stop offset="1"/>
</linearGradient>
<linearGradient id="paint4_linear_1155_3034" x1="74.2533" y1="34.7868" x2="98.608" y2="73.727" gradientUnits="userSpaceOnUse">
<stop stop-color="white"/>
<stop offset="1"/>
</linearGradient>
<linearGradient id="paint5_linear_1155_3034" x1="562.372" y1="943.903" x2="1868.88" y2="943.903" gradientUnits="userSpaceOnUse">
<stop stop-color="white"/>
<stop offset="1" stop-color="#FBAE17"/>
</linearGradient>
</defs>
</svg>
