<svg width="180" height="213" viewBox="0 0 180 213" fill="none" xmlns="http://www.w3.org/2000/svg">
<g filter="url(#filter0_d_1155_3017)">
<rect x="5" width="170" height="178" rx="34" fill="url(#paint0_linear_1155_3017)"/>
</g>
<g filter="url(#filter1_d_1155_3017)">
<path d="M48.2009 125.368C46.4682 125.368 44.9119 125.008 43.5319 124.287C42.1519 123.566 41.0709 122.57 40.2889 121.297C39.5069 120.009 39.1159 118.56 39.1159 116.95C39.1159 115.34 39.5069 113.899 40.2889 112.626C41.0709 111.338 42.1519 110.334 43.5319 109.613C44.9119 108.892 46.4682 108.532 48.2009 108.532C49.9336 108.532 51.4899 108.892 52.8699 109.613C54.2499 110.334 55.3309 111.338 56.1129 112.626C56.8949 113.899 57.2859 115.34 57.2859 116.95C57.2859 118.56 56.8949 120.009 56.1129 121.297C55.3309 122.57 54.2499 123.566 52.8699 124.287C51.4899 125.008 49.9336 125.368 48.2009 125.368ZM48.2009 120.975C48.8756 120.975 49.4812 120.814 50.0179 120.492C50.5699 120.155 51.0069 119.687 51.3289 119.089C51.6509 118.476 51.8119 117.763 51.8119 116.95C51.8119 116.137 51.6509 115.432 51.3289 114.834C51.0069 114.221 50.5699 113.753 50.0179 113.431C49.4812 113.094 48.8756 112.925 48.2009 112.925C47.5262 112.925 46.9129 113.094 46.3609 113.431C45.8242 113.753 45.3949 114.221 45.0729 114.834C44.7509 115.432 44.5899 116.137 44.5899 116.95C44.5899 117.763 44.7509 118.476 45.0729 119.089C45.3949 119.687 45.8242 120.155 46.3609 120.492C46.9129 120.814 47.5262 120.975 48.2009 120.975ZM59.6075 112.419H64.7825V116.835H68.3245V112.419H73.4995V125H68.3245V120.906H64.7825V125H59.6075V112.419ZM90.0816 112.419V125H84.8836V116.467H82.5146L82.4456 118.1C82.3842 119.725 82.2156 121.059 81.9396 122.102C81.6636 123.145 81.2036 123.95 80.5596 124.517C79.9309 125.069 79.0646 125.345 77.9606 125.345C77.2706 125.345 76.4656 125.23 75.5456 125L75.7526 120.791C75.9979 120.822 76.1742 120.837 76.2816 120.837C76.9102 120.837 77.3242 120.615 77.5236 120.17C77.7229 119.71 77.8456 118.951 77.8916 117.893L78.0756 112.419H90.0816ZM106.832 112.419V125H101.887V123.965C101.136 124.808 99.9859 125.23 98.4372 125.23C97.3332 125.23 96.3136 124.969 95.3782 124.448C94.4582 123.911 93.7222 123.145 93.1702 122.148C92.6336 121.151 92.3652 120.001 92.3652 118.698C92.3652 117.395 92.6336 116.252 93.1702 115.271C93.7222 114.274 94.4582 113.515 95.3782 112.994C96.3136 112.457 97.3332 112.189 98.4372 112.189C99.8326 112.189 100.898 112.549 101.634 113.27V112.419H106.832ZM99.6792 121.182C100.277 121.182 100.768 120.967 101.151 120.538C101.535 120.093 101.726 119.48 101.726 118.698C101.726 117.916 101.535 117.31 101.151 116.881C100.768 116.452 100.277 116.237 99.6792 116.237C99.0812 116.237 98.5906 116.452 98.2072 116.881C97.8239 117.31 97.6322 117.916 97.6322 118.698C97.6322 119.48 97.8239 120.093 98.2072 120.538C98.5906 120.967 99.0812 121.182 99.6792 121.182ZM123.282 112.419V125H118.337V123.804C117.877 124.279 117.34 124.64 116.727 124.885C116.113 125.115 115.462 125.23 114.772 125.23C113.177 125.23 111.897 124.747 110.931 123.781C109.965 122.8 109.482 121.328 109.482 119.365V112.419H114.68V118.468C114.68 119.327 114.818 119.94 115.094 120.308C115.37 120.676 115.776 120.86 116.313 120.86C116.819 120.86 117.24 120.661 117.578 120.262C117.915 119.848 118.084 119.204 118.084 118.33V112.419H123.282ZM116.221 111.384C114.626 111.384 113.461 111.062 112.725 110.418C111.989 109.759 111.621 108.739 111.621 107.359H114.956C114.956 107.865 115.04 108.248 115.209 108.509C115.393 108.754 115.722 108.877 116.198 108.877C117.056 108.877 117.486 108.371 117.486 107.359H120.867C120.867 108.739 120.491 109.759 119.74 110.418C119.004 111.062 117.831 111.384 116.221 111.384ZM126.303 112.419H131.478V116.835H135.02V112.419H140.195V125H135.02V120.906H131.478V125H126.303V112.419Z" fill="#FFFDEE"/>
</g>
<path d="M89.4711 79.7559C83.5719 79.7508 77.9162 77.4025 73.7484 73.2275C69.5806 69.0525 67.242 63.3929 67.2471 57.4936C67.2522 51.5943 69.6005 45.9387 73.7755 41.7709C77.9505 37.6031 83.6101 35.2645 89.5094 35.2695C95.4086 35.2746 101.064 37.6229 105.232 41.7979C109.4 45.9729 111.738 51.6326 111.733 57.5318C111.728 63.4311 109.38 69.0867 105.205 73.2545C101.03 77.4224 95.3704 79.761 89.4711 79.7559Z" fill="url(#paint1_radial_1155_3017)"/>
<path d="M89.5092 35V35.5464C93.6411 35.5525 97.6876 36.7237 101.184 38.9255C104.68 41.1273 107.485 44.2705 109.276 47.9942C111.067 51.7178 111.771 55.8711 111.308 59.977C110.846 64.083 109.234 67.9752 106.66 71.2068C104.085 74.4384 100.651 76.8785 96.7521 78.2467C92.8533 79.615 88.6476 79.8561 84.618 78.9423C80.5883 78.0285 76.8981 75.9969 73.9709 73.0806C71.0437 70.1644 68.9982 66.4818 68.0692 62.4556C67.4185 59.6422 67.3287 56.728 67.8052 53.8798C68.2816 51.0316 69.3149 48.3053 70.8459 45.8568C72.377 43.4082 74.3757 41.2856 76.7277 39.6102C79.0798 37.9348 81.7391 36.7395 84.5535 36.0928C86.1794 35.7237 87.8419 35.5404 89.5092 35.5464V35ZM89.5092 35C87.7991 35.0025 86.0947 35.1967 84.4279 35.5792C78.8301 36.8744 73.9399 40.2621 70.76 45.0476C67.5802 49.8331 66.3515 55.6538 67.3261 61.3163C68.3006 66.9787 71.4045 72.0537 76.0012 75.5008C80.598 78.9479 86.3393 80.5059 92.048 79.8552C97.7567 79.2045 103 76.3946 106.703 72.0014C110.407 67.6083 112.289 61.965 111.964 56.2285C111.639 50.492 109.132 45.0971 104.957 41.1499C100.782 37.2027 95.2549 35.0023 89.5092 35V35Z" fill="#5C960B"/>
<g style="mix-blend-mode:multiply" opacity="0.8">
<path style="mix-blend-mode:multiply" opacity="0.8" d="M100.617 38.7751C105.408 41.8867 108.786 46.7556 110.023 52.3334C111.259 57.9112 110.256 63.7515 107.228 68.5965C104.201 73.4416 99.3916 76.9038 93.8362 78.2374C88.2809 79.5711 82.424 78.6695 77.5269 75.7269C79.9534 77.3407 82.679 78.4515 85.5424 78.9936C88.4058 79.5356 91.3488 79.4979 94.1973 78.8827C97.0459 78.2675 99.7421 77.0873 102.127 75.4119C104.511 73.7364 106.535 71.5998 108.08 69.1284C109.624 66.657 110.657 63.901 111.117 61.0234C111.578 58.1458 111.457 55.2051 110.761 52.3751C110.065 49.5451 108.809 46.8835 107.067 44.5475C105.324 42.2115 103.131 40.2487 100.617 38.7751Z" fill="url(#paint2_linear_1155_3017)"/>
</g>
<g style="mix-blend-mode:screen">
<path style="mix-blend-mode:screen" d="M85.1552 62.6335C91.1272 54.4979 99.3884 46.2803 108.748 48.8757C107.542 46.193 105.79 43.792 103.602 41.8266C101.414 39.8613 98.839 38.375 96.0429 37.4632C93.2468 36.5513 90.291 36.234 87.365 36.5317C84.4391 36.8293 81.6077 37.7354 79.0525 39.1916C76.4973 40.6478 74.2747 42.6221 72.5274 44.9878C70.78 47.3535 69.5465 50.0583 68.906 52.9288C68.2654 55.7992 68.232 58.7718 68.8078 61.6559C69.3836 64.5401 70.556 67.272 72.2497 69.6763C75.7192 69.7419 80.7787 68.5945 85.1552 62.6335Z" fill="url(#paint3_linear_1155_3017)"/>
</g>
<g style="mix-blend-mode:screen">
<path style="mix-blend-mode:screen" d="M70.6198 63.3161C69.6967 59.3322 69.9518 55.1658 71.354 51.3242C72.7562 47.4827 75.2449 44.1316 78.5173 41.6791C81.7897 39.2265 85.7046 37.7782 89.7852 37.5105C93.8659 37.2429 97.9364 38.1673 101.501 40.1714C99.1549 38.5416 96.5022 37.4053 93.7037 36.8314C90.9052 36.2575 88.0194 36.258 85.2211 36.8328C82.4228 37.4076 79.7704 38.5448 77.4248 40.1754C75.0791 41.8059 73.0891 43.8959 71.5753 46.3186C70.0616 48.7413 69.0556 51.4462 68.6185 54.2693C68.1814 57.0923 68.3222 59.9748 69.0325 62.7418C69.7427 65.5088 71.0075 68.1028 72.7502 70.3664C74.4929 72.63 76.6772 74.516 79.1706 75.9101C74.8442 72.9306 71.7929 68.4365 70.6198 63.3161Z" fill="url(#paint4_linear_1155_3017)"/>
</g>
<path style="mix-blend-mode:multiply" opacity="0.8" d="M103.624 51.6615L98.685 46.7222L86.8558 58.5568L81.8455 53.5465L76.9062 58.4858L86.8449 68.4299L86.8558 68.419L86.8668 68.4299L103.624 51.6615Z" fill="url(#paint5_linear_1155_3017)"/>
<path d="M102.786 50.8213L97.8466 45.8875L86.012 57.7221L81.0071 52.7118L76.0679 57.6565L86.0065 67.5952L86.012 67.5843L86.0284 67.5952L102.786 50.8213Z" fill="white"/>
<path d="M22.1277 210.112C23.6537 210.112 24.9697 209.58 25.8657 208.572L24.9557 207.69C24.1997 208.488 23.2757 208.866 22.1977 208.866C19.9857 208.866 18.3477 207.27 18.3477 205.1C18.3477 202.93 19.9857 201.334 22.1977 201.334C23.2757 201.334 24.1997 201.698 24.9557 202.496L25.8657 201.614C24.9697 200.606 23.6537 200.088 22.1417 200.088C19.1597 200.088 16.9477 202.202 16.9477 205.1C16.9477 207.998 19.1597 210.112 22.1277 210.112ZM34.8646 202.58L31.8686 207.592L28.9566 202.58H27.5706V210H28.8026V204.568L31.5466 209.16H32.1346L34.9066 204.582V210H36.1246V202.58H34.8646ZM41.9185 210.084C44.1445 210.084 45.7685 208.502 45.7685 206.29C45.7685 204.078 44.1445 202.51 41.9185 202.51C39.6925 202.51 38.0545 204.078 38.0545 206.29C38.0545 208.502 39.6925 210.084 41.9185 210.084ZM41.9185 208.908C40.4905 208.908 39.4125 207.872 39.4125 206.29C39.4125 204.708 40.4905 203.686 41.9185 203.686C43.3465 203.686 44.4105 204.708 44.4105 206.29C44.4105 207.872 43.3465 208.908 41.9185 208.908ZM52.9658 202.58H46.1898V203.756H48.9058V210H50.2498V203.756H52.9658V202.58ZM58.2741 202.51C57.1821 202.51 56.2301 202.93 55.6281 203.756V202.58H54.3401V212.716H55.6841V208.88C56.3001 209.678 57.2241 210.084 58.2741 210.084C60.4441 210.084 62.0261 208.572 62.0261 206.29C62.0261 204.022 60.4441 202.51 58.2741 202.51ZM58.1621 208.908C56.7481 208.908 55.6701 207.872 55.6701 206.29C55.6701 204.722 56.7481 203.686 58.1621 203.686C59.5901 203.686 60.6681 204.722 60.6681 206.29C60.6681 207.872 59.5901 208.908 58.1621 208.908ZM70.6848 206.332C70.6848 204.05 69.1588 202.51 67.0168 202.51C64.8748 202.51 63.2928 204.092 63.2928 206.29C63.2928 208.502 64.8888 210.084 67.2828 210.084C68.5148 210.084 69.5368 209.664 70.2088 208.88L69.4668 208.012C68.9208 208.614 68.1928 208.908 67.3248 208.908C65.8548 208.908 64.8048 208.04 64.6368 206.738H70.6568C70.6708 206.612 70.6848 206.444 70.6848 206.332ZM67.0168 203.644C68.3188 203.644 69.2568 204.526 69.3968 205.772H64.6368C64.7768 204.512 65.7288 203.644 67.0168 203.644ZM77.9853 202.58H71.2093V203.756H73.9253V210H75.2693V203.756H77.9853V202.58ZM82.7896 205.1L80.7036 205.086V202.58H79.3596V210L82.5796 210.014C84.5676 210.028 85.6876 209.132 85.6876 207.522C85.6876 205.996 84.6796 205.114 82.7896 205.1ZM82.4676 208.992L80.7036 208.978V206.066L82.4676 206.094C83.6996 206.108 84.3156 206.528 84.3156 207.508C84.3156 208.502 83.6856 209.006 82.4676 208.992ZM96.2261 206.15C96.9681 205.856 97.4161 205.282 97.4161 204.484C97.4161 203.266 96.3661 202.58 94.6161 202.58H91.1721V210H94.7421C96.7161 210 97.6681 209.244 97.6681 207.956C97.6681 207.018 97.2061 206.402 96.2261 206.15ZM92.4881 203.616H94.5041C95.5261 203.616 96.0721 203.966 96.0721 204.68C96.0721 205.394 95.5261 205.772 94.5041 205.772H92.4881V203.616ZM94.6441 208.964H92.4881V206.738H94.7281C95.8341 206.738 96.3241 207.102 96.3241 207.872C96.3241 208.628 95.7501 208.964 94.6441 208.964ZM103.006 210.084C104.336 210.084 105.442 209.524 106.03 208.488L105.008 207.844C104.532 208.572 103.804 208.908 102.992 208.908C101.536 208.908 100.444 207.9 100.444 206.29C100.444 204.708 101.536 203.686 102.992 203.686C103.804 203.686 104.532 204.022 105.008 204.75L106.03 204.092C105.442 203.056 104.336 202.51 103.006 202.51C100.724 202.51 99.0857 204.078 99.0857 206.29C99.0857 208.502 100.724 210.084 103.006 210.084ZM114.366 206.332C114.366 204.05 112.84 202.51 110.698 202.51C108.556 202.51 106.974 204.092 106.974 206.29C106.974 208.502 108.57 210.084 110.964 210.084C112.196 210.084 113.218 209.664 113.89 208.88L113.148 208.012C112.602 208.614 111.874 208.908 111.006 208.908C109.536 208.908 108.486 208.04 108.318 206.738H114.338C114.352 206.612 114.366 206.444 114.366 206.332ZM110.698 203.644C112 203.644 112.938 204.526 113.078 205.772H108.318C108.458 204.512 109.41 203.644 110.698 203.644ZM125.587 210H127.169L124.159 206.15L126.973 202.58H125.531L123.123 205.716H121.555V202.58H120.211V210H121.555V206.864H123.095L125.587 210ZM133.461 202.58L130.899 208.516L128.309 202.58H126.909L130.185 209.986L129.947 210.504C129.583 211.358 129.177 211.652 128.533 211.652C128.029 211.652 127.567 211.456 127.203 211.106L126.629 212.114C127.091 212.562 127.819 212.8 128.533 212.8C129.667 212.8 130.521 212.31 131.179 210.742L134.777 202.58H133.461ZM140.087 202.51C138.995 202.51 138.043 202.93 137.441 203.756V202.58H136.153V212.716H137.497V208.88C138.113 209.678 139.037 210.084 140.087 210.084C142.257 210.084 143.839 208.572 143.839 206.29C143.839 204.022 142.257 202.51 140.087 202.51ZM139.975 208.908C138.561 208.908 137.483 207.872 137.483 206.29C137.483 204.722 138.561 203.686 139.975 203.686C141.403 203.686 142.481 204.722 142.481 206.29C142.481 207.872 141.403 208.908 139.975 208.908ZM149.025 210.084C150.355 210.084 151.461 209.524 152.049 208.488L151.027 207.844C150.551 208.572 149.823 208.908 149.011 208.908C147.555 208.908 146.463 207.9 146.463 206.29C146.463 204.708 147.555 203.686 149.011 203.686C149.823 203.686 150.551 204.022 151.027 204.75L152.049 204.092C151.461 203.056 150.355 202.51 149.025 202.51C146.743 202.51 145.105 204.078 145.105 206.29C145.105 208.502 146.743 210.084 149.025 210.084ZM157.135 205.1L155.133 205.086V202.58H153.789V210L156.911 210.014C158.899 210.028 160.019 209.132 160.019 207.522C160.019 205.996 159.011 205.114 157.135 205.1ZM161.125 210H162.469V202.58H161.125V210ZM156.813 208.992L155.133 208.978V206.066L156.813 206.094C158.031 206.108 158.661 206.528 158.661 207.508C158.661 208.502 158.017 209.006 156.813 208.992Z" fill="white"/>
<defs>
<filter id="filter0_d_1155_3017" x="0" y="0" width="180" height="188" filterUnits="userSpaceOnUse" color-interpolation-filters="sRGB">
<feFlood flood-opacity="0" result="BackgroundImageFix"/>
<feColorMatrix in="SourceAlpha" type="matrix" values="0 0 0 0 0 0 0 0 0 0 0 0 0 0 0 0 0 0 127 0" result="hardAlpha"/>
<feOffset dy="5"/>
<feGaussianBlur stdDeviation="2.5"/>
<feColorMatrix type="matrix" values="0 0 0 0 0.0875 0 0 0 0 0.15075 0 0 0 0 0.375 0 0 0 1 0"/>
<feBlend mode="normal" in2="BackgroundImageFix" result="effect1_dropShadow_1155_3017"/>
<feBlend mode="normal" in="SourceGraphic" in2="effect1_dropShadow_1155_3017" result="shape"/>
</filter>
<filter id="filter1_d_1155_3017" x="32.1157" y="107.359" width="115.079" height="35.009" filterUnits="userSpaceOnUse" color-interpolation-filters="sRGB">
<feFlood flood-opacity="0" result="BackgroundImageFix"/>
<feColorMatrix in="SourceAlpha" type="matrix" values="0 0 0 0 0 0 0 0 0 0 0 0 0 0 0 0 0 0 127 0" result="hardAlpha"/>
<feOffset dy="10"/>
<feGaussianBlur stdDeviation="3.5"/>
<feColorMatrix type="matrix" values="0 0 0 0 0 0 0 0 0 0 0 0 0 0 0 0 0 0 0.25 0"/>
<feBlend mode="normal" in2="BackgroundImageFix" result="effect1_dropShadow_1155_3017"/>
<feBlend mode="normal" in="SourceGraphic" in2="effect1_dropShadow_1155_3017" result="shape"/>
</filter>
<linearGradient id="paint0_linear_1155_3017" x1="90" y1="0" x2="90" y2="178" gradientUnits="userSpaceOnUse">
<stop stop-color="#497CE0"/>
<stop offset="1" stop-color="#001641"/>
</linearGradient>
<radialGradient id="paint1_radial_1155_3017" cx="0" cy="0" r="1" gradientUnits="userSpaceOnUse" gradientTransform="translate(93.0563 73.0709) rotate(-13) scale(22.956)">
<stop stop-color="#88C607"/>
<stop offset="1" stop-color="#22AC00"/>
</radialGradient>
<linearGradient id="paint2_linear_1155_3017" x1="87.0918" y1="49.9546" x2="108.505" y2="90.8748" gradientUnits="userSpaceOnUse">
<stop stop-color="white"/>
<stop offset="1" stop-color="#FBAE17"/>
</linearGradient>
<linearGradient id="paint3_linear_1155_3017" x1="78.8203" y1="37.7538" x2="93.2411" y2="64.464" gradientUnits="userSpaceOnUse">
<stop stop-color="#FFFBD4"/>
<stop offset="1"/>
</linearGradient>
<linearGradient id="paint4_linear_1155_3017" x1="74.2533" y1="34.7868" x2="98.608" y2="73.727" gradientUnits="userSpaceOnUse">
<stop stop-color="white"/>
<stop offset="1"/>
</linearGradient>
<linearGradient id="paint5_linear_1155_3017" x1="562.372" y1="943.903" x2="1868.88" y2="943.903" gradientUnits="userSpaceOnUse">
<stop stop-color="white"/>
<stop offset="1" stop-color="#FBAE17"/>
</linearGradient>
</defs>
</svg>
