<svg width="80" height="95" viewBox="0 0 80 95" fill="none" xmlns="http://www.w3.org/2000/svg">
<path d="M57.2004 4.11766V40.1896H19.6074V3.52591C25.2428 1.23282 31.348 0 37.7346 0C44.638 0 51.2126 1.4547 57.2238 4.11766H57.2004Z" fill="#E4E7ED"/>
<path d="M57.1999 40.1894C51.0949 40.1894 44.9897 40.1894 38.8848 40.1894C39.4717 21.9192 56.6127 21.204 57.1999 40.1894Z" fill="#C6CBD6"/>
<path d="M13.5491 26.0366H38.9789H48.0191C43.4872 26.0366 39.707 31.4117 38.9789 38.4387V84.2746L35.2924 78.6529L31.3711 84.6442L27.4497 78.6529L23.5283 84.6442L19.6069 78.6529L15.6855 84.6442L11.7641 78.6529L7.84276 84.6442L3.92138 78.6529L0 84.6442V40.3372C0 32.4472 6.12856 26.0366 13.6189 26.0366H13.5491Z" fill="white"/>
<path d="M43.0645 48.6465H79.9998V95H43.0645V48.6465Z" fill="#5D718F"/>
<path d="M47.4558 63.7856H51.2596C51.7762 63.7856 52.1988 64.2294 52.1988 64.7718V68.7661C52.1988 69.3085 51.7762 69.7522 51.2596 69.7522H47.4558C46.9392 69.7522 46.5166 69.3085 46.5166 68.7661V64.7718C46.5166 64.2294 46.9392 63.7856 47.4558 63.7856Z" fill="white"/>
<path d="M54.8288 63.7856H58.6327C59.1492 63.7856 59.5719 64.2294 59.5719 64.7718V68.7661C59.5719 69.3085 59.1492 69.7522 58.6327 69.7522H54.8288C54.3123 69.7522 53.8896 69.3085 53.8896 68.7661V64.7718C53.8896 64.2294 54.3123 63.7856 54.8288 63.7856Z" fill="white"/>
<path d="M62.2014 63.7856H66.0052C66.5218 63.7856 66.9444 64.2294 66.9444 64.7718V68.7661C66.9444 69.3085 66.5218 69.7522 66.0052 69.7522H62.2014C61.6848 69.7522 61.2622 69.3085 61.2622 68.7661V64.7718C61.2622 64.2294 61.6848 63.7856 62.2014 63.7856Z" fill="#83CF8F"/>
<path d="M69.5744 63.7856H73.3783C73.8948 63.7856 74.3174 64.2294 74.3174 64.7718V68.7661C74.3174 69.3085 73.8948 69.7522 73.3783 69.7522H69.5744C69.0579 69.7522 68.6353 69.3085 68.6353 68.7661V64.7718C68.6353 64.2294 69.0579 63.7856 69.5744 63.7856Z" fill="#FFE356"/>
<path d="M47.4558 71.355H51.2596C51.7762 71.355 52.1988 71.7987 52.1988 72.3412V76.3354C52.1988 76.8778 51.7762 77.3215 51.2596 77.3215H47.4558C46.9392 77.3215 46.5166 76.8778 46.5166 76.3354V72.3412C46.5166 71.7987 46.9392 71.355 47.4558 71.355Z" fill="white"/>
<path d="M54.8288 71.355H58.6327C59.1492 71.355 59.5719 71.7987 59.5719 72.3412V76.3354C59.5719 76.8778 59.1492 77.3215 58.6327 77.3215H54.8288C54.3123 77.3215 53.8896 76.8778 53.8896 76.3354V72.3412C53.8896 71.7987 54.3123 71.355 54.8288 71.355Z" fill="white"/>
<path d="M62.2019 71.355H66.0057C66.5223 71.355 66.9449 71.7987 66.9449 72.3412V76.3354C66.9449 76.8778 66.5223 77.3215 66.0057 77.3215H62.2019C61.6853 77.3215 61.2627 76.8778 61.2627 76.3354V72.3412C61.2627 71.7987 61.6853 71.355 62.2019 71.355Z" fill="white"/>
<path d="M69.5749 71.355H73.3788C73.8953 71.355 74.3179 71.7987 74.3179 72.3412V76.3354C74.3179 76.8778 73.8953 77.3215 73.3788 77.3215H69.5749C69.0584 77.3215 68.6357 76.8778 68.6357 76.3354V72.3412C68.6357 71.7987 69.0584 71.355 69.5749 71.355Z" fill="white"/>
<path d="M47.4558 78.949H51.2596C51.7762 78.949 52.1988 79.3927 52.1988 79.9352V83.9294C52.1988 84.4718 51.7762 84.9156 51.2596 84.9156H47.4558C46.9392 84.9156 46.5166 84.4718 46.5166 83.9294V79.9352C46.5166 79.3927 46.9392 78.949 47.4558 78.949Z" fill="white"/>
<path d="M54.8288 78.9492H58.6327C59.1492 78.9492 59.5719 79.393 59.5719 79.9354V83.9296C59.5719 84.472 59.1492 84.9158 58.6327 84.9158H54.8288C54.3123 84.9158 53.8896 84.472 53.8896 83.9296V79.9354C53.8896 79.393 54.3123 78.9492 54.8288 78.9492Z" fill="white"/>
<path d="M62.2019 78.9492H66.0057C66.5223 78.9492 66.9449 79.393 66.9449 79.9354V83.9296C66.9449 84.472 66.5223 84.9158 66.0057 84.9158H62.2019C61.6853 84.9158 61.2627 84.472 61.2627 83.9296V79.9354C61.2627 79.393 61.6853 78.9492 62.2019 78.9492Z" fill="white"/>
<path d="M69.5749 78.9492H73.3788C73.8953 78.9492 74.3179 79.393 74.3179 79.9354V83.9296C74.3179 84.472 73.8953 84.9158 73.3788 84.9158H69.5749C69.0584 84.9158 68.6357 84.472 68.6357 83.9296V79.9354C68.6357 79.393 69.0584 78.9492 69.5749 78.9492Z" fill="white"/>
<path d="M47.4558 86.5186H51.2596C51.7762 86.5186 52.1988 86.9623 52.1988 87.5047V91.499C52.1988 92.0414 51.7762 92.4851 51.2596 92.4851H47.4558C46.9392 92.4851 46.5166 92.0414 46.5166 91.499V87.5047C46.5166 86.9623 46.9392 86.5186 47.4558 86.5186Z" fill="white"/>
<path d="M54.8288 86.5186H58.6327C59.1492 86.5186 59.5719 86.9623 59.5719 87.5047V91.499C59.5719 92.0414 59.1492 92.4851 58.6327 92.4851H54.8288C54.3123 92.4851 53.8896 92.0414 53.8896 91.499V87.5047C53.8896 86.9623 54.3123 86.5186 54.8288 86.5186Z" fill="white"/>
<path d="M62.2019 86.5186H66.0057C66.5223 86.5186 66.9449 86.9623 66.9449 87.5047V91.499C66.9449 92.0414 66.5223 92.4851 66.0057 92.4851H62.2019C61.6853 92.4851 61.2627 92.0414 61.2627 91.499V87.5047C61.2627 86.9623 61.6853 86.5186 62.2019 86.5186Z" fill="white"/>
<path d="M69.5749 86.5186H73.3788C73.8953 86.5186 74.3179 86.9623 74.3179 87.5047V91.499C74.3179 92.0414 73.8953 92.4851 73.3788 92.4851H69.5749C69.0584 92.4851 68.6357 92.0414 68.6357 91.499V87.5047C68.6357 86.9623 69.0584 86.5186 69.5749 86.5186Z" fill="white"/>
<path d="M45.5771 51.0874H77.4875V58.5089H45.5771V51.0874Z" fill="#ECF0F1"/>
<path d="M74.2002 51.9753C74.6934 51.9753 75.163 52.1972 75.4916 52.5425C75.8203 52.8876 76.0318 53.3809 76.0318 53.8986V55.3039C76.0318 55.8463 75.8205 56.3149 75.4916 56.66C75.163 57.0051 74.6932 57.2271 74.2002 57.2271C73.7072 57.2271 73.2374 57.0053 72.9088 56.66C72.5801 56.3149 72.3687 55.8216 72.3687 55.3039V53.8986C72.3687 53.3561 72.58 52.8876 72.9088 52.5425C73.2376 52.1974 73.707 51.9753 74.2002 51.9753ZM75.022 53.0356C74.8107 52.8137 74.5055 52.6657 74.2002 52.6657C73.8716 52.6657 73.5897 52.8137 73.3784 53.0356C73.1671 53.2575 73.0261 53.578 73.0261 53.8986V55.3039C73.0261 55.649 73.1671 55.945 73.3784 56.1669C73.5897 56.3888 73.8949 56.5367 74.2002 56.5367C74.5289 56.5367 74.8107 56.3888 75.022 56.1669C75.2333 55.945 75.3743 55.6245 75.3743 55.3039V53.8986C75.3743 53.5533 75.2333 53.2575 75.022 53.0356Z" fill="#807E7E"/>
<path d="M10.6143 35.8008H27.8257V37.4774H10.6143V35.8008Z" fill="#83CF8F"/>
<path d="M15.6152 40.1897H34.8931V41.8663H15.6152V40.1897Z" fill="#C6CBD6"/>
<path d="M15.6152 46.4277H34.8931V48.0796H15.6152V46.4277Z" fill="#C6CBD6"/>
<path d="M15.6152 52.6409H34.8931V54.3176H15.6152V52.6409Z" fill="#C6CBD6"/>
<path d="M15.6152 58.8789H34.8931V60.5309H15.6152V58.8789Z" fill="#C6CBD6"/>
<path d="M15.6152 65.0923H25.266V66.7689H15.6152V65.0923Z" fill="#FF7069"/>
<path d="M1.57373 71.7988H3.24096V73.5495H1.57373V71.7988ZM35.081 71.7988H36.7482V73.5495H35.081V71.7988ZM31.3475 71.7988H33.0148V73.5495H31.3475V71.7988ZM27.6141 71.7988H29.2813V73.5495H27.6141V71.7988ZM23.8806 71.7988H25.5478V73.5495H23.8806V71.7988ZM20.1471 71.7988H21.8144V73.5495H20.1471V71.7988ZM16.4137 71.7988H18.0809V73.5495H16.4137V71.7988ZM12.6802 71.7988H14.3474V73.5495H12.6802V71.7988ZM8.94672 71.7988H10.6139V73.5495H8.94672V71.7988ZM5.21325 71.7988H6.88047V73.5495H5.21325V71.7988Z" fill="#C6CBD6"/>
<path d="M4.13326 45.0961C4.13326 44.0606 4.34456 43.2222 4.74378 42.5811C5.14299 41.94 5.75351 41.5208 6.55174 41.3483V40.2141H8.43028V41.3483C9.2521 41.5208 9.86262 41.94 10.2852 42.5563C10.6844 43.1974 10.8957 44.0358 10.8957 45.0959V45.5889H8.71195V44.9479C8.71195 44.3807 8.61799 44.011 8.40669 43.7644C8.19539 43.5425 7.91352 43.4193 7.56128 43.4193C7.20904 43.4193 6.92737 43.5425 6.71587 43.7644C6.50457 43.9863 6.41061 44.3807 6.41061 44.9479C6.41061 45.4657 6.52796 45.934 6.73926 46.3039C6.95057 46.6738 7.23244 47.0436 7.58467 47.3642C7.91332 47.6847 8.26556 48.0053 8.66477 48.3258C9.0404 48.6463 9.41623 48.9914 9.74487 49.3861C10.0735 49.7805 10.3554 50.249 10.5903 50.7669C10.8016 51.2847 10.9189 51.901 10.9189 52.6408C10.9189 53.701 10.7076 54.5392 10.285 55.1803C9.86242 55.8214 9.2519 56.2406 8.43008 56.4131V57.5227H6.55155V56.4131C5.70614 56.2406 5.09582 55.8214 4.67302 55.1803C4.2738 54.5392 4.0625 53.6763 4.0625 52.6408V51.5805H6.24629V52.7886C6.24629 53.3557 6.36364 53.7254 6.57494 53.9475C6.78624 54.1696 7.06811 54.268 7.44374 54.268C7.79597 54.268 8.10123 54.1694 8.31254 53.9475C8.52384 53.7256 8.64119 53.3312 8.64119 52.7886C8.64119 52.2707 8.52384 51.8024 8.31254 51.4325C8.10123 51.0627 7.81937 50.6928 7.46713 50.3722C7.13848 50.0517 6.76265 49.7312 6.38703 49.4106C6.0114 49.0901 5.63557 48.745 5.30693 48.3504C4.97828 47.9559 4.69641 47.4874 4.46152 46.9696C4.22663 46.4517 4.13326 45.8358 4.13326 45.0961Z" fill="#FFE356"/>
</svg>
