<svg width="250" height="251" viewBox="0 0 250 251" fill="none" xmlns="http://www.w3.org/2000/svg">
<path d="M129.353 247.883L247.122 177.753C247.977 177.246 248.692 176.51 249.196 175.62C249.701 174.729 249.978 173.714 249.999 172.675C250.02 171.635 249.785 170.609 249.317 169.695C248.849 168.782 248.165 168.015 247.331 167.469L133.169 92.4194C132.302 91.8484 131.306 91.5381 130.286 91.5217C129.266 91.5054 128.262 91.7837 127.379 92.3268L2.80838 169.044C1.95442 169.568 1.24537 170.321 0.752434 171.228C0.259493 172.134 0 173.162 0 174.209C0 175.256 0.259493 176.284 0.752434 177.191C1.24537 178.098 1.95442 178.851 2.80838 179.375L113.888 247.771C116.235 249.214 118.895 249.983 121.607 250.003C124.319 250.022 126.988 249.292 129.353 247.883Z" fill="#F8997C"/>
<path d="M219.205 165.583V169.104L217.529 171.281" fill="#ADCEE1"/>
<path d="M152.509 122.708L217.3 165.329C217.892 165.719 218.379 166.266 218.711 166.916C219.044 167.565 219.211 168.296 219.197 169.035C219.183 169.775 218.988 170.497 218.631 171.132C218.274 171.767 217.767 172.293 217.161 172.658L118.847 231.659C117.472 232.483 115.918 232.909 114.339 232.895C112.761 232.88 111.214 232.425 109.853 231.576L45.3494 191.355C40.6603 187.269 40.9834 179.579 45.3494 179.254L143.104 122.551C144.538 121.67 146.171 121.22 147.827 121.248C149.484 121.275 151.102 121.78 152.509 122.708Z" fill="#88D3D8"/>
<path d="M152.515 119.768L217.307 162.388C217.898 162.778 218.385 163.325 218.717 163.975C219.05 164.625 219.217 165.356 219.203 166.095C219.189 166.834 218.994 167.557 218.637 168.192C218.28 168.827 217.773 169.353 217.167 169.717L118.844 228.728C117.47 229.552 115.915 229.978 114.337 229.964C112.758 229.949 111.211 229.494 109.85 228.645L45.3471 188.415C44.5913 187.948 43.9641 187.28 43.5282 186.476C43.0922 185.672 42.8628 184.761 42.8628 183.833C42.8628 182.905 43.0922 181.994 43.5282 181.19C43.9641 180.386 44.5913 179.717 45.3471 179.251L143.102 119.61C144.537 118.728 146.171 118.277 147.829 118.305C149.487 118.332 151.107 118.838 152.515 119.768Z" fill="white"/>
<path d="M156.54 129.537L180.23 145.196C180.65 145.473 180.995 145.861 181.232 146.323C181.468 146.784 181.587 147.303 181.577 147.828C181.568 148.353 181.429 148.867 181.176 149.318C180.923 149.769 180.564 150.143 180.134 150.403L95.1011 201.834C93.8304 202.612 92.3895 203.021 90.9228 203.021C89.4561 203.021 88.0152 202.612 86.7445 201.834C81.2783 198.453 71.9001 192.365 66.1107 188.622C65.6011 188.285 65.1818 187.815 64.8934 187.256C64.6049 186.698 64.4571 186.069 64.4641 185.433C64.4711 184.796 64.6328 184.171 64.9334 183.62C65.2341 183.068 65.6636 182.609 66.1806 182.285C83.3827 171.676 139.53 137.051 151.755 129.472C152.482 129.019 153.312 128.786 154.156 128.797C154.999 128.809 155.823 129.065 156.54 129.537Z" fill="#112E7C"/>
<path d="M155.213 172.046L125.524 189.77C125.068 190.042 124.688 190.437 124.422 190.914C124.156 191.392 124.013 191.936 124.009 192.49C124.004 193.045 124.138 193.591 124.396 194.073C124.655 194.556 125.029 194.957 125.48 195.237L142.944 206.087C143.544 206.454 144.225 206.648 144.917 206.648C145.61 206.648 146.291 206.454 146.891 206.087L177.287 187.695C177.668 187.465 177.986 187.133 178.206 186.731C178.427 186.329 178.543 185.872 178.543 185.406C178.543 184.941 178.427 184.484 178.206 184.082C177.986 183.68 177.668 183.348 177.287 183.118L159.116 172C158.517 171.648 157.843 171.467 157.158 171.475C156.474 171.483 155.804 171.68 155.213 172.046Z" fill="#112E7C"/>
<path opacity="0.1" d="M156.54 129.537L180.23 145.196C180.65 145.473 180.995 145.861 181.232 146.323C181.468 146.784 181.587 147.303 181.577 147.828C181.568 148.353 181.429 148.867 181.176 149.318C180.923 149.769 180.564 150.143 180.134 150.403L95.1011 201.834C93.8304 202.612 92.3895 203.021 90.9228 203.021C89.4561 203.021 88.0152 202.612 86.7445 201.834C81.2783 198.453 71.9001 192.365 66.1107 188.622C65.6011 188.285 65.1818 187.815 64.8934 187.256C64.6049 186.698 64.4571 186.069 64.4641 185.433C64.4711 184.796 64.6328 184.171 64.9334 183.62C65.2341 183.068 65.6636 182.609 66.1806 182.285C83.3827 171.676 139.53 137.051 151.755 129.472C152.482 129.019 153.312 128.786 154.156 128.797C154.999 128.809 155.823 129.065 156.54 129.537Z" fill="#053855"/>
<path opacity="0.1" d="M155.213 172.046L125.524 189.77C125.068 190.042 124.688 190.437 124.422 190.914C124.156 191.392 124.013 191.936 124.009 192.49C124.004 193.045 124.138 193.591 124.396 194.073C124.655 194.556 125.029 194.957 125.48 195.237L142.944 206.087C143.544 206.454 144.225 206.648 144.917 206.648C145.61 206.648 146.291 206.454 146.891 206.087L177.287 187.695C177.668 187.465 177.986 187.133 178.206 186.731C178.427 186.329 178.543 185.872 178.543 185.406C178.543 184.941 178.427 184.484 178.206 184.082C177.986 183.68 177.668 183.348 177.287 183.118L159.116 172C158.517 171.648 157.843 171.467 157.158 171.475C156.474 171.483 155.804 171.68 155.213 172.046Z" fill="#053855"/>
<path opacity="0.32" d="M203.328 164.707L158.35 193.809L114.646 166.115L157.381 138.208" fill="url(#paint0_linear_1155_2524)"/>
<path d="M185.774 149.633V171.221H187.276L187.599 149.077" fill="#808080"/>
<path d="M194.341 141.326L197.354 164.795H195.843L192.691 142.197" fill="#808080"/>
<path d="M163.917 157.739C163.917 157.739 162.512 162.622 162.171 163.122C161.831 163.623 157.255 166.828 157.334 167.838C157.412 168.848 159.15 169.247 160.233 169.163C161.315 169.08 167.55 166.319 167.943 165.503C168.336 164.688 168.336 157.739 168.336 157.739H163.917Z" fill="#5C2D1D"/>
<path d="M171.316 163.454C171.316 163.454 169.91 168.337 169.569 168.838C169.229 169.338 164.653 172.544 164.732 173.554C164.811 174.564 166.548 174.962 167.631 174.879C168.714 174.795 174.948 172.034 175.341 171.219C175.734 170.403 175.734 163.454 175.734 163.454H171.316Z" fill="#5C2D1D"/>
<path d="M195.155 119.009C194.753 120.195 192.535 138.197 192.535 138.197L190.265 137.391L193.208 118.916" fill="#808080"/>
<path d="M194.342 141.329L194.377 138.429L191.958 139.309L192.692 142.2" fill="#A9CBF8"/>
<path d="M188.85 136.831C188.85 136.831 194.962 139.305 194.316 141.742C193.67 144.178 188.858 150.145 185.75 149.626C182.641 149.108 178.852 146.245 178.852 146.245" fill="#4A42A4"/>
<path d="M188.85 133.871C188.85 133.871 194.962 136.345 194.316 138.781C193.67 141.218 188.858 147.185 185.75 146.666C182.641 146.147 178.852 143.284 178.852 143.284" fill="#A6ACED"/>
<path d="M191.286 111.26C191.286 111.26 197.154 112.816 197.747 116.402C198.341 119.988 198.516 126.594 190.177 124.027C181.838 121.461 185.811 114.818 185.811 114.818" fill="#A6ACED"/>
<path d="M183.454 118.916C183.454 118.916 185.523 128.182 183.986 133.101C182.45 138.021 173.718 142.015 173.718 142.015L170.033 161.907C168.516 162.369 166.928 162.505 165.361 162.307C163.794 162.11 162.281 161.583 160.908 160.758C160.908 160.758 161.929 143.21 163.475 138.753C165.02 134.297 177.036 125.55 177.036 125.55" fill="#895851"/>
<path d="M183.789 130.668C183.789 130.668 171.773 139.414 170.228 143.871C168.682 148.328 167.661 165.876 167.661 165.876C169.029 166.695 170.538 167.217 172.098 167.413C173.658 167.608 175.24 167.473 176.751 167.016L180.436 147.123C180.436 147.123 186.688 145.27 188.216 140.285C189.744 135.3 189.089 127.823 189.089 127.823" fill="#895851"/>
<path d="M188.573 130.852C190.625 125.561 191.507 111.811 190.241 110.153C187.622 106.715 182.068 107.142 182.068 107.142C182.068 107.142 178.846 105.094 176.148 107.512C174.139 109.319 175.571 120.382 176.148 127.414C179.649 130.852 183.535 131.815 188.573 130.852Z" fill="#8CC63F"/>
<path d="M179.97 132.43C177.805 134.718 175.491 136.924 173.483 139.37C171.736 141.491 171.046 144.178 170.365 146.847C168.931 153.092 167.933 159.44 167.379 165.841C167.379 166.23 167.912 166.221 167.946 165.841C168.489 159.685 169.435 153.577 170.776 147.56C171.5 144.623 172.216 141.705 174.199 139.425C176.181 137.146 178.311 135.043 180.372 132.856C180.411 132.797 180.43 132.726 180.424 132.654C180.418 132.582 180.389 132.514 180.341 132.463C180.293 132.412 180.229 132.381 180.161 132.375C180.094 132.369 180.026 132.388 179.97 132.43Z" fill="#5C2D1D"/>
<path d="M203.696 147.601L204.813 146.952L153.53 115.784L120.174 135.862L120.619 136.14V162.639C120.63 162.7 120.661 162.756 120.706 162.796C120.752 162.836 120.809 162.858 120.868 162.858C120.927 162.858 120.984 162.836 121.03 162.796C121.075 162.756 121.106 162.7 121.117 162.639V136.446L170.453 167.021L170.575 166.947V186.024C170.586 186.086 170.617 186.142 170.662 186.181C170.708 186.221 170.765 186.243 170.824 186.243C170.883 186.243 170.94 186.221 170.986 186.181C171.031 186.142 171.062 186.086 171.073 186.024V166.669L203.381 147.814V164.705C203.392 164.766 203.423 164.822 203.469 164.862C203.514 164.902 203.571 164.924 203.63 164.924C203.689 164.924 203.746 164.902 203.792 164.862C203.837 164.822 203.868 164.766 203.879 164.705V147.842C203.88 147.785 203.862 147.73 203.829 147.686C203.795 147.642 203.748 147.612 203.696 147.601Z" fill="#DD654A"/>
<path d="M203.696 147.601L204.813 146.952L153.53 115.784L120.174 135.862L120.619 136.14V162.639C120.63 162.7 120.661 162.756 120.706 162.796C120.752 162.836 120.809 162.858 120.868 162.858C120.927 162.858 120.984 162.836 121.03 162.796C121.075 162.756 121.106 162.7 121.117 162.639V136.446L170.453 167.021L170.575 166.947V186.024C170.586 186.086 170.617 186.142 170.662 186.181C170.708 186.221 170.765 186.243 170.824 186.243C170.883 186.243 170.94 186.221 170.986 186.181C171.031 186.142 171.062 186.086 171.073 186.024V166.669L203.381 147.814V164.705C203.392 164.766 203.423 164.822 203.469 164.862C203.514 164.902 203.571 164.924 203.63 164.924C203.689 164.924 203.746 164.902 203.792 164.862C203.837 164.822 203.868 164.766 203.879 164.705V147.842C203.88 147.785 203.862 147.73 203.829 147.686C203.795 147.642 203.748 147.612 203.696 147.601Z" fill="#DD654A"/>
<path opacity="0.32" d="M152.224 134.876L136.113 144.401C138.811 146.208 149.639 152.388 152.241 154.333L168.893 143.03L166.143 135.951L152.224 134.876Z" fill="url(#paint1_linear_1155_2524)"/>
<path d="M165.528 145.105L177.264 137.851L161.974 128.53L149.985 135.071" fill="#B3B3B3"/>
<path d="M162.496 130.803C162.496 130.803 165.578 145.294 165.535 145.108C165.491 144.923 150.341 136.288 150.236 135.982C150.131 135.676 146.228 120.972 146.228 120.972L162.496 130.803Z" fill="white"/>
<path d="M158.057 128.128L161.218 126.108L164.982 129.435L162.152 130.695L158.057 128.128Z" fill="#FFE0CE"/>
<path d="M159.819 125.827C159.819 125.827 164.001 127.393 163.652 131.507C163.652 131.507 170.175 128.625 171.625 126.791C173.074 124.956 176.148 120.981 176.148 120.981V107.5C176.148 107.5 168.289 120.472 166.543 122.075C165.18 123.344 159.819 125.827 159.819 125.827Z" fill="#8CC63F"/>
<path d="M181.409 105.298C181.409 106.429 181.409 107.559 181.409 108.689C181.601 109.208 181.871 109.57 182.282 109.523C183.557 109.375 185.067 107.364 185.067 107.364L185.294 104.214L181.409 105.298Z" fill="#F9C7AF"/>
<path d="M187.601 97.4768C186.806 95.6238 185.243 95.318 183.628 95.6238C183.259 95.3452 182.845 95.1439 182.405 95.0308C181.707 94.8497 180.975 94.8805 180.292 95.1197C179.61 95.3589 179.005 95.7968 178.546 96.3835C178.105 96.3242 177.657 96.3848 177.244 96.5596C176.031 97.1062 175.882 98.4775 176.162 99.682C176.162 99.7283 176.162 99.7746 176.162 99.821C176.234 100.474 176.464 101.096 176.83 101.627C177.196 102.158 177.684 102.579 178.249 102.851L184.553 106.186C185.236 105.79 185.813 105.216 186.23 104.518C186.366 104.244 186.455 103.946 186.492 103.638L186.614 103.499C187.278 102.685 187.721 101.694 187.895 100.633C188.069 99.5724 187.967 98.4811 187.601 97.4768Z" fill="#895851"/>
<path d="M178.145 101.158C178.302 101.871 179.437 108.653 182.319 108.079C185.201 107.504 185.384 102.992 185.384 102.992C185.384 102.992 182.764 102.242 182.563 101.204C182.363 100.166 182.459 99.7124 181.184 99.4344C179.909 99.1564 177.874 99.9718 178.145 101.158Z" fill="#FFE0CE"/>
<path d="M175.618 121.647L175.199 115.022L173.321 124.612L175.618 121.647Z" fill="#6D9928"/>
<path d="M175.827 132.939C175.574 132.969 175.329 133.047 175.102 133.171C174.421 133.523 173.662 133.754 172.989 134.097C171.874 134.805 170.967 135.828 170.37 137.053C170.23 137.368 169.654 138.535 169.951 138.86C170.247 139.184 170.937 138.86 170.937 138.86C170.937 138.86 170.937 139.527 171.121 139.675C171.304 139.823 171.994 139.286 171.994 139.286C171.994 139.286 172.291 140.101 172.71 139.907C173.129 139.712 173.862 138.554 173.862 138.554C173.862 138.554 173.784 139.48 174.151 139.48C174.517 139.48 176.063 137.21 176.063 137.21L179.346 135.357C179.346 135.357 178.377 134.245 178.281 134.144C177.838 133.677 177.317 133.303 176.744 133.041C176.451 132.928 176.136 132.893 175.827 132.939Z" fill="#FFE0CE"/>
<path d="M175.281 135.88C174.539 136.73 173.981 137.742 173.648 138.845C173.648 138.984 173.805 139.04 173.849 138.901C174.172 137.835 174.711 136.858 175.429 136.038C175.517 135.936 175.377 135.778 175.281 135.88Z" fill="#5C2D1D"/>
<path d="M174.322 135.203C173.133 136.343 172.291 137.834 171.904 139.484C171.901 139.51 171.907 139.537 171.921 139.559C171.935 139.582 171.957 139.597 171.981 139.604C172.006 139.611 172.032 139.608 172.054 139.596C172.077 139.584 172.095 139.564 172.104 139.539C172.483 137.927 173.307 136.472 174.471 135.361C174.567 135.296 174.418 135.101 174.322 135.203Z" fill="#5C2D1D"/>
<path d="M173.337 134.961C172.171 136.021 171.299 137.399 170.814 138.945C170.814 139.084 170.971 139.14 171.015 139.001C171.49 137.489 172.344 136.144 173.486 135.109C173.591 135.026 173.442 134.868 173.337 134.961Z" fill="#5C2D1D"/>
<path d="M190.437 121.476C190.437 121.476 189.232 129.63 187.617 131.51C186.001 133.391 178.885 136.736 178.885 136.736C178.885 136.736 177.138 133.41 175.217 132.631C175.217 132.631 182.465 128.305 182.648 127.489" fill="#8CC63F"/>
<path d="M184.478 116.008C184.355 117.768 184.189 119.519 183.945 121.261C183.814 122.829 183.545 124.379 183.142 125.894C182.609 127.497 180.592 128.451 179.308 129.331C178.025 130.211 176.584 131.184 175.213 132.111C174.899 132.315 175.213 132.834 175.501 132.63C177.108 131.592 178.7 130.523 180.277 129.424C181.343 128.683 182.967 127.914 183.535 126.644C184.043 125.073 184.354 123.437 184.46 121.78C184.731 119.927 184.923 117.99 185.054 116.082C185.063 115.619 184.478 115.628 184.478 116.008Z" fill="#6D9928"/>
<path d="M34.9145 80.1331C34.3837 80.4506 33.9422 80.9123 33.6352 81.4709C33.3283 82.0294 33.1671 82.6645 33.1681 83.3111V172.824C33.0458 174.677 34.9931 176.335 36.5736 175.381L71.1174 154.515C72.5058 153.672 135.734 115.925 135.734 114.23L139.218 20.4087C139.23 20.0958 139.163 19.7852 139.023 19.5092C138.884 19.2331 138.678 19.0015 138.426 18.8381C138.174 18.6748 137.886 18.5857 137.591 18.58C137.296 18.5743 137.005 18.6522 136.747 18.8058C121.327 28.0896 41.9263 75.8154 34.9145 80.1331Z" fill="#112E7C"/>
<path opacity="0.6" d="M41.7793 88.4258V163.568L49.4023 158.416V83.7561L41.7793 88.4258Z" fill="white"/>
<path d="M52.1279 72.1911L36.3404 82.0123C36.188 82.1067 36.0618 82.2421 35.9744 82.4048C35.887 82.5674 35.8416 82.7516 35.8426 82.9389V172.359C35.8435 172.485 35.8756 172.609 35.9357 172.718C35.9958 172.827 36.0819 172.918 36.1853 172.981C36.2887 173.044 36.4058 173.076 36.5249 173.076C36.6441 173.076 36.7611 173.043 36.8643 172.979L135.868 111.828C135.862 112.577 135.69 113.314 135.367 113.98C135.044 114.646 134.579 115.223 134.008 115.664C132.113 116.943 36.6111 175.296 36.6111 175.296C36.6111 175.296 33.9914 176.565 33.2056 173.22V83.3095C33.2069 82.7278 33.3372 82.1547 33.586 81.6364C33.8348 81.1181 34.195 80.6692 34.6376 80.326C36.1657 79.1493 134.488 18.378 134.488 18.378C134.488 18.378 138.068 16.9882 139.256 19.3045L62.2308 66.0111" fill="#124577"/>
<path d="M142.222 0.22635C136.703 3.69159 123.011 12.2713 118.968 14.7822C118.62 14.9966 118.332 15.305 118.132 15.676C117.933 16.0471 117.83 16.4676 117.833 16.8947V76.3782C117.815 76.6724 117.868 76.9665 117.988 77.2326C118.108 77.4986 118.29 77.7276 118.517 77.8977C118.743 78.0678 119.008 78.1733 119.284 78.2041C119.56 78.235 119.839 78.1901 120.095 78.0737L143.051 64.1757C143.497 63.9545 143.876 63.6041 144.143 63.1649C144.41 62.7257 144.555 62.2154 144.562 61.6926V1.64395C144.561 1.35399 144.488 1.0694 144.35 0.818867C144.213 0.568339 144.015 0.360729 143.778 0.216968C143.541 0.073208 143.272 -0.00162034 142.999 2.66108e-05C142.725 0.00167357 142.457 0.0797381 142.222 0.22635Z" fill="#FFA513"/>
<path d="M122.01 20.4229L140.278 9.36942" stroke="#F2F2F2" stroke-miterlimit="10"/>
<path d="M122.01 24.8408L140.278 13.778" stroke="#F2F2F2" stroke-miterlimit="10"/>
<path d="M121.568 30.3798L139.835 19.317" stroke="#F2F2F2" stroke-miterlimit="10"/>
<path d="M121.568 34.7848L139.835 23.722" stroke="#F2F2F2" stroke-miterlimit="10"/>
<path d="M123.323 53.7618L141.59 42.7082" stroke="#F2F2F2" stroke-miterlimit="10"/>
<path d="M123.323 58.1807L141.59 47.1179" stroke="#F2F2F2" stroke-miterlimit="10"/>
<path d="M122.864 63.7L141.131 52.6465" stroke="#F2F2F2" stroke-miterlimit="10"/>
<path d="M122.864 68.1191L141.131 57.0563" stroke="#F2F2F2" stroke-miterlimit="10"/>
<path opacity="0.6" d="M53.4043 82.0802V143.463L59.6302 139.256V78.2628L53.4043 82.0802Z" fill="white"/>
<path d="M40.5068 123.657L58.7742 112.594" stroke="white" stroke-miterlimit="10"/>
<path d="M40.5068 128.073L58.7742 117.02" stroke="white" stroke-miterlimit="10"/>
<path d="M40.0698 133.599L58.3372 122.536" stroke="white" stroke-miterlimit="10"/>
<path d="M40.0698 138.023L58.3372 126.96" stroke="white" stroke-miterlimit="10"/>
<path d="M26.0356 142.016V151.81L28.4544 150.179V140.59C27.6249 141.034 26.8128 141.498 26.0356 142.016Z" fill="white"/>
<path d="M30.8687 135.748V148.979L33.2874 147.339V134.497L30.8687 135.748Z" fill="white"/>
<path d="M35.7134 128.923V146.259L38.1322 144.628V127.886C37.3375 128.247 36.5342 128.599 35.7134 128.923Z" fill="white"/>
<path opacity="0.32" d="M95.9142 180.617L77.2189 193.81L67.8232 187.908L86.6582 176.299" fill="url(#paint2_linear_1155_2524)"/>
<path d="M66.6356 111.619L89.7929 123.738C89.7929 123.738 90.7272 126.953 88.7101 127.769C86.6931 128.584 63.0991 115.084 63.0991 115.084" fill="#112E7C"/>
<path d="M79.2661 118.74C77.8923 117.999 76.5388 117.217 75.2057 116.396C74.9699 115.853 74.7075 115.325 74.4199 114.811C74.2271 114.4 73.9182 114.063 73.5363 113.847C73.1543 113.631 72.7184 113.547 72.2893 113.607C72.1212 113.641 71.9702 113.738 71.8636 113.88C71.757 114.022 71.7019 114.2 71.7082 114.381C71.7145 114.563 71.7819 114.736 71.8981 114.869C72.0143 115.002 72.1716 115.087 72.3416 115.108L72.4552 115.247C70.8048 115.33 67.8185 115.59 68.4908 117.313C68.4309 117.363 68.3753 117.419 68.3249 117.48C68.1557 117.698 68.0714 117.977 68.0893 118.26C68.1071 118.542 68.2257 118.806 68.421 118.999C68.5679 119.149 68.7482 119.258 68.945 119.314C69.1419 119.371 69.3491 119.374 69.5474 119.324C69.6759 119.598 69.8982 119.811 70.1692 119.917C70.4402 120.024 70.7393 120.017 71.0056 119.898L71.4161 119.768C71.4004 119.878 71.4103 119.99 71.4448 120.094C71.4794 120.198 71.5376 120.292 71.6143 120.367C71.6911 120.442 71.784 120.496 71.8849 120.524C71.9858 120.552 72.0917 120.554 72.1932 120.528L73.5554 120.25C76.6553 121.297 78.2008 121.677 79.3622 122.52C79.8424 122.872 79.3622 123.002 79.3622 122.52C79.4169 122.446 79.4566 122.361 79.4788 122.269C79.501 122.178 79.5053 122.083 79.4914 121.99C79.4774 121.897 79.4456 121.808 79.3978 121.729C79.3501 121.649 79.2874 121.581 79.2137 121.529L79.0828 121.427C79.1556 121.37 79.2167 121.297 79.2622 121.214C79.3077 121.131 79.3366 121.039 79.3472 120.943C79.3579 120.848 79.35 120.751 79.324 120.659C79.298 120.567 79.2546 120.481 79.1963 120.408L79.0304 120.204C79.1817 120.176 79.3212 120.099 79.4296 119.984C79.5381 119.869 79.6103 119.721 79.6362 119.56C79.662 119.4 79.6403 119.235 79.574 119.088C79.5078 118.941 79.4002 118.819 79.2661 118.74Z" fill="#FF7D09"/>
<path d="M95.159 169.296L95.91 180.618L94.539 181.841L93.0546 181.433C93.0546 181.433 93.2467 178.44 92.7228 177.783C92.1988 177.125 91.3169 180.377 90.8104 180.358C90.304 180.34 84.2614 178.626 84.1741 177.838C84.0606 176.791 85.414 175.596 87.9813 176.254C90.758 176.967 91.2383 173.65 91.6836 170.472" fill="#F8997C"/>
<path d="M90.8263 171.559C90.8263 171.559 93.4459 172.745 97.9865 169.706C97.9865 169.706 96.4235 154.696 96.5545 152.101C96.6854 149.507 99.4098 130.847 96.048 126.733C92.6862 122.619 86.6873 162.164 86.9492 162.395" fill="#A1C3FC"/>
<path d="M93.012 178.221L92.7587 177.786C92.5672 177.591 92.3304 177.454 92.0726 177.389C91.8148 177.324 91.5453 177.333 91.2917 177.415C90.567 177.776 90.6718 180.463 90.6718 180.463L93.1866 179.463C93.214 179.04 93.1544 178.617 93.012 178.221Z" fill="#9E005D"/>
<path d="M86.9384 174.849L86.6764 186.189L85.2357 187.273L83.7949 186.718C83.7949 186.718 84.2489 183.753 83.7949 183.011C83.3408 182.27 82.162 185.457 81.6555 185.383C81.1491 185.309 75.2899 183.002 75.2725 182.205C75.2725 181.149 76.7132 180.102 79.2019 181.019C81.9 182.011 82.6947 178.759 83.4019 175.636" fill="#F8997C"/>
<path d="M84.0133 183.478L83.8038 183.015C83.6303 182.801 83.406 182.64 83.1543 182.548C82.9025 182.457 82.6323 182.439 82.3717 182.496C81.6121 182.783 81.4985 185.461 81.4985 185.461L84.1181 184.72C84.1679 184.302 84.1321 183.879 84.0133 183.478Z" fill="#9E005D"/>
<path d="M86.0675 131.135C86.0675 131.135 81.588 143.939 80.5751 149.489C79.5622 155.039 79.5185 175.831 79.8853 176.359C80.252 176.887 84.6005 177.915 87.552 177.915C90.5034 177.915 90.0843 153.335 90.0843 153.335C90.0843 153.335 98.0741 131.848 95.9347 129.495C93.7954 127.141 86.0675 131.135 86.0675 131.135Z" fill="#A1C3FC"/>
<path d="M85.8816 131.378C89.9419 132.74 95.1026 131.11 97.5825 127.404C97.1109 121.344 96.1329 111.328 94.666 109.799C92.5441 107.631 87.951 110.726 86.292 113.746C85.3258 116.066 84.5004 118.449 83.8208 120.881L77.5687 117.101L75.6738 121.817C75.6738 121.817 79.9613 130.387 85.7506 128.432L85.8816 131.378Z" fill="#F8997C"/>
<path d="M89.7957 120.269C89.7957 120.201 89.7704 120.136 89.7253 120.089C89.6803 120.041 89.6192 120.014 89.5555 120.014C89.4918 120.014 89.4308 120.041 89.3857 120.089C89.3407 120.136 89.3154 120.201 89.3154 120.269C89.4541 122.227 89.1331 124.191 88.3811 125.985C88.0484 126.722 87.5442 127.356 86.9162 127.828C86.2882 128.299 85.5572 128.593 84.7922 128.682C84.4866 128.682 84.4866 129.201 84.7922 129.191C85.6089 129.107 86.3932 128.81 87.0745 128.324C87.7559 127.839 88.3128 127.182 88.6954 126.412C89.7171 124.577 89.8044 122.326 89.7957 120.269Z" fill="white"/>
<path d="M87.6004 98.8181C87.2686 98.8923 86.7272 99.4482 85.95 101.431C85.1729 103.414 87.059 105.934 87.8798 106.462C88.6792 107.209 89.3628 108.084 89.9056 109.056C89.9056 109.056 92.9356 109.835 94.9789 105.897C97.0222 101.959 92.5252 97.6785 87.6004 98.8181Z" fill="#FFB468"/>
<path d="M86.7491 101.011C86.7491 101.011 85.221 107.598 87.4738 109.099C89.7267 110.6 92.7654 106.607 93.0536 105.013C93.3417 103.42 91.7001 99.9637 86.7491 101.011Z" fill="#FF7D09"/>
<path d="M86.7566 101.015C86.7566 101.015 86.3811 105.314 88.503 106.259C90.6249 107.204 90.6424 108.557 90.6424 108.557C90.6424 108.557 94.4844 106.38 94.8861 104.452C95.2878 102.525 89.6993 99.2916 86.7566 101.015Z" fill="#FFB468"/>
<path d="M93.804 106.182C93.0356 112.667 94.5724 120.895 92.0576 126.945C91.9004 127.316 91.5686 128.993 91.3066 128.993L97.4191 125.444C99.8815 123.832 101.663 122.785 100.79 118.69C99.9164 114.595 94.9654 105.867 94.9654 105.867L93.804 106.182Z" fill="#FFB468"/>
<path d="M84.4513 117.696C84.074 119.408 83.7825 121.14 83.5781 122.885C83.5781 123.209 84.0147 123.209 84.0584 122.885C84.2651 121.186 84.5566 119.501 84.9316 117.835C84.9927 117.502 84.5299 117.363 84.4513 117.696Z" fill="white"/>
<path d="M93.0903 109.107L92.514 107.801C91.3862 108.418 90.2191 108.95 89.0212 109.394C87.5805 109.858 87.9821 111.627 87.9821 111.627C87.9821 111.627 91.3177 111.637 93.0903 109.107Z" fill="#5FAD00"/>
<defs>
<linearGradient id="paint0_linear_1155_2524" x1="151.853" y1="178.568" x2="172.321" y2="145.011" gradientUnits="userSpaceOnUse">
<stop stop-opacity="0"/>
<stop offset="0.99" stop-color="#006837"/>
</linearGradient>
<linearGradient id="paint1_linear_1155_2524" x1="149.543" y1="147.477" x2="162.526" y2="132.845" gradientUnits="userSpaceOnUse">
<stop stop-opacity="0"/>
<stop offset="0.99" stop-color="#1A1A1A"/>
</linearGradient>
<linearGradient id="paint2_linear_1155_2524" x1="4281.74" y1="4027.25" x2="4401.97" y2="3691.9" gradientUnits="userSpaceOnUse">
<stop stop-opacity="0"/>
<stop offset="0.99" stop-color="#006837"/>
</linearGradient>
</defs>
</svg>
