<svg width="325" height="448" viewBox="0 0 325 448" fill="none" xmlns="http://www.w3.org/2000/svg">
<g filter="url(#filter0_ddi_1155_2986)">
<g filter="url(#filter1_d_1155_2986)">
<rect x="20" y="20" width="285" height="400" rx="5" fill="url(#paint0_linear_1155_2986)"/>
<rect x="20" y="20" width="285" height="400" rx="5" stroke="url(#paint1_linear_1155_2986)" stroke-width="1.5"/>
</g>
<g filter="url(#filter2_d_1155_2986)">
<path d="M162.5 229L109.718 213.563L98 76H162.5V229Z" fill="#FFC000"/>
<path d="M162.5 229L215.23 213.563L227 76H162.5V229Z" fill="url(#paint2_linear_1155_2986)"/>
<rect x="97" y="75" width="131" height="155" rx="4" stroke="url(#paint3_linear_1155_2986)" stroke-width="2"/>
</g>
<g filter="url(#filter3_d_1155_2986)">
<path d="M67.5631 111.562C65.8027 111.562 64.3965 112.229 63.3444 113.562C62.3027 114.885 61.7819 116.641 61.7819 118.828C61.7819 121.036 62.2975 122.792 63.3288 124.094C64.3704 125.385 65.7402 126.031 67.4381 126.031C69.1881 126.031 70.5683 125.406 71.5788 124.156C72.5996 122.885 73.11 121.141 73.11 118.922C73.11 116.62 72.6204 114.823 71.6413 113.531C70.6621 112.219 69.3027 111.562 67.5631 111.562ZM71.5631 129.578C72.1048 130.161 72.6204 130.641 73.11 131.016C73.5996 131.391 74.0892 131.688 74.5788 131.906C75.0788 132.125 75.5892 132.276 76.11 132.359C76.6308 132.443 77.1985 132.484 77.8131 132.484C77.9798 132.484 78.1621 132.474 78.36 132.453C78.5579 132.443 78.7558 132.417 78.9538 132.375C79.1621 132.344 79.36 132.302 79.5475 132.25C79.735 132.208 79.9069 132.156 80.0631 132.094V136.344C79.7298 136.438 79.2663 136.531 78.6725 136.625C78.0892 136.719 77.3756 136.766 76.5319 136.766C75.511 136.766 74.5683 136.599 73.7038 136.266C72.8496 135.932 72.0267 135.474 71.235 134.891C70.4538 134.318 69.6881 133.641 68.9381 132.859C68.1985 132.078 67.4277 131.24 66.6256 130.344C65.0944 130.302 63.7038 129.984 62.4538 129.391C61.2038 128.797 60.136 128 59.2506 127C58.3652 125.99 57.6777 124.807 57.1881 123.453C56.709 122.099 56.4694 120.646 56.4694 119.094C56.4694 115.542 57.4902 112.677 59.5319 110.5C61.584 108.312 64.3183 107.219 67.735 107.219C70.9121 107.219 73.485 108.271 75.4538 110.375C77.4329 112.458 78.4225 115.214 78.4225 118.641C78.4225 121.318 77.8183 123.62 76.61 125.547C75.4017 127.453 73.7194 128.797 71.5631 129.578ZM102.34 130H96.84L95.2463 125.016H87.2775L85.6994 130H80.2306L88.3869 107.594H94.3713L102.34 130ZM94.09 121.141L91.6838 113.609C91.5067 113.047 91.3817 112.375 91.3088 111.594H91.1838C91.1317 112.25 91.0015 112.901 90.7931 113.547L88.3556 121.141H94.09ZM128.378 130H114.941V107.594H127.863V111.703H119.988V116.688H127.316V120.781H119.988V125.906H128.378V130ZM152.608 130H147.514L138.28 115.922C137.738 115.099 137.363 114.479 137.155 114.062H137.092C137.176 114.854 137.217 116.062 137.217 117.688V130H132.452V107.594H137.889L146.78 121.234C147.186 121.849 147.561 122.458 147.905 123.062H147.967C147.884 122.542 147.842 121.516 147.842 119.984V107.594H152.608V130ZM176.604 128.5C174.416 129.76 171.698 130.391 168.448 130.391C164.843 130.391 162 129.396 159.916 127.406C157.843 125.406 156.807 122.656 156.807 119.156C156.807 115.635 157.942 112.766 160.213 110.547C162.484 108.328 165.505 107.219 169.276 107.219C171.651 107.219 173.744 107.547 175.557 108.203V112.938C173.828 111.938 171.713 111.438 169.213 111.438C167.119 111.438 165.411 112.12 164.088 113.484C162.776 114.839 162.119 116.651 162.119 118.922C162.119 121.224 162.708 123.005 163.885 124.266C165.073 125.526 166.671 126.156 168.682 126.156C169.89 126.156 170.849 125.984 171.557 125.641V121.266H167.073V117.234H176.604V128.5ZM188.365 107.594V111.5H186.49V126.094H188.365V130H179.568V126.094H181.443V111.5H179.568V107.594H188.365ZM212.236 130H207.142L197.908 115.922C197.366 115.099 196.991 114.479 196.783 114.062H196.72C196.803 114.854 196.845 116.062 196.845 117.688V130H192.079V107.594H197.517L206.408 121.234C206.814 121.849 207.189 122.458 207.533 123.062H207.595C207.512 122.542 207.47 121.516 207.47 119.984V107.594H212.236V130ZM231.278 130H217.841V107.594H230.762V111.703H222.887V116.688H230.216V120.781H222.887V125.906H231.278V130ZM248.789 130H235.352V107.594H248.274V111.703H240.399V116.688H247.727V120.781H240.399V125.906H248.789V130ZM271.66 130H265.863L262.379 124.234C262.118 123.797 261.868 123.406 261.629 123.062C261.389 122.719 261.144 122.427 260.894 122.188C260.655 121.938 260.4 121.75 260.129 121.625C259.868 121.49 259.582 121.422 259.269 121.422H257.91V130H252.863V107.594H260.863C266.301 107.594 269.019 109.625 269.019 113.688C269.019 114.469 268.9 115.193 268.66 115.859C268.42 116.516 268.082 117.109 267.644 117.641C267.207 118.172 266.676 118.63 266.051 119.016C265.436 119.401 264.749 119.703 263.988 119.922V119.984C264.321 120.089 264.644 120.26 264.957 120.5C265.269 120.729 265.571 121 265.863 121.312C266.155 121.625 266.431 121.964 266.691 122.328C266.962 122.682 267.207 123.031 267.426 123.375L271.66 130ZM257.91 111.375V117.609H260.098C261.181 117.609 262.051 117.297 262.707 116.672C263.374 116.036 263.707 115.25 263.707 114.312C263.707 112.354 262.535 111.375 260.191 111.375H257.91ZM34.2294 175.094H30.1981C26.8335 171.385 25.1512 166.828 25.1512 161.422C25.1512 156.203 26.8335 151.594 30.1981 147.594H34.1981C31.0419 151.781 29.4637 156.391 29.4637 161.422C29.4637 166.453 31.0523 171.01 34.2294 175.094ZM46.655 170H41.823V151.184H35.615V147.152H52.863V151.184H46.655V170ZM70.0182 170H56.8662V147.152H70.0182V151.12H61.6982V156.144H69.4422V160.112H61.6982V166H70.0182V170ZM84.9485 150.864C83.0925 150.864 81.6738 151.557 80.6925 152.944C79.7112 154.331 79.2205 156.229 79.2205 158.64C79.2205 161.072 79.6685 162.96 80.5645 164.304C81.4818 165.627 82.9432 166.288 84.9485 166.288C85.8872 166.288 86.8152 166.181 87.7325 165.968C88.6712 165.755 89.6845 165.456 90.7725 165.072V169.136C89.7698 169.541 88.7778 169.84 87.7965 170.032C86.8152 170.224 85.7165 170.32 84.5005 170.32C82.1538 170.32 80.2125 169.84 78.6765 168.88C77.1618 167.899 76.0418 166.533 75.3165 164.784C74.5912 163.013 74.2285 160.955 74.2285 158.608C74.2285 156.304 74.6445 154.267 75.4765 152.496C76.3085 150.725 77.5138 149.339 79.0925 148.336C80.6925 147.333 82.6445 146.832 84.9485 146.832C86.0792 146.832 87.2098 146.981 88.3405 147.28C89.4925 147.557 90.5912 147.941 91.6365 148.432L90.0685 152.368C89.2152 151.963 88.3512 151.611 87.4765 151.312C86.6232 151.013 85.7805 150.864 84.9485 150.864ZM104.907 170H100.075V151.184H93.8675V147.152H111.115V151.184H104.907V170ZM115.119 147.152H119.471V158.192C119.471 158.725 119.46 159.323 119.439 159.984C119.417 160.645 119.396 161.296 119.375 161.936C119.353 162.555 119.332 163.099 119.311 163.568C119.289 164.016 119.268 164.325 119.247 164.496H119.343L129.903 147.152H135.695V170H131.375V159.024C131.375 158.448 131.385 157.819 131.407 157.136C131.428 156.432 131.449 155.76 131.471 155.12C131.513 154.48 131.545 153.925 131.567 153.456C131.609 152.965 131.641 152.645 131.663 152.496H131.535L120.943 170H115.119V147.152ZM149.238 147.152C152.182 147.152 154.326 147.792 155.67 149.072C157.036 150.331 157.718 152.069 157.718 154.288C157.718 155.611 157.441 156.859 156.886 158.032C156.332 159.184 155.404 160.112 154.102 160.816C152.822 161.52 151.073 161.872 148.854 161.872H146.774V170H141.942V147.152H149.238ZM148.982 151.12H146.774V157.904H148.374C149.74 157.904 150.817 157.637 151.606 157.104C152.417 156.549 152.822 155.664 152.822 154.448C152.822 152.229 151.542 151.12 148.982 151.12ZM183.252 158.544C183.252 160.912 182.858 162.981 182.068 164.752C181.3 166.501 180.116 167.867 178.516 168.848C176.916 169.829 174.868 170.32 172.372 170.32C169.898 170.32 167.85 169.829 166.228 168.848C164.628 167.867 163.434 166.491 162.644 164.72C161.876 162.949 161.492 160.88 161.492 158.512C161.492 156.144 161.876 154.085 162.644 152.336C163.434 150.587 164.628 149.232 166.228 148.272C167.85 147.291 169.908 146.8 172.404 146.8C174.879 146.8 176.916 147.291 178.516 148.272C180.116 149.232 181.3 150.597 182.068 152.368C182.858 154.117 183.252 156.176 183.252 158.544ZM166.58 158.544C166.58 160.933 167.039 162.821 167.956 164.208C168.874 165.573 170.346 166.256 172.372 166.256C174.442 166.256 175.924 165.573 176.82 164.208C177.716 162.821 178.164 160.933 178.164 158.544C178.164 156.133 177.716 154.245 176.82 152.88C175.924 151.515 174.452 150.832 172.404 150.832C170.356 150.832 168.874 151.515 167.956 152.88C167.039 154.245 166.58 156.133 166.58 158.544ZM195.569 147.152C198.62 147.152 200.924 147.579 202.481 148.432C204.038 149.285 204.817 150.789 204.817 152.944C204.817 154.245 204.508 155.344 203.889 156.24C203.292 157.136 202.428 157.68 201.297 157.872V158.032C202.065 158.181 202.758 158.448 203.377 158.832C203.996 159.216 204.486 159.771 204.849 160.496C205.212 161.221 205.393 162.181 205.393 163.376C205.393 165.445 204.646 167.067 203.153 168.24C201.66 169.413 199.612 170 197.009 170H188.465V147.152H195.569ZM196.113 156.208C197.521 156.208 198.492 155.984 199.025 155.536C199.58 155.088 199.857 154.437 199.857 153.584C199.857 152.709 199.537 152.08 198.897 151.696C198.257 151.312 197.244 151.12 195.857 151.12H193.297V156.208H196.113ZM193.297 160.048V166H196.465C197.916 166 198.929 165.723 199.505 165.168C200.081 164.592 200.369 163.835 200.369 162.896C200.369 162.043 200.07 161.36 199.473 160.848C198.897 160.315 197.841 160.048 196.305 160.048H193.297ZM242.573 166.16V176.656H237.901V170H210.445V147.152H215.277V165.968H222.381V147.152H227.245V165.968H234.349V147.152H239.181V166.16H242.573ZM246.581 147.152H250.933V158.192C250.933 158.725 250.923 159.323 250.901 159.984C250.88 160.645 250.859 161.296 250.837 161.936C250.816 162.555 250.795 163.099 250.773 163.568C250.752 164.016 250.731 164.325 250.709 164.496H250.805L261.365 147.152H267.157V170H262.837V159.024C262.837 158.448 262.848 157.819 262.869 157.136C262.891 156.432 262.912 155.76 262.933 155.12C262.976 154.48 263.008 153.925 263.029 153.456C263.072 152.965 263.104 152.645 263.125 152.496H262.997L252.405 170H246.581V147.152ZM292.029 170H286.525L278.237 158.416V170H273.405V147.152H278.237V158.224L286.429 147.152H291.581L283.261 158.128L292.029 170ZM296.786 175.094H292.786C295.974 171.031 297.568 166.474 297.568 161.422C297.568 156.411 295.974 151.802 292.786 147.594H296.818C300.193 151.604 301.88 156.214 301.88 161.422C301.88 166.786 300.182 171.344 296.786 175.094Z" fill="white"/>
</g>
<path d="M82.9153 289.095C81.6106 289.095 80.4326 288.804 79.3813 288.221C78.3426 287.638 77.5193 286.834 76.9113 285.808C76.316 284.782 76.0183 283.629 76.0183 282.35C76.0183 281.071 76.316 279.918 76.9113 278.892C77.5193 277.866 78.3426 277.062 79.3813 276.479C80.4326 275.896 81.6106 275.605 82.9153 275.605C83.878 275.605 84.7646 275.763 85.5753 276.08C86.386 276.384 87.0763 276.84 87.6463 277.448L87.0383 278.075C85.9743 277.024 84.6126 276.498 82.9533 276.498C81.8386 276.498 80.8253 276.751 79.9133 277.258C79.0013 277.765 78.2856 278.468 77.7663 279.367C77.247 280.254 76.9873 281.248 76.9873 282.35C76.9873 283.452 77.247 284.453 77.7663 285.352C78.2856 286.239 79.0013 286.935 79.9133 287.442C80.8253 287.949 81.8386 288.202 82.9533 288.202C84.6 288.202 85.9616 287.67 87.0383 286.606L87.6463 287.233C87.0763 287.841 86.3796 288.303 85.5563 288.62C84.7456 288.937 83.8653 289.095 82.9153 289.095ZM96.9795 279.937H93.1035V289H92.1535V279.937H88.2775V279.082H96.9795V279.937ZM102.491 279.006C103.719 279.006 104.663 279.323 105.322 279.956C105.98 280.577 106.31 281.495 106.31 282.711V289H105.398V287.233C105.081 287.816 104.619 288.272 104.011 288.601C103.403 288.918 102.674 289.076 101.826 289.076C100.724 289.076 99.8495 288.816 99.2035 288.297C98.5702 287.778 98.2535 287.094 98.2535 286.245C98.2535 285.422 98.5448 284.757 99.1275 284.25C99.7228 283.731 100.667 283.471 101.959 283.471H105.36V282.673C105.36 281.748 105.106 281.045 104.6 280.564C104.106 280.083 103.377 279.842 102.415 279.842C101.756 279.842 101.123 279.956 100.515 280.184C99.9192 280.412 99.4125 280.716 98.9945 281.096L98.5195 280.412C99.0135 279.969 99.6088 279.627 100.306 279.386C101.002 279.133 101.731 279.006 102.491 279.006ZM101.959 288.297C102.782 288.297 103.479 288.107 104.049 287.727C104.631 287.347 105.068 286.796 105.36 286.074V284.212H101.978C101.002 284.212 100.293 284.389 99.8495 284.744C99.4188 285.099 99.2035 285.586 99.2035 286.207C99.2035 286.853 99.4442 287.366 99.9255 287.746C100.407 288.113 101.085 288.297 101.959 288.297ZM115.356 279.006C116.281 279.006 117.117 279.221 117.864 279.652C118.612 280.083 119.194 280.678 119.612 281.438C120.043 282.198 120.258 283.066 120.258 284.041C120.258 285.016 120.043 285.89 119.612 286.663C119.194 287.423 118.612 288.018 117.864 288.449C117.117 288.867 116.281 289.076 115.356 289.076C114.482 289.076 113.691 288.873 112.981 288.468C112.272 288.05 111.721 287.474 111.328 286.739V292.686H110.378V279.082H111.29V281.419C111.683 280.659 112.234 280.07 112.943 279.652C113.665 279.221 114.47 279.006 115.356 279.006ZM115.299 288.221C116.059 288.221 116.743 288.044 117.351 287.689C117.959 287.334 118.434 286.84 118.776 286.207C119.131 285.574 119.308 284.852 119.308 284.041C119.308 283.23 119.131 282.508 118.776 281.875C118.434 281.242 117.959 280.748 117.351 280.393C116.743 280.038 116.059 279.861 115.299 279.861C114.539 279.861 113.855 280.038 113.247 280.393C112.652 280.748 112.177 281.242 111.822 281.875C111.48 282.508 111.309 283.23 111.309 284.041C111.309 284.852 111.48 285.574 111.822 286.207C112.177 286.84 112.652 287.334 113.247 287.689C113.855 288.044 114.539 288.221 115.299 288.221ZM129.798 279.937H125.922V289H124.972V279.937H121.096V279.082H129.798V279.937ZM139.428 275.7V289H138.459V276.574H135.21V275.7H139.428ZM146.222 281.267C148.16 281.267 149.566 281.609 150.44 282.293C151.314 282.964 151.751 283.921 151.751 285.162C151.751 285.922 151.573 286.6 151.219 287.195C150.877 287.778 150.357 288.24 149.661 288.582C148.964 288.924 148.109 289.095 147.096 289.095C146.133 289.095 145.227 288.93 144.379 288.601C143.543 288.272 142.89 287.841 142.422 287.309L142.916 286.568C143.334 287.049 143.91 287.442 144.645 287.746C145.392 288.05 146.203 288.202 147.077 288.202C148.267 288.202 149.179 287.93 149.813 287.385C150.459 286.84 150.782 286.112 150.782 285.2C150.782 284.199 150.414 283.439 149.68 282.92C148.958 282.401 147.735 282.141 146.013 282.141H143.315L144.018 275.7H151.067V276.574H144.835L144.322 281.267H146.222ZM163.843 289.076C162.881 289.076 162.019 288.861 161.259 288.43C160.499 287.999 159.904 287.404 159.473 286.644C159.043 285.871 158.827 285.004 158.827 284.041C158.827 283.066 159.043 282.198 159.473 281.438C159.904 280.665 160.499 280.07 161.259 279.652C162.019 279.221 162.881 279.006 163.843 279.006C164.641 279.006 165.363 279.164 166.009 279.481C166.668 279.785 167.2 280.235 167.605 280.83L166.902 281.343C166.548 280.849 166.104 280.482 165.572 280.241C165.053 279.988 164.477 279.861 163.843 279.861C163.071 279.861 162.374 280.038 161.753 280.393C161.145 280.735 160.664 281.223 160.309 281.856C159.967 282.489 159.796 283.218 159.796 284.041C159.796 284.864 159.967 285.593 160.309 286.226C160.664 286.859 161.145 287.353 161.753 287.708C162.374 288.05 163.071 288.221 163.843 288.221C164.477 288.221 165.053 288.101 165.572 287.86C166.104 287.607 166.548 287.233 166.902 286.739L167.605 287.252C167.2 287.847 166.668 288.303 166.009 288.62C165.363 288.924 164.641 289.076 163.843 289.076ZM178.888 284.269H170.357C170.383 285.042 170.579 285.732 170.946 286.34C171.314 286.935 171.808 287.398 172.428 287.727C173.062 288.056 173.771 288.221 174.556 288.221C175.202 288.221 175.798 288.107 176.342 287.879C176.9 287.638 177.362 287.29 177.729 286.834L178.28 287.461C177.85 287.98 177.305 288.379 176.646 288.658C176 288.937 175.297 289.076 174.537 289.076C173.549 289.076 172.669 288.861 171.896 288.43C171.124 287.999 170.516 287.404 170.072 286.644C169.642 285.884 169.426 285.016 169.426 284.041C169.426 283.078 169.629 282.217 170.034 281.457C170.452 280.684 171.022 280.083 171.744 279.652C172.466 279.221 173.277 279.006 174.176 279.006C175.076 279.006 175.88 279.221 176.589 279.652C177.311 280.07 177.875 280.659 178.28 281.419C178.698 282.179 178.907 283.04 178.907 284.003L178.888 284.269ZM174.176 279.842C173.48 279.842 172.853 280 172.295 280.317C171.738 280.621 171.288 281.058 170.946 281.628C170.617 282.185 170.427 282.819 170.376 283.528H177.976C177.938 282.819 177.748 282.185 177.406 281.628C177.064 281.071 176.615 280.634 176.057 280.317C175.5 280 174.873 279.842 174.176 279.842ZM182.202 279.082H183.152V283.604H189.878V279.082H190.828V289H189.878V284.44H183.152V289H182.202V279.082ZM201.751 279.937H197.875V289H196.925V279.937H193.049V279.082H201.751V279.937ZM211.049 279.082V289H210.175V285.58H206.869C206.641 285.58 206.476 285.574 206.375 285.561L203.924 289H202.879L205.444 285.447C204.633 285.27 204.013 284.921 203.582 284.402C203.151 283.883 202.936 283.211 202.936 282.388C202.936 281.299 203.297 280.475 204.019 279.918C204.754 279.361 205.754 279.082 207.021 279.082H211.049ZM203.886 282.426C203.886 284.047 204.912 284.858 206.964 284.858H210.175V279.918H207.078C204.95 279.918 203.886 280.754 203.886 282.426ZM219.933 279.234C220.858 279.234 221.675 279.443 222.384 279.861C223.106 280.266 223.67 280.836 224.075 281.571C224.48 282.306 224.683 283.154 224.683 284.117C224.683 285.08 224.474 285.941 224.056 286.701C223.651 287.448 223.074 288.037 222.327 288.468C221.592 288.886 220.75 289.095 219.8 289.095C218.711 289.095 217.78 288.829 217.007 288.297C216.247 287.765 215.664 287.011 215.259 286.036C214.866 285.061 214.67 283.921 214.67 282.616C214.67 281.134 214.847 279.905 215.202 278.93C215.569 277.955 216.114 277.188 216.836 276.631C217.571 276.061 218.508 275.637 219.648 275.358L224.037 274.294L224.189 275.187L220.009 276.175C218.983 276.416 218.147 276.77 217.501 277.239C216.868 277.695 216.393 278.322 216.076 279.12C215.759 279.918 215.595 280.938 215.582 282.179C215.911 281.267 216.462 280.551 217.235 280.032C218.008 279.5 218.907 279.234 219.933 279.234ZM219.819 288.278C220.566 288.278 221.238 288.101 221.833 287.746C222.428 287.391 222.891 286.904 223.22 286.283C223.549 285.65 223.714 284.934 223.714 284.136C223.714 283.338 223.549 282.635 223.22 282.027C222.891 281.406 222.428 280.931 221.833 280.602C221.25 280.26 220.579 280.089 219.819 280.089C219.059 280.089 218.381 280.26 217.786 280.602C217.191 280.931 216.728 281.406 216.399 282.027C216.07 282.635 215.905 283.338 215.905 284.136C215.905 284.934 216.07 285.65 216.399 286.283C216.728 286.904 217.191 287.391 217.786 287.746C218.381 288.101 219.059 288.278 219.819 288.278ZM232.991 279.006C233.916 279.006 234.752 279.221 235.499 279.652C236.246 280.083 236.829 280.678 237.247 281.438C237.678 282.198 237.893 283.066 237.893 284.041C237.893 285.016 237.678 285.89 237.247 286.663C236.829 287.423 236.246 288.018 235.499 288.449C234.752 288.867 233.916 289.076 232.991 289.076C232.117 289.076 231.325 288.873 230.616 288.468C229.907 288.05 229.356 287.474 228.963 286.739V292.686H228.013V279.082H228.925V281.419C229.318 280.659 229.869 280.07 230.578 279.652C231.3 279.221 232.104 279.006 232.991 279.006ZM232.934 288.221C233.694 288.221 234.378 288.044 234.986 287.689C235.594 287.334 236.069 286.84 236.411 286.207C236.766 285.574 236.943 284.852 236.943 284.041C236.943 283.23 236.766 282.508 236.411 281.875C236.069 281.242 235.594 280.748 234.986 280.393C234.378 280.038 233.694 279.861 232.934 279.861C232.174 279.861 231.49 280.038 230.882 280.393C230.287 280.748 229.812 281.242 229.457 281.875C229.115 282.508 228.944 283.23 228.944 284.041C228.944 284.852 229.115 285.574 229.457 286.207C229.812 286.84 230.287 287.334 230.882 287.689C231.49 288.044 232.174 288.221 232.934 288.221ZM248.135 279.082V289H247.261V285.58H243.955C243.727 285.58 243.562 285.574 243.461 285.561L241.01 289H239.965L242.53 285.447C241.719 285.27 241.098 284.921 240.668 284.402C240.237 283.883 240.022 283.211 240.022 282.388C240.022 281.299 240.383 280.475 241.105 279.918C241.839 279.361 242.84 279.082 244.107 279.082H248.135ZM240.972 282.426C240.972 284.047 241.998 284.858 244.05 284.858H247.261V279.918H244.164C242.036 279.918 240.972 280.754 240.972 282.426Z" fill="white"/>
<rect x="63.5" y="324.5" width="199" height="44" rx="2.5" stroke="url(#paint4_linear_1155_2986)"/>
<path d="M117.297 341.5V352H118.392V342.46H125.037V352H126.132V341.5H117.297ZM133.425 352.075C135.735 352.075 137.43 350.395 137.43 348.055C137.43 345.715 135.735 344.05 133.425 344.05C131.115 344.05 129.405 345.715 129.405 348.055C129.405 350.395 131.115 352.075 133.425 352.075ZM133.425 351.13C131.745 351.13 130.485 349.9 130.485 348.055C130.485 346.21 131.745 344.98 133.425 344.98C135.105 344.98 136.35 346.21 136.35 348.055C136.35 349.9 135.105 351.13 133.425 351.13ZM146.877 351.07V344.11H141.057L140.952 346.75C140.847 348.88 140.652 350.995 139.482 351.07H139.032V353.905H140.037V352H147.102V353.905H148.107V351.07H146.877ZM141.927 346.81L142.017 345.055H145.812V351.07H140.892C141.687 350.47 141.852 348.61 141.927 346.81ZM154.998 344.05C153.693 344.05 152.598 344.62 151.953 345.67V344.11H150.933V354.91H151.998V350.515C152.658 351.535 153.738 352.075 154.998 352.075C157.248 352.075 158.928 350.455 158.928 348.055C158.928 345.67 157.248 344.05 154.998 344.05ZM154.923 351.13C153.243 351.13 151.983 349.9 151.983 348.055C151.983 346.225 153.243 344.98 154.923 344.98C156.588 344.98 157.863 346.225 157.863 348.055C157.863 349.9 156.588 351.13 154.923 351.13ZM165.221 352.075C167.531 352.075 169.226 350.395 169.226 348.055C169.226 345.715 167.531 344.05 165.221 344.05C162.911 344.05 161.201 345.715 161.201 348.055C161.201 350.395 162.911 352.075 165.221 352.075ZM165.221 351.13C163.541 351.13 162.281 349.9 162.281 348.055C162.281 346.21 163.541 344.98 165.221 344.98C166.901 344.98 168.146 346.21 168.146 348.055C168.146 349.9 166.901 351.13 165.221 351.13ZM176.077 344.305C174.592 344.305 173.407 345.04 172.777 346.255C172.882 343.735 173.902 342.61 176.137 342.115L179.467 341.35L179.287 340.375L175.747 341.185C173.062 341.815 171.757 343.465 171.757 346.9C171.757 350.11 173.227 352.09 175.882 352.09C178.237 352.09 179.857 350.485 179.857 348.16C179.857 345.88 178.297 344.305 176.077 344.305ZM175.912 351.205C174.232 351.205 173.032 349.96 173.032 348.19C173.032 346.435 174.217 345.265 175.912 345.265C177.607 345.265 178.777 346.435 178.777 348.19C178.777 349.96 177.592 351.205 175.912 351.205ZM182.89 352H183.955V348.52H188.92V352H189.985V344.11H188.92V347.605H183.955V344.11H182.89V352ZM200.677 348.055C200.677 345.685 199.072 344.05 196.852 344.05C194.632 344.05 192.997 345.715 192.997 348.055C192.997 350.395 194.677 352.075 197.137 352.075C198.382 352.075 199.477 351.625 200.182 350.785L199.582 350.095C198.982 350.785 198.127 351.13 197.167 351.13C195.442 351.13 194.182 350.035 194.062 348.385H200.662C200.662 348.265 200.677 348.145 200.677 348.055ZM196.852 344.965C198.397 344.965 199.522 346.045 199.657 347.59H194.062C194.197 346.045 195.322 344.965 196.852 344.965ZM210.699 348.055C210.699 345.685 209.094 344.05 206.874 344.05C204.654 344.05 203.019 345.715 203.019 348.055C203.019 350.395 204.699 352.075 207.159 352.075C208.404 352.075 209.499 351.625 210.204 350.785L209.604 350.095C209.004 350.785 208.149 351.13 207.189 351.13C205.464 351.13 204.204 350.035 204.084 348.385H210.684C210.684 348.265 210.699 348.145 210.699 348.055ZM206.874 344.965C208.419 344.965 209.544 346.045 209.679 347.59H204.084C204.219 346.045 205.344 344.965 206.874 344.965Z" fill="white"/>
</g>
<defs>
<filter id="filter0_ddi_1155_2986" x="0.25" y="0.25" width="318.5" height="433.5" filterUnits="userSpaceOnUse" color-interpolation-filters="sRGB">
<feFlood flood-opacity="0" result="BackgroundImageFix"/>
<feColorMatrix in="SourceAlpha" type="matrix" values="0 0 0 0 0 0 0 0 0 0 0 0 0 0 0 0 0 0 127 0" result="hardAlpha"/>
<feOffset dy="4"/>
<feGaussianBlur stdDeviation="2"/>
<feColorMatrix type="matrix" values="0 0 0 0 0 0 0 0 0 0 0 0 0 0 0 0 0 0 0.25 0"/>
<feBlend mode="normal" in2="BackgroundImageFix" result="effect1_dropShadow_1155_2986"/>
<feColorMatrix in="SourceAlpha" type="matrix" values="0 0 0 0 0 0 0 0 0 0 0 0 0 0 0 0 0 0 127 0" result="hardAlpha"/>
<feOffset dx="-3" dy="-3"/>
<feGaussianBlur stdDeviation="8"/>
<feColorMatrix type="matrix" values="0 0 0 0 0.0392157 0 0 0 0 0.160784 0 0 0 0 0.486275 0 0 0 0.13 0"/>
<feBlend mode="normal" in2="effect1_dropShadow_1155_2986" result="effect2_dropShadow_1155_2986"/>
<feBlend mode="normal" in="SourceGraphic" in2="effect2_dropShadow_1155_2986" result="shape"/>
<feColorMatrix in="SourceAlpha" type="matrix" values="0 0 0 0 0 0 0 0 0 0 0 0 0 0 0 0 0 0 127 0" result="hardAlpha"/>
<feOffset dx="3" dy="5"/>
<feGaussianBlur stdDeviation="7.5"/>
<feComposite in2="hardAlpha" operator="arithmetic" k2="-1" k3="1"/>
<feColorMatrix type="matrix" values="0 0 0 0 0.575521 0 0 0 0 0.692927 0 0 0 0 0.920833 0 0 0 0.73 0"/>
<feBlend mode="normal" in2="shape" result="effect3_innerShadow_1155_2986"/>
</filter>
<filter id="filter1_d_1155_2986" x="0.25" y="8.25" width="324.5" height="439.5" filterUnits="userSpaceOnUse" color-interpolation-filters="sRGB">
<feFlood flood-opacity="0" result="BackgroundImageFix"/>
<feColorMatrix in="SourceAlpha" type="matrix" values="0 0 0 0 0 0 0 0 0 0 0 0 0 0 0 0 0 0 127 0" result="hardAlpha"/>
<feOffset dy="8"/>
<feGaussianBlur stdDeviation="9.5"/>
<feColorMatrix type="matrix" values="0 0 0 0 0 0 0 0 0 0 0 0 0 0 0 0 0 0 0.25 0"/>
<feBlend mode="normal" in2="BackgroundImageFix" result="effect1_dropShadow_1155_2986"/>
<feBlend mode="normal" in="SourceGraphic" in2="effect1_dropShadow_1155_2986" result="shape"/>
</filter>
<filter id="filter2_d_1155_2986" x="67" y="70" width="191" height="215" filterUnits="userSpaceOnUse" color-interpolation-filters="sRGB">
<feFlood flood-opacity="0" result="BackgroundImageFix"/>
<feColorMatrix in="SourceAlpha" type="matrix" values="0 0 0 0 0 0 0 0 0 0 0 0 0 0 0 0 0 0 127 0" result="hardAlpha"/>
<feOffset dy="25"/>
<feGaussianBlur stdDeviation="14.5"/>
<feColorMatrix type="matrix" values="0 0 0 0 0 0 0 0 0 0 0 0 0 0 0 0 0 0 0.25 0"/>
<feBlend mode="normal" in2="BackgroundImageFix" result="effect1_dropShadow_1155_2986"/>
<feBlend mode="normal" in="SourceGraphic" in2="effect1_dropShadow_1155_2986" result="shape"/>
</filter>
<filter id="filter3_d_1155_2986" x="21.1514" y="107.219" width="284.729" height="77.4373" filterUnits="userSpaceOnUse" color-interpolation-filters="sRGB">
<feFlood flood-opacity="0" result="BackgroundImageFix"/>
<feColorMatrix in="SourceAlpha" type="matrix" values="0 0 0 0 0 0 0 0 0 0 0 0 0 0 0 0 0 0 127 0" result="hardAlpha"/>
<feOffset dy="4"/>
<feGaussianBlur stdDeviation="2"/>
<feColorMatrix type="matrix" values="0 0 0 0 0 0 0 0 0 0 0 0 0 0 0 0 0 0 0.25 0"/>
<feBlend mode="normal" in2="BackgroundImageFix" result="effect1_dropShadow_1155_2986"/>
<feBlend mode="normal" in="SourceGraphic" in2="effect1_dropShadow_1155_2986" result="shape"/>
</filter>
<linearGradient id="paint0_linear_1155_2986" x1="162.5" y1="20" x2="162.5" y2="420" gradientUnits="userSpaceOnUse">
<stop stop-color="#4C7DFB"/>
<stop offset="1" stop-color="#001D69"/>
</linearGradient>
<linearGradient id="paint1_linear_1155_2986" x1="162.5" y1="20" x2="162.5" y2="420" gradientUnits="userSpaceOnUse">
<stop stop-color="#6E77C9"/>
<stop offset="1" stop-color="#04107B"/>
</linearGradient>
<linearGradient id="paint2_linear_1155_2986" x1="194.75" y1="76" x2="190.808" y2="228.987" gradientUnits="userSpaceOnUse">
<stop stop-color="#C8A640"/>
<stop offset="1" stop-color="#94761C"/>
</linearGradient>
<linearGradient id="paint3_linear_1155_2986" x1="162.5" y1="76" x2="162.5" y2="229" gradientUnits="userSpaceOnUse">
<stop stop-color="white" stop-opacity="0.01"/>
<stop offset="1" stop-color="#F2F6FF"/>
</linearGradient>
<linearGradient id="paint4_linear_1155_2986" x1="163" y1="324" x2="163" y2="369" gradientUnits="userSpaceOnUse">
<stop stop-color="white"/>
<stop offset="1" stop-color="#FDF9E5"/>
</linearGradient>
</defs>
</svg>
