<svg width="70" height="95" viewBox="0 0 70 95" fill="none" xmlns="http://www.w3.org/2000/svg">
<path d="M60.6864 77.17L56.1837 58.5805C56.1837 58.5805 71.5922 44.2998 69.8649 25.9939C68.1365 7.68777 48.9883 -3.82271 29.5521 1.16815C10.116 6.15836 6.89674 21.1568 6.80551 23.6175C6.71382 26.0783 9.10792 32.371 7.37953 36.6708C5.65181 40.9706 -0.537564 47.6958 0.0375883 49.707C0.614547 51.7172 5.93995 52.0641 5.93995 52.0641C5.93995 52.0641 6.00273 54.0092 5.29435 54.4223C4.58596 54.8347 4.98588 56.4513 6.15087 57.3506C7.31607 58.2498 9.25221 58.8602 9.25221 58.8602C9.25221 58.8602 7.0198 59.3459 7.30885 60.871C7.59721 62.3971 8.3887 63.16 10.0441 63.2285C11.7003 63.2975 12.1327 62.537 12.4197 63.369C12.7074 64.2 12.8883 64.2694 12.8883 64.2694C12.8883 64.2694 11.234 68.3958 12.674 71.4461C14.1152 74.4975 16.3451 74.4999 18.9377 73.8743C21.5298 73.2492 26.568 71.8625 26.568 71.8625L27.9475 78.6287C29.3898 88.4767 22.4276 93.5393 22.2809 93.6448C26.3733 94.5297 30.629 95 34.999 95C47.8737 95 59.7631 90.9443 69.3706 84.089C68.4443 83.6588 61.0154 77.4876 60.6855 77.1698L60.6864 77.17Z" fill="#F1B61F"/>
<path d="M13.1504 72.3014C14.5845 74.4901 16.616 74.4342 18.9385 73.8739C21.5306 73.2487 26.5688 71.862 26.5688 71.862L27.9483 78.6283C28.4406 81.989 27.953 84.7916 27.0929 87.031L27.0936 87.0299C31.9062 80.4153 28.357 75.3596 28.9909 72.8496C29.6248 70.3391 39.6963 67.9651 41.8086 66.4046C43.922 64.8441 45.4354 60.5369 45.4354 60.5369C45.4354 60.5369 43.3225 63.6572 41.0695 65.5567C38.8159 67.4561 21.3147 72.408 17.9693 73.4932C14.7925 74.5234 13.2936 72.5076 13.1504 72.3014Z" fill="#F5E9DA"/>
<path d="M24.7727 2.71126C36.8777 -1.56068 51.2148 0.743543 59.9105 9.31049C70.2736 19.5189 72.6885 38.0956 54.5914 57.7526L60.6862 77.17L56.1834 58.5804C56.1834 58.5804 71.5919 44.2998 69.8647 25.9939C68.1363 7.68777 48.988 -3.82271 29.5518 1.16815C27.8341 1.60929 26.2457 2.12938 24.7725 2.71083L24.7727 2.71126Z" fill="#F5E9DA"/>
<path d="M44.89 41.7099V39.5942L43.9364 39.4983C43.8535 39.2242 43.7415 38.9632 43.6035 38.7172L44.2367 38.0159L42.6835 36.5204L41.9384 37.1025C41.6841 36.9681 41.4147 36.8582 41.1315 36.7767L41.0647 35.8513H38.8684L38.7688 36.7699C38.485 36.8498 38.214 36.9576 37.9586 37.0905L37.2306 36.4806L35.6774 37.9767L36.2821 38.6952C36.1424 38.9402 36.0281 39.2001 35.9434 39.4735L34.9814 39.5379V41.6529L35.9351 41.7486C36.0179 42.022 36.1299 42.2837 36.2679 42.5297L35.6347 43.2304L37.1879 44.7265L37.9331 44.144C38.1873 44.2782 38.4579 44.3883 38.741 44.4698L38.8079 45.3965H41.0042L41.1038 44.4779C41.3876 44.3974 41.6586 44.2895 41.914 44.1566L42.6413 44.7665L44.1945 43.2711L43.5897 42.5526C43.7291 42.3076 43.8433 42.047 43.928 41.7743L44.89 41.7099ZM39.9356 42.6831C38.7544 42.6831 37.7971 41.761 37.7971 40.6231C37.7971 39.4853 38.7544 38.5634 39.9356 38.5634C41.1166 38.5634 42.0739 39.4855 42.0739 40.6231C42.0741 41.7608 41.1168 42.6831 39.9356 42.6831Z" fill="white"/>
<path d="M63.1976 32.3431V28.8803L60.5736 28.628C60.395 27.9891 60.1326 27.3814 59.7973 26.821L61.4658 24.8555L58.9247 22.4084L56.8849 24.017C56.3023 23.6941 55.6728 23.4403 55.0091 23.2687L54.7471 20.7417H51.1524L50.89 23.2687C50.2261 23.4403 49.5963 23.6941 49.0135 24.0172L46.973 22.4086L44.4326 24.8557L46.1018 26.8213C45.7674 27.3816 45.5043 27.9887 45.3254 28.6282L42.7021 28.8806V32.3433L45.3254 32.5961C45.5036 33.2349 45.7671 33.8416 46.1018 34.403L44.4326 36.3692L46.973 38.8164L49.0135 37.2084C49.5956 37.5312 50.2259 37.7842 50.8893 37.9569L51.1517 40.4839H54.7465L55.0084 37.9569C55.6723 37.7842 56.3021 37.5315 56.8849 37.2084L58.9247 38.8157L61.4658 36.3692L59.7973 34.403C60.1324 33.8416 60.3948 33.2349 60.5736 32.5954L63.1976 32.3431ZM52.9492 36.5878C49.5227 36.5878 46.7461 33.9125 46.7461 30.6125C46.7461 27.312 49.5227 24.6365 52.9492 24.6365C56.3757 24.6365 59.153 27.3118 59.153 30.6125C59.153 33.9125 56.3757 36.5878 52.9492 36.5878Z" fill="white"/>
<path d="M41.7666 28.3556L42.7013 24.9254L40.5868 24.1254C40.6583 23.3562 40.6536 22.582 40.5743 21.8129L42.6807 20.9924L41.71 17.5718L39.4667 17.8977C39.1332 17.2051 38.7278 16.5358 38.2523 15.9008L39.6501 14.1765L37.0326 11.6815L35.2575 13.0458C34.5929 12.5947 33.8945 12.211 33.1719 11.8973L33.4869 9.73315L29.9253 8.83325L29.0955 10.8697C28.2972 10.8014 27.4928 10.8049 26.6944 10.8823L25.843 8.85326L22.291 9.78862L22.6297 11.9495V11.9525C21.9107 12.2738 21.2159 12.6636 20.5567 13.1224L18.7671 11.7746L16.1768 14.2959L17.5935 16.0059C17.125 16.6456 16.7273 17.3188 16.4017 18.0149L14.1544 17.7115L13.2197 21.1423L15.3349 21.941C15.264 22.71 15.2676 23.4848 15.348 24.2539L13.2416 25.0744L14.2131 28.4954L16.4563 28.1685C16.7896 28.8611 17.195 29.5311 17.6692 30.166L16.2714 31.8899L18.8884 34.3849L20.6635 33.0201C21.3276 33.4719 22.0265 33.8541 22.7491 34.1687L22.4334 36.3328L25.995 37.2327L26.8256 35.1962C27.624 35.2641 28.4277 35.2606 29.2262 35.1836L30.078 37.2127L33.6289 36.2762L33.2902 34.1154C34.0099 33.7934 34.7047 33.4036 35.3639 32.9455L37.1539 34.292L39.7442 31.7713L38.3275 30.0607C38.7958 29.4216 39.1935 28.7478 39.5198 28.0517L41.7666 28.3556ZM27.9601 30.898C23.4503 30.898 19.7946 27.3765 19.7946 23.0323C19.7946 18.6882 23.4503 15.1667 27.9601 15.1667C32.47 15.1667 36.1255 18.6882 36.1255 23.0323C36.1255 27.3765 32.4698 30.898 27.9601 30.898Z" fill="white"/>
</svg>
