<svg width="29" height="27" viewBox="0 0 29 27" fill="none" xmlns="http://www.w3.org/2000/svg">
<ellipse cx="14.8569" cy="13.5" rx="14" ry="13.5" fill="url(#paint0_linear_1155_2941)"/>
<path d="M22.2758 4.90151L4.88218 11.5923C3.93095 11.8724 3.96126 12.827 4.66422 13.0586L9.022 14.4443L10.6906 19.638C10.8927 20.2055 11.0587 20.421 11.4051 20.4254C11.7516 20.4298 11.9075 20.2949 12.2856 19.9562C12.7288 19.5339 13.4029 18.8697 14.4667 17.8183L19.0006 21.2202C19.8349 21.6879 20.444 21.446 20.6447 20.4328L23.4926 6.14495C23.7914 4.90444 23.074 4.53493 22.2758 4.90151ZM9.7062 14.1203L19.6155 7.80482C20.1034 7.47197 20.2564 7.84295 20.037 8.09809L11.8122 15.6174L11.3907 19.3653L9.7062 14.1203Z" fill="#DAE7FB"/>
<defs>
<linearGradient id="paint0_linear_1155_2941" x1="14.8569" y1="0" x2="14.8569" y2="27" gradientUnits="userSpaceOnUse">
<stop stop-color="#3F94F8"/>
<stop offset="1" stop-color="#183AB3"/>
</linearGradient>
</defs>
</svg>
