<svg width="32" height="30" viewBox="0 0 32 30" fill="none" xmlns="http://www.w3.org/2000/svg">
<ellipse cx="15.7782" cy="15" rx="15.5556" ry="15" fill="url(#paint0_linear_1155_2999)"/>
<path d="M24.0216 5.44408L4.69537 12.8783C3.63845 13.1895 3.67213 14.2502 4.4532 14.5076L9.29517 16.0472L11.1492 21.818C11.3737 22.4485 11.5582 22.688 11.9431 22.6929C12.328 22.6978 12.5012 22.5479 12.9214 22.1715C13.4138 21.7023 14.1628 20.9643 15.3448 19.7961L20.3825 23.5759C21.3095 24.0957 21.9863 23.8269 22.2092 22.701L25.3736 6.82568C25.7056 5.44734 24.9085 5.03677 24.0216 5.44408ZM10.0554 15.6871L21.0657 8.66999C21.6078 8.30015 21.7778 8.71235 21.534 8.99584L12.3954 17.3506L11.9271 21.515L10.0554 15.6871Z" fill="#74510C"/>
<defs>
<linearGradient id="paint0_linear_1155_2999" x1="15.7782" y1="0" x2="15.7782" y2="30" gradientUnits="userSpaceOnUse">
<stop stop-color="#FFF7B1"/>
<stop offset="1" stop-color="#FFF500"/>
</linearGradient>
</defs>
</svg>
