<svg width="70" height="95" viewBox="0 0 70 95" fill="none" xmlns="http://www.w3.org/2000/svg">
<path d="M60.6864 77.17L56.1837 58.5805C56.1837 58.5805 71.5922 44.2998 69.8649 25.9939C68.1365 7.68777 48.9883 -3.82271 29.5521 1.16815C10.116 6.15836 6.89674 21.1568 6.80551 23.6175C6.71382 26.0783 9.10792 32.371 7.37953 36.6708C5.65181 40.9706 -0.537564 47.6958 0.0375883 49.707C0.614547 51.7172 5.93995 52.0641 5.93995 52.0641C5.93995 52.0641 6.00273 54.0092 5.29435 54.4223C4.58596 54.8347 4.98588 56.4513 6.15087 57.3506C7.31607 58.2498 9.25221 58.8602 9.25221 58.8602C9.25221 58.8602 7.0198 59.3459 7.30885 60.871C7.59721 62.3971 8.3887 63.16 10.0442 63.2285C11.7003 63.2975 12.1327 62.537 12.4197 63.369C12.7074 64.2 12.8883 64.2694 12.8883 64.2694C12.8883 64.2694 11.234 68.3958 12.674 71.4461C14.1152 74.4975 16.3451 74.4999 18.9377 73.8743C21.5298 73.2492 26.568 71.8625 26.568 71.8625L27.9475 78.6287C29.3898 88.4767 22.4276 93.5393 22.2809 93.6448C26.3733 94.5297 30.629 95 34.999 95C47.8737 95 59.7631 90.9443 69.3706 84.089C68.4443 83.6588 61.0154 77.4876 60.6855 77.1698L60.6864 77.17Z" fill="#F1B61F"/>
</svg>
