<svg width="180" height="213" viewBox="0 0 180 213" fill="none" xmlns="http://www.w3.org/2000/svg">
<g filter="url(#filter0_d_1155_3051)">
<rect x="5" width="170" height="178" rx="34" fill="url(#paint0_linear_1155_3051)"/>
</g>
<path d="M30.8042 116.559C31.7089 116.881 32.3989 117.364 32.8742 118.008C33.3495 118.637 33.5872 119.411 33.5872 120.331C33.5872 121.772 33.0122 122.915 31.8622 123.758C30.7275 124.586 29.1175 125 27.0322 125H18.4302V108.9H26.5952C28.5885 108.9 30.1295 109.268 31.2182 110.004C32.3222 110.74 32.8742 111.775 32.8742 113.109C32.8742 113.876 32.6902 114.55 32.3222 115.133C31.9695 115.716 31.4635 116.191 30.8042 116.559ZM23.7662 115.087H26.0662C26.9555 115.087 27.4002 114.696 27.4002 113.914C27.4002 113.101 26.9555 112.695 26.0662 112.695H23.7662V115.087ZM26.7792 121.205C27.6685 121.205 28.1132 120.776 28.1132 119.917C28.1132 119.089 27.6685 118.675 26.7792 118.675H23.7662V121.205H26.7792ZM49.392 112.419V125H44.447V123.804C43.987 124.279 43.4503 124.64 42.837 124.885C42.2236 125.115 41.572 125.23 40.882 125.23C39.2873 125.23 38.007 124.747 37.041 123.781C36.075 122.8 35.592 121.328 35.592 119.365V112.419H40.79V118.468C40.79 119.327 40.928 119.94 41.204 120.308C41.48 120.676 41.8863 120.86 42.423 120.86C42.929 120.86 43.3506 120.661 43.688 120.262C44.0253 119.848 44.194 119.204 44.194 118.33V112.419H49.392ZM66.3052 112.419V122.493C66.3052 124.885 65.6382 126.679 64.3042 127.875C62.9856 129.086 61.0996 129.692 58.6462 129.692C57.3889 129.692 56.2159 129.554 55.1272 129.278C54.0386 129.017 53.1109 128.634 52.3442 128.128L54.0922 124.586C54.5829 124.954 55.2039 125.253 55.9552 125.483C56.7066 125.713 57.4272 125.828 58.1172 125.828C59.1599 125.828 59.9189 125.606 60.3942 125.161C60.8696 124.716 61.1072 124.065 61.1072 123.206V122.976C60.3252 123.865 59.1676 124.31 57.6342 124.31C56.5609 124.31 55.5566 124.065 54.6212 123.574C53.7012 123.068 52.9652 122.355 52.4132 121.435C51.8612 120.5 51.5852 119.434 51.5852 118.238C51.5852 117.042 51.8612 115.984 52.4132 115.064C52.9652 114.144 53.7012 113.439 54.6212 112.948C55.5566 112.442 56.5609 112.189 57.6342 112.189C59.3516 112.189 60.5936 112.741 61.3602 113.845V112.419H66.3052ZM59.0142 120.262C59.6276 120.262 60.1336 120.078 60.5322 119.71C60.9462 119.327 61.1532 118.836 61.1532 118.238C61.1532 117.64 60.9462 117.157 60.5322 116.789C60.1336 116.421 59.6276 116.237 59.0142 116.237C58.3856 116.237 57.8642 116.421 57.4502 116.789C57.0516 117.157 56.8522 117.64 56.8522 118.238C56.8522 118.836 57.0592 119.327 57.4732 119.71C57.8872 120.078 58.4009 120.262 59.0142 120.262ZM76.3329 121.389C76.8849 121.389 77.3449 121.32 77.7129 121.182C78.0962 121.044 78.5102 120.806 78.9549 120.469L81.6689 123.206C80.4115 124.555 78.5792 125.23 76.1719 125.23C74.6539 125.23 73.3199 124.954 72.1699 124.402C71.0199 123.835 70.1305 123.053 69.5019 122.056C68.8732 121.059 68.5589 119.94 68.5589 118.698C68.5589 117.441 68.8732 116.321 69.5019 115.34C70.1305 114.343 70.9892 113.569 72.0779 113.017C73.1819 112.465 74.4162 112.189 75.7809 112.189C77.0229 112.189 78.1652 112.442 79.2079 112.948C80.2505 113.439 81.0785 114.175 81.6919 115.156C82.3052 116.122 82.6119 117.28 82.6119 118.629L74.0099 120.285C74.3932 121.021 75.1675 121.389 76.3329 121.389ZM75.8039 115.731C75.2059 115.731 74.7152 115.907 74.3319 116.26C73.9639 116.613 73.7415 117.134 73.6649 117.824L77.6899 117.042C77.5519 116.643 77.3142 116.329 76.9769 116.099C76.6549 115.854 76.2639 115.731 75.8039 115.731ZM91.3822 125.23C89.9869 125.23 88.7296 124.954 87.6102 124.402C86.5062 123.835 85.6399 123.06 85.0112 122.079C84.3826 121.082 84.0682 119.955 84.0682 118.698C84.0682 117.441 84.3826 116.321 85.0112 115.34C85.6399 114.343 86.5062 113.569 87.6102 113.017C88.7296 112.465 89.9869 112.189 91.3822 112.189C92.7929 112.189 94.0502 112.465 95.1542 113.017C96.2736 113.569 97.1399 114.343 97.7532 115.34C98.3819 116.321 98.6962 117.441 98.6962 118.698C98.6962 119.955 98.3819 121.082 97.7532 122.079C97.1399 123.06 96.2736 123.835 95.1542 124.402C94.0502 124.954 92.7929 125.23 91.3822 125.23ZM91.3822 121.182C91.9802 121.182 92.4709 120.967 92.8542 120.538C93.2376 120.093 93.4292 119.48 93.4292 118.698C93.4292 117.916 93.2376 117.31 92.8542 116.881C92.4709 116.452 91.9802 116.237 91.3822 116.237C90.7842 116.237 90.2936 116.452 89.9102 116.881C89.5269 117.31 89.3352 117.916 89.3352 118.698C89.3352 119.48 89.5269 120.093 89.9102 120.538C90.2936 120.967 90.7842 121.182 91.3822 121.182ZM107.066 120.814H106.077V125H100.879V112.419H106.077V116.835H107.204L109.964 112.419H115.438L111.39 118.445L115.691 125H109.573L107.066 120.814ZM130.885 112.419V122.493C130.885 124.885 130.218 126.679 128.884 127.875C127.565 129.086 125.694 129.692 123.272 129.692C122.03 129.692 120.864 129.554 119.776 129.278C118.702 129.017 117.782 128.634 117.016 128.128L118.764 124.586C119.254 124.954 119.868 125.253 120.604 125.483C121.355 125.713 122.068 125.828 122.743 125.828C123.77 125.828 124.514 125.606 124.974 125.161C125.449 124.716 125.687 124.065 125.687 123.206V123.114C124.782 123.911 123.678 124.31 122.375 124.31C120.78 124.31 119.5 123.827 118.534 122.861C117.568 121.88 117.085 120.408 117.085 118.445V112.419H122.283V117.548C122.283 118.407 122.421 119.02 122.697 119.388C122.973 119.756 123.379 119.94 123.916 119.94C124.422 119.94 124.843 119.741 125.181 119.342C125.518 118.928 125.687 118.284 125.687 117.41V112.419H130.885ZM140.849 112.189C142.996 112.189 144.682 112.772 145.909 113.937C147.136 115.087 147.749 116.682 147.749 118.721C147.749 120.024 147.496 121.167 146.99 122.148C146.484 123.129 145.763 123.888 144.828 124.425C143.908 124.962 142.842 125.23 141.631 125.23C140.972 125.23 140.397 125.146 139.906 124.977C139.415 124.793 138.986 124.509 138.618 124.126V129.462H133.42V118.767C133.42 117.448 133.727 116.291 134.34 115.294C134.953 114.297 135.82 113.531 136.939 112.994C138.058 112.457 139.362 112.189 140.849 112.189ZM140.573 121.182C141.202 121.182 141.7 120.967 142.068 120.538C142.436 120.093 142.62 119.488 142.62 118.721C142.62 117.97 142.436 117.372 142.068 116.927C141.7 116.467 141.202 116.237 140.573 116.237C139.944 116.237 139.446 116.467 139.078 116.927C138.71 117.372 138.526 117.97 138.526 118.721C138.526 119.488 138.71 120.093 139.078 120.538C139.446 120.967 139.944 121.182 140.573 121.182ZM156.598 125.23C155.172 125.23 153.892 124.954 152.757 124.402C151.638 123.85 150.756 123.076 150.112 122.079C149.483 121.082 149.169 119.955 149.169 118.698C149.169 117.441 149.483 116.321 150.112 115.34C150.756 114.343 151.638 113.569 152.757 113.017C153.892 112.465 155.172 112.189 156.598 112.189C158.131 112.189 159.442 112.519 160.531 113.178C161.62 113.837 162.371 114.75 162.785 115.915L158.76 117.893C158.269 116.789 157.541 116.237 156.575 116.237C155.962 116.237 155.448 116.452 155.034 116.881C154.635 117.31 154.436 117.916 154.436 118.698C154.436 119.495 154.635 120.109 155.034 120.538C155.448 120.967 155.962 121.182 156.575 121.182C157.541 121.182 158.269 120.63 158.76 119.526L162.785 121.504C162.371 122.669 161.62 123.582 160.531 124.241C159.442 124.9 158.131 125.23 156.598 125.23Z" fill="#FFFDEE"/>
<path d="M89.4711 79.761C83.5719 79.756 77.9162 77.4076 73.7484 73.2326C69.5806 69.0576 67.242 63.398 67.2471 57.4987C67.2522 51.5995 69.6005 45.9438 73.7755 41.776C77.9505 37.6082 83.6101 35.2696 89.5094 35.2747C95.4086 35.2797 101.064 37.6281 105.232 41.8031C109.4 45.9781 111.738 51.6377 111.733 57.537C111.728 63.4362 109.38 69.0919 105.205 73.2597C101.03 77.4275 95.3704 79.7661 89.4711 79.761Z" fill="url(#paint1_radial_1155_3051)"/>
<path d="M89.5092 35V35.5464C93.6411 35.5525 97.6876 36.7237 101.184 38.9255C104.68 41.1273 107.485 44.2705 109.276 47.9942C111.067 51.7178 111.771 55.8711 111.308 59.977C110.846 64.083 109.234 67.9752 106.66 71.2068C104.085 74.4384 100.651 76.8785 96.7521 78.2467C92.8533 79.615 88.6476 79.8561 84.618 78.9423C80.5883 78.0285 76.8981 75.9969 73.9709 73.0806C71.0437 70.1644 68.9982 66.4818 68.0692 62.4556C67.4185 59.6422 67.3287 56.728 67.8052 53.8798C68.2816 51.0316 69.3149 48.3053 70.8459 45.8568C72.377 43.4082 74.3757 41.2856 76.7277 39.6102C79.0798 37.9348 81.7391 36.7395 84.5535 36.0928C86.1794 35.7237 87.8419 35.5404 89.5092 35.5464V35ZM89.5092 35C87.7991 35.0025 86.0947 35.1967 84.4279 35.5792C78.8301 36.8744 73.9399 40.2621 70.76 45.0476C67.5802 49.8331 66.3515 55.6538 67.3261 61.3163C68.3006 66.9787 71.4045 72.0537 76.0012 75.5008C80.598 78.9479 86.3393 80.5059 92.048 79.8552C97.7567 79.2045 103 76.3946 106.703 72.0014C110.407 67.6083 112.289 61.965 111.964 56.2285C111.639 50.492 109.132 45.0971 104.957 41.1499C100.782 37.2027 95.2549 35.0023 89.5092 35V35Z" fill="#5C960B"/>
<g style="mix-blend-mode:multiply" opacity="0.8">
<path style="mix-blend-mode:multiply" opacity="0.8" d="M100.617 38.7754C105.408 41.8869 108.786 46.7559 110.023 52.3336C111.259 57.9114 110.256 63.7517 107.228 68.5968C104.201 73.4419 99.3916 76.904 93.8362 78.2377C88.2809 79.5713 82.424 78.6698 77.5269 75.7272C79.9534 77.341 82.679 78.4517 85.5424 78.9938C88.4058 79.5358 91.3488 79.4981 94.1973 78.8829C97.0459 78.2677 99.7421 77.0875 102.127 75.4121C104.511 73.7367 106.535 71.6001 108.08 69.1287C109.624 66.6573 110.657 63.9012 111.118 61.0236C111.578 58.146 111.457 55.2053 110.761 52.3753C110.065 49.5454 108.809 46.8837 107.067 44.5477C105.324 42.2118 103.131 40.249 100.617 38.7754Z" fill="url(#paint2_linear_1155_3051)"/>
</g>
<g style="mix-blend-mode:screen">
<path style="mix-blend-mode:screen" d="M85.1552 62.6384C91.1271 54.5028 99.3884 46.2852 108.748 48.8805C107.542 46.1979 105.79 43.7969 103.602 41.8315C101.414 39.8662 98.839 38.3799 96.0429 37.468C93.2468 36.5562 90.291 36.2389 87.365 36.5366C84.4391 36.8342 81.6077 37.7402 79.0525 39.1965C76.4973 40.6527 74.2747 42.627 72.5274 44.9927C70.78 47.3584 69.5465 50.0632 68.906 52.9337C68.2654 55.8041 68.232 58.7767 68.8078 61.6608C69.3836 64.5449 70.556 67.2768 72.2497 69.6812C75.7192 69.7468 80.7787 68.5994 85.1552 62.6384Z" fill="url(#paint3_linear_1155_3051)"/>
</g>
<g style="mix-blend-mode:screen">
<path style="mix-blend-mode:screen" d="M70.6198 63.321C69.6967 59.337 69.9518 55.1707 71.354 51.3291C72.7562 47.4876 75.2449 44.1365 78.5173 41.684C81.7897 39.2314 85.7046 37.7831 89.7852 37.5154C93.8659 37.2477 97.9364 38.1722 101.501 40.1763C99.155 38.5465 96.5022 37.4102 93.7037 36.8363C90.9052 36.2624 88.0194 36.2629 85.2211 36.8377C82.4228 37.4125 79.7704 38.5497 77.4248 40.1803C75.0791 41.8108 73.0891 43.9008 71.5753 46.3235C70.0616 48.7462 69.0556 51.4511 68.6185 54.2741C68.1814 57.0972 68.3222 59.9797 69.0325 62.7467C69.7427 65.5137 71.0075 68.1077 72.7502 70.3713C74.4929 72.6348 76.6772 74.5209 79.1706 75.915C74.8442 72.9355 71.7929 68.4414 70.6198 63.321Z" fill="url(#paint4_linear_1155_3051)"/>
</g>
<path style="mix-blend-mode:multiply" opacity="0.8" d="M103.624 51.6661L98.6845 46.7268L86.8553 58.5614L81.845 53.5511L76.9058 58.4904L86.8444 68.4345L86.8553 68.4236L86.8663 68.4345L103.624 51.6661Z" fill="url(#paint5_linear_1155_3051)"/>
<path d="M102.786 50.8262L97.8466 45.8923L86.012 57.727L81.0071 52.7166L76.0679 57.6614L86.0065 67.6001L86.012 67.5891L86.0284 67.6001L102.786 50.8262Z" fill="white"/>
<path d="M22.1277 210.112C23.6537 210.112 24.9697 209.58 25.8657 208.572L24.9557 207.69C24.1997 208.488 23.2757 208.866 22.1977 208.866C19.9857 208.866 18.3477 207.27 18.3477 205.1C18.3477 202.93 19.9857 201.334 22.1977 201.334C23.2757 201.334 24.1997 201.698 24.9557 202.496L25.8657 201.614C24.9697 200.606 23.6537 200.088 22.1417 200.088C19.1597 200.088 16.9477 202.202 16.9477 205.1C16.9477 207.998 19.1597 210.112 22.1277 210.112ZM34.8646 202.58L31.8686 207.592L28.9566 202.58H27.5706V210H28.8026V204.568L31.5466 209.16H32.1346L34.9066 204.582V210H36.1246V202.58H34.8646ZM41.9185 210.084C44.1445 210.084 45.7685 208.502 45.7685 206.29C45.7685 204.078 44.1445 202.51 41.9185 202.51C39.6925 202.51 38.0545 204.078 38.0545 206.29C38.0545 208.502 39.6925 210.084 41.9185 210.084ZM41.9185 208.908C40.4905 208.908 39.4125 207.872 39.4125 206.29C39.4125 204.708 40.4905 203.686 41.9185 203.686C43.3465 203.686 44.4105 204.708 44.4105 206.29C44.4105 207.872 43.3465 208.908 41.9185 208.908ZM52.9658 202.58H46.1898V203.756H48.9058V210H50.2498V203.756H52.9658V202.58ZM58.2741 202.51C57.1821 202.51 56.2301 202.93 55.6281 203.756V202.58H54.3401V212.716H55.6841V208.88C56.3001 209.678 57.2241 210.084 58.2741 210.084C60.4441 210.084 62.0261 208.572 62.0261 206.29C62.0261 204.022 60.4441 202.51 58.2741 202.51ZM58.1621 208.908C56.7481 208.908 55.6701 207.872 55.6701 206.29C55.6701 204.722 56.7481 203.686 58.1621 203.686C59.5901 203.686 60.6681 204.722 60.6681 206.29C60.6681 207.872 59.5901 208.908 58.1621 208.908ZM70.6848 206.332C70.6848 204.05 69.1588 202.51 67.0168 202.51C64.8748 202.51 63.2928 204.092 63.2928 206.29C63.2928 208.502 64.8888 210.084 67.2828 210.084C68.5148 210.084 69.5368 209.664 70.2088 208.88L69.4668 208.012C68.9208 208.614 68.1928 208.908 67.3248 208.908C65.8548 208.908 64.8048 208.04 64.6368 206.738H70.6568C70.6708 206.612 70.6848 206.444 70.6848 206.332ZM67.0168 203.644C68.3188 203.644 69.2568 204.526 69.3968 205.772H64.6368C64.7768 204.512 65.7288 203.644 67.0168 203.644ZM77.9853 202.58H71.2093V203.756H73.9253V210H75.2693V203.756H77.9853V202.58ZM82.7896 205.1L80.7036 205.086V202.58H79.3596V210L82.5796 210.014C84.5676 210.028 85.6876 209.132 85.6876 207.522C85.6876 205.996 84.6796 205.114 82.7896 205.1ZM82.4676 208.992L80.7036 208.978V206.066L82.4676 206.094C83.6996 206.108 84.3156 206.528 84.3156 207.508C84.3156 208.502 83.6856 209.006 82.4676 208.992ZM96.2261 206.15C96.9681 205.856 97.4161 205.282 97.4161 204.484C97.4161 203.266 96.3661 202.58 94.6161 202.58H91.1721V210H94.7421C96.7161 210 97.6681 209.244 97.6681 207.956C97.6681 207.018 97.2061 206.402 96.2261 206.15ZM92.4881 203.616H94.5041C95.5261 203.616 96.0721 203.966 96.0721 204.68C96.0721 205.394 95.5261 205.772 94.5041 205.772H92.4881V203.616ZM94.6441 208.964H92.4881V206.738H94.7281C95.8341 206.738 96.3241 207.102 96.3241 207.872C96.3241 208.628 95.7501 208.964 94.6441 208.964ZM103.006 210.084C104.336 210.084 105.442 209.524 106.03 208.488L105.008 207.844C104.532 208.572 103.804 208.908 102.992 208.908C101.536 208.908 100.444 207.9 100.444 206.29C100.444 204.708 101.536 203.686 102.992 203.686C103.804 203.686 104.532 204.022 105.008 204.75L106.03 204.092C105.442 203.056 104.336 202.51 103.006 202.51C100.724 202.51 99.0857 204.078 99.0857 206.29C99.0857 208.502 100.724 210.084 103.006 210.084ZM114.366 206.332C114.366 204.05 112.84 202.51 110.698 202.51C108.556 202.51 106.974 204.092 106.974 206.29C106.974 208.502 108.57 210.084 110.964 210.084C112.196 210.084 113.218 209.664 113.89 208.88L113.148 208.012C112.602 208.614 111.874 208.908 111.006 208.908C109.536 208.908 108.486 208.04 108.318 206.738H114.338C114.352 206.612 114.366 206.444 114.366 206.332ZM110.698 203.644C112 203.644 112.938 204.526 113.078 205.772H108.318C108.458 204.512 109.41 203.644 110.698 203.644ZM125.587 210H127.169L124.159 206.15L126.973 202.58H125.531L123.123 205.716H121.555V202.58H120.211V210H121.555V206.864H123.095L125.587 210ZM133.461 202.58L130.899 208.516L128.309 202.58H126.909L130.185 209.986L129.947 210.504C129.583 211.358 129.177 211.652 128.533 211.652C128.029 211.652 127.567 211.456 127.203 211.106L126.629 212.114C127.091 212.562 127.819 212.8 128.533 212.8C129.667 212.8 130.521 212.31 131.179 210.742L134.777 202.58H133.461ZM140.087 202.51C138.995 202.51 138.043 202.93 137.441 203.756V202.58H136.153V212.716H137.497V208.88C138.113 209.678 139.037 210.084 140.087 210.084C142.257 210.084 143.839 208.572 143.839 206.29C143.839 204.022 142.257 202.51 140.087 202.51ZM139.975 208.908C138.561 208.908 137.483 207.872 137.483 206.29C137.483 204.722 138.561 203.686 139.975 203.686C141.403 203.686 142.481 204.722 142.481 206.29C142.481 207.872 141.403 208.908 139.975 208.908ZM149.025 210.084C150.355 210.084 151.461 209.524 152.049 208.488L151.027 207.844C150.551 208.572 149.823 208.908 149.011 208.908C147.555 208.908 146.463 207.9 146.463 206.29C146.463 204.708 147.555 203.686 149.011 203.686C149.823 203.686 150.551 204.022 151.027 204.75L152.049 204.092C151.461 203.056 150.355 202.51 149.025 202.51C146.743 202.51 145.105 204.078 145.105 206.29C145.105 208.502 146.743 210.084 149.025 210.084ZM157.135 205.1L155.133 205.086V202.58H153.789V210L156.911 210.014C158.899 210.028 160.019 209.132 160.019 207.522C160.019 205.996 159.011 205.114 157.135 205.1ZM161.125 210H162.469V202.58H161.125V210ZM156.813 208.992L155.133 208.978V206.066L156.813 206.094C158.031 206.108 158.661 206.528 158.661 207.508C158.661 208.502 158.017 209.006 156.813 208.992Z" fill="white"/>
<defs>
<filter id="filter0_d_1155_3051" x="0" y="0" width="180" height="188" filterUnits="userSpaceOnUse" color-interpolation-filters="sRGB">
<feFlood flood-opacity="0" result="BackgroundImageFix"/>
<feColorMatrix in="SourceAlpha" type="matrix" values="0 0 0 0 0 0 0 0 0 0 0 0 0 0 0 0 0 0 127 0" result="hardAlpha"/>
<feOffset dy="5"/>
<feGaussianBlur stdDeviation="2.5"/>
<feColorMatrix type="matrix" values="0 0 0 0 0.0875 0 0 0 0 0.15075 0 0 0 0 0.375 0 0 0 1 0"/>
<feBlend mode="normal" in2="BackgroundImageFix" result="effect1_dropShadow_1155_3051"/>
<feBlend mode="normal" in="SourceGraphic" in2="effect1_dropShadow_1155_3051" result="shape"/>
</filter>
<linearGradient id="paint0_linear_1155_3051" x1="90" y1="0" x2="90" y2="178" gradientUnits="userSpaceOnUse">
<stop stop-color="#497CE0"/>
<stop offset="1" stop-color="#001641"/>
</linearGradient>
<radialGradient id="paint1_radial_1155_3051" cx="0" cy="0" r="1" gradientUnits="userSpaceOnUse" gradientTransform="translate(93.0563 73.076) rotate(-13) scale(22.956)">
<stop stop-color="#88C607"/>
<stop offset="1" stop-color="#22AC00"/>
</radialGradient>
<linearGradient id="paint2_linear_1155_3051" x1="87.0918" y1="49.9548" x2="108.505" y2="90.8751" gradientUnits="userSpaceOnUse">
<stop stop-color="white"/>
<stop offset="1" stop-color="#FBAE17"/>
</linearGradient>
<linearGradient id="paint3_linear_1155_3051" x1="78.8203" y1="37.7587" x2="93.2411" y2="64.4689" gradientUnits="userSpaceOnUse">
<stop stop-color="#FFFBD4"/>
<stop offset="1"/>
</linearGradient>
<linearGradient id="paint4_linear_1155_3051" x1="74.2533" y1="34.7917" x2="98.608" y2="73.7319" gradientUnits="userSpaceOnUse">
<stop stop-color="white"/>
<stop offset="1"/>
</linearGradient>
<linearGradient id="paint5_linear_1155_3051" x1="562.372" y1="943.908" x2="1868.88" y2="943.908" gradientUnits="userSpaceOnUse">
<stop stop-color="white"/>
<stop offset="1" stop-color="#FBAE17"/>
</linearGradient>
</defs>
</svg>
