<svg width="110" height="95" viewBox="0 0 110 95" fill="none" xmlns="http://www.w3.org/2000/svg">
<path d="M55.0005 94.9998C81.0299 94.9998 102.131 93.3426 102.131 91.2984C102.131 89.2541 81.0299 87.5969 55.0005 87.5969C28.9711 87.5969 7.87012 89.2541 7.87012 91.2984C7.87012 93.3426 28.9711 94.9998 55.0005 94.9998Z" fill="#714C05"/>
<path d="M5.86949 0H104.13C107.359 0 110 2.63188 110 5.848V66.1533H0V5.84774C0 2.63137 2.64116 0 5.86949 0Z" fill="#666666"/>
<path d="M3.98535 62.1847H106.014V5.85026C106.014 4.8258 105.158 3.97314 104.13 3.97314H5.86945C4.84117 3.97314 3.98587 4.8258 3.98587 5.85026V62.185H3.98535V62.1847Z" fill="#DCE3DB"/>
<path d="M110 66.1543V72.5494C110 75.7666 107.088 78.3974 103.529 78.3974H6.47037C2.91134 78.3974 0 75.7666 0 72.5494V66.1543H110Z" fill="white"/>
<path d="M25.3291 12.4443H84.6743H93.5081C94.5788 12.4443 95.4543 13.3171 95.4543 14.3833V25.9224V62.1838H14.5489L14.5483 25.9227V14.3835C14.5483 13.3168 15.4238 12.4446 16.4945 12.4446H25.3283H25.3291V12.4443Z" fill="white"/>
<path d="M16.495 12.4443H93.5078C94.5785 12.4443 95.4539 13.3166 95.4539 14.3833V18.2609H14.5488V14.3833C14.5488 13.3168 15.4246 12.4443 16.495 12.4443Z" fill="#828282"/>
<path d="M37.7537 14.4536H80.0592C80.3472 14.4536 80.582 14.6888 80.582 14.9745V15.9412C80.582 16.2274 80.3467 16.4621 80.0592 16.4621H37.7537C37.467 16.4621 37.2314 16.2282 37.2314 15.9412V14.9745C37.2312 14.6875 37.4662 14.4536 37.7537 14.4536Z" fill="white"/>
<path d="M19.1482 14.1084C19.7667 14.1084 20.2685 14.6076 20.2685 15.2251C20.2685 15.8418 19.7664 16.3413 19.1482 16.3413C18.5287 16.3413 18.0269 15.842 18.0269 15.2251C18.0269 14.6076 18.529 14.1084 19.1482 14.1084Z" fill="#88C607"/>
<path d="M23.57 14.1084C24.1895 14.1084 24.6909 14.6076 24.6909 15.2251C24.6909 15.8418 24.1898 16.3413 23.57 16.3413C22.9516 16.3413 22.4497 15.842 22.4497 15.2251C22.4497 14.6076 22.9516 14.1084 23.57 14.1084Z" fill="#FAD24D"/>
<path d="M27.9954 14.1084C28.6139 14.1084 29.1157 14.6076 29.1157 15.2251C29.1157 15.8418 28.6136 16.3413 27.9954 16.3413C27.3759 16.3413 26.874 15.842 26.874 15.2251C26.874 14.6076 27.3764 14.1084 27.9954 14.1084Z" fill="#FF5B62"/>
<path d="M90.9765 23.2446H85.4336V24.1328H90.9765V23.2446Z" fill="white"/>
<path d="M22.7456 21.9419H79.999V37.2316H22.7456V21.9419ZM26.5089 40.1716H76.2362V41.3478H26.5089V40.1716ZM26.5089 55.4608H49.2225V56.637H26.5089V55.4608ZM26.5089 51.6383H76.2362V52.8145H26.5089V51.6383ZM26.5089 47.8158H67.9032V48.992H26.5089V47.8158ZM26.5089 43.9936H76.2362V45.1698H26.5089V43.9936Z" fill="#ECF0F1"/>
<path d="M67.6872 87.5968L77.0198 90.5762H32.9814L40.5117 87.5968V78.3975H67.6872V87.5968Z" fill="#C2C2C4"/>
<path d="M67.6863 87.5968L40.5107 78.3975H67.6863V87.5968Z" fill="#B6B6B8"/>
<path d="M40.5117 87.5959H67.6872L77.0198 90.5753V91.8584H55.0012H32.9814V90.5753L40.5117 87.5959Z" fill="#ECF0F1"/>
<path d="M54.9999 74.2904C56.116 74.2904 57.0207 73.389 57.0207 72.2771C57.0207 71.1651 56.116 70.2637 54.9999 70.2637C53.8838 70.2637 52.979 71.1651 52.979 72.2771C52.979 73.389 53.8838 74.2904 54.9999 74.2904Z" fill="#B6B6B8"/>
</svg>
